<svg xmlns="http://www.w3.org/2000/svg" width="824.102" height="708.913" viewBox="0 0 824.102 708.913">
  <g id="Illustration.02" transform="translate(-103.986 -43.205)">
    <g id="Background_Complete" data-name="Background Complete" transform="translate(103.986 43.205)">
      <g id="Grupo_385" data-name="Grupo 385">
        <g id="Grupo_376" data-name="Grupo 376" transform="translate(0 368.74)">
          <g id="Grupo_368" data-name="Grupo 368" transform="translate(0 166.937)">
            <g id="Grupo_363" data-name="Grupo 363" opacity="0.17">
              <path id="Trazado_502" data-name="Trazado 502" d="M312.74,349.755l-2.356,131.337-206.087.482-.311-133.1Z" transform="translate(-103.986 -348.477)" fill="#2bc1d3"/>
            </g>
            <g id="Grupo_364" data-name="Grupo 364" transform="translate(87.237 1.788)">
              <path id="Trazado_503" data-name="Trazado 503" d="M153.8,480.436c-.267,0,.042-29.322.691-65.477s1.392-65.468,1.658-65.463-.042,29.317-.691,65.482S154.063,480.441,153.8,480.436Z" transform="translate(-153.7 -349.496)" fill="#e0e0e0"/>
            </g>
            <g id="Grupo_365" data-name="Grupo 365" transform="translate(0.309 1.952)">
              <path id="Trazado_504" data-name="Trazado 504" d="M104.164,480.735a10.141,10.141,0,0,1,.835-1.379q.948-1.429,2.551-3.853l9.56-14.045,31.812-46.145c12.427-18.025,23.6-34.388,31.575-46.31,3.987-5.961,7.152-10.823,9.332-14.187q1.558-2.456,2.476-3.9a10.274,10.274,0,0,1,.918-1.327,10.076,10.076,0,0,1-.751,1.428l-2.323,4c-2.083,3.429-5.162,8.354-9.081,14.366-7.828,12.024-18.918,28.455-31.347,46.482s-23.791,34.255-32.049,45.985c-4.1,5.8-7.44,10.518-9.811,13.87l-2.7,3.748A9.963,9.963,0,0,1,104.164,480.735Z" transform="translate(-104.162 -349.59)" fill="#e0e0e0"/>
            </g>
            <g id="Grupo_366" data-name="Grupo 366" transform="translate(0.638 1.543)">
              <path id="Trazado_505" data-name="Trazado 505" d="M191.044,480.541a9.987,9.987,0,0,1-.948-1.291q-.945-1.411-2.555-3.8c-2.25-3.394-5.417-8.172-9.309-14.042-7.961-11.888-18.878-28.183-30.935-46.183-12.122-18.018-22.994-34.4-30.71-46.355-3.857-5.977-6.952-10.832-9.051-14.214q-1.513-2.453-2.4-3.9a9.392,9.392,0,0,1-.781-1.4,9.992,9.992,0,0,1,.946,1.29l2.555,3.8,9.309,14.043c7.963,11.887,18.878,28.183,30.94,46.189,12.118,18.011,22.989,34.39,30.7,46.348,3.86,5.977,6.954,10.832,9.055,14.214l2.4,3.9A9.891,9.891,0,0,1,191.044,480.541Z" transform="translate(-104.35 -349.357)" fill="#e0e0e0"/>
            </g>
            <rect id="Rectángulo_67" data-name="Rectángulo 67" width="33.089" height="6.778" transform="matrix(-1, -0.018, 0.018, -1, 141.665, 118.448)" fill="#e0e0e0"/>
            <g id="Grupo_367" data-name="Grupo 367" transform="translate(110.295 104.995)">
              <path id="Trazado_506" data-name="Trazado 506" d="M166.841,408.9c0-.267,7.245-.526,16.184-.577s16.191.121,16.191.39-7.242.525-16.186.579S166.841,409.165,166.841,408.9Z" transform="translate(-166.841 -408.312)" fill="#e0e0e0"/>
            </g>
            <path id="Trazado_507" data-name="Trazado 507" d="M199.351,348.9l-.909,50.7-7.136-5.67-9.264,5.375.91-50.7Z" transform="translate(-45.073 -348.375)" fill="#e0e0e0"/>
          </g>
          <g id="Grupo_374" data-name="Grupo 374" transform="translate(24.721 67.773)" opacity="0.17">
            <g id="Grupo_369" data-name="Grupo 369">
              <path id="Trazado_508" data-name="Trazado 508" d="M277.387,292.94l-1.8,100.232-157.277.368-.237-101.575Z" transform="translate(-118.074 -291.965)" fill="#2bc1d3"/>
            </g>
            <g id="Grupo_370" data-name="Grupo 370" transform="translate(66.576 1.365)">
              <path id="Trazado_509" data-name="Trazado 509" d="M156.088,392.671c-.2,0,.032-22.378.526-49.97s1.062-49.963,1.265-49.958-.032,22.373-.526,49.972S156.291,392.674,156.088,392.671Z" transform="translate(-156.014 -292.743)" fill="#2bc1d3"/>
            </g>
            <g id="Grupo_371" data-name="Grupo 371" transform="translate(0.236 1.489)">
              <path id="Trazado_510" data-name="Trazado 510" d="M118.21,392.9a7.481,7.481,0,0,1,.637-1.055l1.948-2.939c1.762-2.59,4.245-6.236,7.295-10.72l24.279-35.214c9.484-13.756,18.014-26.244,24.1-35.344,3.043-4.547,5.459-8.258,7.123-10.825l1.888-2.976a8.063,8.063,0,0,1,.7-1.012,7.451,7.451,0,0,1-.572,1.09q-.658,1.132-1.772,3.05c-1.592,2.618-3.941,6.375-6.931,10.962-5.973,9.179-14.438,21.717-23.923,35.474s-18.156,26.144-24.458,35.1c-3.132,4.427-5.678,8.028-7.489,10.586l-2.06,2.858A7.592,7.592,0,0,1,118.21,392.9Z" transform="translate(-118.208 -292.814)" fill="#2bc1d3"/>
            </g>
            <g id="Grupo_372" data-name="Grupo 372" transform="translate(0.486 1.176)">
              <path id="Trazado_511" data-name="Trazado 511" d="M184.514,392.752a7.568,7.568,0,0,1-.723-.986l-1.951-2.9-7.1-10.716c-6.077-9.072-14.406-21.508-23.608-35.244-9.253-13.75-17.549-26.251-23.436-35.376-2.944-4.562-5.306-8.268-6.908-10.848q-1.153-1.874-1.834-2.976a7.323,7.323,0,0,1-.6-1.067,7.674,7.674,0,0,1,.721.986l1.951,2.9c1.716,2.592,4.134,6.236,7.1,10.716L151.74,342.49c9.249,13.743,17.546,26.244,23.433,35.371,2.944,4.561,5.306,8.268,6.908,10.846q1.153,1.874,1.834,2.978A7.707,7.707,0,0,1,184.514,392.752Z" transform="translate(-118.351 -292.636)" fill="#2bc1d3"/>
            </g>
            <rect id="Rectángulo_68" data-name="Rectángulo 68" width="25.253" height="5.172" transform="translate(108.113 90.394) rotate(-178.974)" fill="#2bc1d3"/>
            <g id="Grupo_373" data-name="Grupo 373" transform="translate(84.172 80.127)">
              <path id="Trazado_512" data-name="Trazado 512" d="M166.042,338.075c0-.2,5.529-.4,12.352-.44s12.357.095,12.357.3-5.527.4-12.352.44S166.044,338.279,166.042,338.075Z" transform="translate(-166.042 -337.628)" fill="#2bc1d3"/>
            </g>
            <path id="Trazado_513" data-name="Trazado 513" d="M196.42,292.293l-.694,38.69-5.446-4.327-7.07,4.1.694-38.692Z" transform="translate(-68.912 -291.889)" fill="#2bc1d3"/>
          </g>
          <g id="Grupo_375" data-name="Grupo 375" transform="translate(63.008)">
            <path id="Trazado_514" data-name="Trazado 514" d="M277.973,543.913a28.638,28.638,0,0,0-25.811-19.451l-4.826-265.577h23.224v3.966h4.376v-9.507h-36.1s4.3,195.966,7.428,271.462a28.427,28.427,0,0,0-24.087,28.8l-82.287-1.1,2.353,10.813,81.115-2.232c.109.372.189.748.316,1.12a28.647,28.647,0,1,0,54.3-18.29Z" transform="translate(-139.893 -253.343)" fill="#e0e0e0"/>
            <path id="Trazado_515" data-name="Trazado 515" d="M148.877,446.049h4.359l8.386-16.47-6.937.19Z" transform="translate(-133.112 -120.328)" fill="#e0e0e0"/>
          </g>
        </g>
        <rect id="Rectángulo_69" data-name="Rectángulo 69" width="82.403" height="22.775" transform="translate(671.258)" fill="#ebebeb"/>
        <rect id="Rectángulo_70" data-name="Rectángulo 70" width="82.403" height="22.776" transform="translate(133.48 150.21)" fill="#ebebeb"/>
        <rect id="Rectángulo_71" data-name="Rectángulo 71" width="82.403" height="22.776" transform="translate(741.698 482.136)" fill="#ebebeb" opacity="0.34"/>
        <rect id="Rectángulo_72" data-name="Rectángulo 72" width="82.403" height="22.776" transform="translate(650.338 22.775)" fill="#f5f5f5"/>
        <rect id="Rectángulo_73" data-name="Rectángulo 73" width="82.404" height="22.776" transform="translate(98.767 176.641)" fill="#f5f5f5"/>
        <rect id="Rectángulo_74" data-name="Rectángulo 74" width="59.199" height="22.774" transform="translate(712.459 505.641)" fill="#f5f5f5"/>
        <g id="Grupo_378" data-name="Grupo 378" transform="translate(243.863 73.159)">
          <rect id="Rectángulo_75" data-name="Rectángulo 75" width="177.517" height="363.011" transform="translate(2.632 2.632)" fill="#ebebeb"/>
          <path id="Trazado_516" data-name="Trazado 516" d="M333.218,86.4s-36.4,164.673-88.759,175.925c0,0,21.155,115.5,23.073,187.086H244.459V86.4Z" transform="translate(-241.827 -83.765)" fill="#e0e0e0"/>
          <path id="Trazado_517" data-name="Trazado 517" d="M295.383,86.4s36.4,164.673,88.759,175.925c0,0-21.155,115.5-23.073,187.086h23.073V86.4Z" transform="translate(-203.392 -83.765)" fill="#e0e0e0"/>
          <rect id="Rectángulo_76" data-name="Rectángulo 76" width="6.471" height="363.7" transform="translate(88.156 1.943)" fill="#fafafa"/>
          <rect id="Rectángulo_77" data-name="Rectángulo 77" width="1.593" height="363.7" transform="translate(43.688 1.943)" fill="#fafafa"/>
          <rect id="Rectángulo_78" data-name="Rectángulo 78" width="1.593" height="363.7" transform="translate(139.515 1.943)" fill="#fafafa"/>
          <path id="Trazado_518" data-name="Trazado 518" d="M421.976,137.4v1.457l-177.517.728v-1.457Z" transform="translate(-241.827 -45.272)" fill="#fafafa"/>
          <path id="Trazado_519" data-name="Trazado 519" d="M421.976,240.321v1.427l-177.517.713v-1.427Z" transform="translate(-241.827 32.41)" fill="#fafafa"/>
          <rect id="Rectángulo_79" data-name="Rectángulo 79" width="177.517" height="6.054" transform="translate(2.632 180.494)" fill="#fafafa"/>
          <g id="Grupo_377" data-name="Grupo 377">
            <path id="Trazado_520" data-name="Trazado 520" d="M425.741,453.172H242.959V84.9H425.741Zm-177.518-5.264H420.477V90.161H248.223Z" transform="translate(-242.959 -84.897)" fill="#f5f5f5"/>
          </g>
        </g>
        <g id="Grupo_384" data-name="Grupo 384" transform="translate(358.956 558.778)">
          <path id="Trazado_526" data-name="Trazado 526" d="M341.09,410.636c-6.2-3.2-13.5-3.617-20.387-2.478-3.7.611-7.554,1.716-10.071,4.5s-2.994,7.667-.1,10.055c1.72,1.42,4.118,1.635,6.349,1.611,5.391-.065,11.369-1.013,15.675,2.23,2.455,1.85,4.092,4.926,7.028,5.835,2.874.89,6.115-.805,7.638-3.4a11.857,11.857,0,0,0,.865-8.756A13.366,13.366,0,0,0,341.09,410.636Z" transform="translate(-308.548 -326.968)" fill="#ebebeb"/>
          <path id="Trazado_527" data-name="Trazado 527" d="M346.082,417.885c-3.792,5.415-11.16,3.622-14.578.316s-4.861-8.1-6.175-12.664c-3-10.441-6.033-21.39-3.8-32.019a17.806,17.806,0,0,1,4.089-8.705c2.234-2.358,5.668-3.76,8.807-2.93,3.717.981,6.026,4.62,7.695,8.082a76.3,76.3,0,0,1,7.542,32.754c.019,5.277-.6,10.811-3.58,15.166" transform="translate(-299.333 -361.642)" fill="#ebebeb"/>
          <path id="Trazado_528" data-name="Trazado 528" d="M342.844,418.161c-4.117-4.887-4.9-12.013-3.067-18.134s5.971-11.329,10.741-15.579A57.8,57.8,0,0,1,369.751,373.1a20.5,20.5,0,0,1,8.649-1.47,9.079,9.079,0,0,1,7.258,4.392c2.025,3.861.084,8.542-2.014,12.362a146.622,146.622,0,0,1-12.633,19.237c-3.787,4.88-8.124,9.695-13.894,11.9s-11.764,1.946-14.822-2.055" transform="translate(-285.682 -354.147)" fill="#ebebeb"/>
          <g id="Grupo_381" data-name="Grupo 381" transform="translate(18.706 88.135)">
            <path id="Trazado_529" data-name="Trazado 529" d="M347.507,461.668a11.89,11.89,0,0,1-.342-2.462c-.174-1.79-.393-4.038-.653-6.715A97.568,97.568,0,0,0,345,442.641a76.054,76.054,0,0,0-3.581-11.625,42.778,42.778,0,0,0-5.936-10.52,22.148,22.148,0,0,0-7.505-6.24,21.037,21.037,0,0,0-6.321-1.969,11.777,11.777,0,0,1-2.45-.354,11.475,11.475,0,0,1,2.492-.04,19.207,19.207,0,0,1,6.591,1.716,22.153,22.153,0,0,1,7.917,6.294,41.888,41.888,0,0,1,6.154,10.732,71.06,71.06,0,0,1,3.555,11.815,83.067,83.067,0,0,1,1.309,9.976c.214,2.851.295,5.161.333,6.758A11.437,11.437,0,0,1,347.507,461.668Z" transform="translate(-319.208 -411.868)" fill="#e0e0e0"/>
          </g>
          <g id="Grupo_382" data-name="Grupo 382" transform="translate(33.963 21.76)">
            <path id="Trazado_530" data-name="Trazado 530" d="M340.483,485.049a4.922,4.922,0,0,1-.067-1.142c0-.856.005-1.939.009-3.264.007-2.836.005-6.937-.146-12-.251-10.127-1.123-24.109-2.808-39.475s-3.945-29.2-5.994-39.115c-.484-2.488-.972-4.726-1.432-6.684-.439-1.964-.811-3.657-1.172-5.027-.311-1.29-.563-2.339-.763-3.174a4.939,4.939,0,0,1-.2-1.125,4.629,4.629,0,0,1,.4,1.07c.249.821.563,1.856.949,3.127.421,1.356.851,3.041,1.342,5,.512,1.951,1.051,4.185,1.581,6.666a370.451,370.451,0,0,1,6.3,39.156c1.688,15.4,2.448,29.42,2.515,39.573.061,5.075-.047,9.184-.177,12.02-.081,1.327-.146,2.408-.2,3.264A4.872,4.872,0,0,1,340.483,485.049Z" transform="translate(-327.902 -374.043)" fill="#e0e0e0"/>
          </g>
          <g id="Grupo_383" data-name="Grupo 383" transform="translate(46.429 30.027)">
            <path id="Trazado_531" data-name="Trazado 531" d="M335.053,454.451a21.76,21.76,0,0,1,.025-3.409c.125-2.192.426-5.361,1.044-9.242a121.825,121.825,0,0,1,3.006-13.464,119.246,119.246,0,0,1,5.629-15.931c4.671-11.078,11.015-20.134,16.535-25.746a41.985,41.985,0,0,1,3.889-3.615c.6-.5,1.125-1.007,1.662-1.406q.811-.561,1.509-1.041a21.54,21.54,0,0,1,2.872-1.839c.163.221-4.069,2.711-9.412,8.4a89.392,89.392,0,0,0-16.123,25.653,127.139,127.139,0,0,0-5.661,15.784,136.571,136.571,0,0,0-3.2,13.329c-.7,3.843-1.111,6.979-1.358,9.151A21.761,21.761,0,0,1,335.053,454.451Z" transform="translate(-335.007 -378.754)" fill="#e0e0e0"/>
          </g>
        </g>
      </g>
    </g>
    <g id="Floor" transform="translate(136.456 740.795)">
      <g id="Grupo_387" data-name="Grupo 387">
        <g id="Grupo_386" data-name="Grupo 386">
          <path id="Trazado_533" data-name="Trazado 533" d="M889.2,441.2c0,.253-171.646.456-383.335.456-211.763,0-383.373-.2-383.373-.456s171.61-.456,383.373-.456C717.551,440.748,889.2,440.953,889.2,441.2Z" transform="translate(-122.49 -440.748)" fill="#263238"/>
        </g>
      </g>
    </g>
    <g id="Character_1" data-name="Character 1" transform="translate(276.878 192.744)">
      <g id="Grupo_536" data-name="Grupo 536">
        <g id="Grupo_432" data-name="Grupo 432" transform="translate(6.2 519.222)">
          <g id="Grupo_413" data-name="Grupo 413">
            <g id="Grupo_412" data-name="Grupo 412">
              <path id="Trazado_540" data-name="Trazado 540" d="M239.707,447.522l2.859-17.867-31.979-5.336-4.54,26.672,1.96.465c8.74,1.985,44.671,8.867,50.881,7.982C265.812,458.451,239.707,447.522,239.707,447.522Z" transform="translate(-206.047 -424.319)" fill="#525452"/>
            </g>
          </g>
          <g id="Grupo_416" data-name="Grupo 416" transform="translate(0.37 25.011)">
            <g id="Grupo_415" data-name="Grupo 415">
              <g id="Grupo_414" data-name="Grupo 414">
                <path id="Trazado_541" data-name="Trazado 541" d="M259.746,447.167c-.049.3-12.062-1.372-26.83-3.736s-26.706-4.524-26.658-4.824,12.059,1.372,26.832,3.736S259.794,446.867,259.746,447.167Z" transform="translate(-206.258 -438.572)" fill="#263238"/>
              </g>
            </g>
          </g>
          <g id="Grupo_419" data-name="Grupo 419" transform="translate(33.567 24.012)">
            <g id="Grupo_418" data-name="Grupo 418">
              <g id="Grupo_417" data-name="Grupo 417">
                <path id="Trazado_542" data-name="Trazado 542" d="M225.248,440.928c-.24-.181.135-1.088.972-1.909s1.753-1.184,1.927-.942-.384.967-1.153,1.728S225.492,441.114,225.248,440.928Z" transform="translate(-225.176 -438.003)" fill="#263238"/>
              </g>
            </g>
          </g>
          <g id="Grupo_422" data-name="Grupo 422" transform="translate(35.402 24.863)">
            <g id="Grupo_421" data-name="Grupo 421">
              <g id="Grupo_420" data-name="Grupo 420">
                <path id="Trazado_543" data-name="Trazado 543" d="M226.313,442.066c-.263-.147.051-1.185.86-2.2s1.744-1.555,1.948-1.334-.339,1.072-1.086,2.02S226.578,442.222,226.313,442.066Z" transform="translate(-226.222 -438.488)" fill="#263238"/>
              </g>
            </g>
          </g>
          <g id="Grupo_425" data-name="Grupo 425" transform="translate(1.702 18.978)">
            <g id="Grupo_424" data-name="Grupo 424">
              <g id="Grupo_423" data-name="Grupo 423">
                <path id="Trazado_544" data-name="Trazado 544" d="M215.348,442.627c-.139.067-.54-.479-1.107-1.376a21.167,21.167,0,0,0-2.357-3.262,7.484,7.484,0,0,0-3.222-2.069c-.951-.286-1.616-.235-1.644-.4-.037-.125.628-.476,1.793-.361a6.452,6.452,0,0,1,3.874,2.076,11.819,11.819,0,0,1,2.25,3.666C215.334,441.905,215.484,442.562,215.348,442.627Z" transform="translate(-207.017 -435.134)" fill="#263238"/>
              </g>
            </g>
          </g>
          <g id="Grupo_428" data-name="Grupo 428" transform="translate(31.008 23.385)">
            <g id="Grupo_427" data-name="Grupo 427">
              <g id="Grupo_426" data-name="Grupo 426">
                <path id="Trazado_545" data-name="Trazado 545" d="M226.984,437.855c.116.277-.533.811-1.5,1s-1.769-.058-1.765-.358.705-.551,1.553-.721S226.866,437.571,226.984,437.855Z" transform="translate(-223.718 -437.645)" fill="#263238"/>
              </g>
            </g>
          </g>
          <g id="Grupo_431" data-name="Grupo 431" transform="translate(30.21 20.899)">
            <g id="Grupo_430" data-name="Grupo 430">
              <g id="Grupo_429" data-name="Grupo 429">
                <path id="Trazado_546" data-name="Trazado 546" d="M227.1,437.117c-.019.305-.912.425-2,.267s-1.9-.528-1.837-.825.963-.416,2-.265S227.118,436.815,227.1,437.117Z" transform="translate(-223.263 -436.229)" fill="#263238"/>
              </g>
            </g>
          </g>
        </g>
        <g id="Grupo_453" data-name="Grupo 453" transform="translate(119.946 520.487)">
          <g id="Grupo_434" data-name="Grupo 434">
            <g id="Grupo_433" data-name="Grupo 433">
              <path id="Trazado_547" data-name="Trazado 547" d="M303.941,443.119l-.667-18.079-32.405.979.73,27.046,2.013.075c8.958.247,45.543.018,51.462-2.058C331.675,448.77,303.941,443.119,303.941,443.119Z" transform="translate(-270.869 -425.04)" fill="#525452"/>
            </g>
          </g>
          <g id="Grupo_437" data-name="Grupo 437" transform="translate(0.777 24.218)">
            <g id="Grupo_436" data-name="Grupo 436">
              <g id="Grupo_435" data-name="Grupo 435">
                <path id="Trazado_548" data-name="Trazado 548" d="M325.444,438.983c.01.3-12.1,1-27.044,1.551s-27.078.751-27.088.447,12.1-1,27.046-1.549S325.432,438.679,325.444,438.983Z" transform="translate(-271.312 -438.841)" fill="#263238"/>
              </g>
            </g>
          </g>
          <g id="Grupo_440" data-name="Grupo 440" transform="translate(33.66 18.346)">
            <g id="Grupo_439" data-name="Grupo 439">
              <g id="Grupo_438" data-name="Grupo 438">
                <path id="Trazado_549" data-name="Trazado 549" d="M290.17,438.9c-.272-.13-.079-1.093.583-2.06s1.488-1.5,1.707-1.3-.189,1.021-.8,1.918S290.446,439.033,290.17,438.9Z" transform="translate(-290.051 -435.495)" fill="#263238"/>
              </g>
            </g>
          </g>
          <g id="Grupo_443" data-name="Grupo 443" transform="translate(35.738 18.829)">
            <g id="Grupo_442" data-name="Grupo 442">
              <g id="Grupo_441" data-name="Grupo 441">
                <path id="Trazado_550" data-name="Trazado 550" d="M291.387,439.806c-.286-.1-.179-1.172.418-2.322s1.409-1.864,1.651-1.686-.125,1.118-.674,2.192S291.679,439.906,291.387,439.806Z" transform="translate(-291.236 -435.771)" fill="#263238"/>
              </g>
            </g>
          </g>
          <g id="Grupo_446" data-name="Grupo 446" transform="translate(0.977 19.799)">
            <g id="Grupo_445" data-name="Grupo 445">
              <g id="Grupo_444" data-name="Grupo 444">
                <path id="Trazado_551" data-name="Trazado 551" d="M280.983,442.4c-.123.091-.623-.363-1.353-1.135a21.279,21.279,0,0,0-2.948-2.741,7.447,7.447,0,0,0-3.56-1.4c-.99-.095-1.632.082-1.692-.075-.061-.116.523-.59,1.688-.7a6.426,6.426,0,0,1,4.2,1.283,11.786,11.786,0,0,1,2.918,3.157C280.828,441.694,281.1,442.312,280.983,442.4Z" transform="translate(-271.426 -436.323)" fill="#263238"/>
              </g>
            </g>
          </g>
          <g id="Grupo_449" data-name="Grupo 449" transform="translate(30.669 18.226)">
            <g id="Grupo_448" data-name="Grupo 448">
              <g id="Grupo_447" data-name="Grupo 447">
                <path id="Trazado_552" data-name="Trazado 552" d="M291.43,435.549c.167.249-.367.9-1.277,1.269s-1.748.288-1.8-.007.584-.677,1.383-1.011S291.26,435.291,291.43,435.549Z" transform="translate(-288.347 -435.426)" fill="#263238"/>
              </g>
            </g>
          </g>
          <g id="Grupo_452" data-name="Grupo 452" transform="translate(29.31 16.158)">
            <g id="Grupo_451" data-name="Grupo 451">
              <g id="Grupo_450" data-name="Grupo 450">
                <path id="Trazado_553" data-name="Trazado 553" d="M291.441,434.708c.04.3-.814.593-1.907.647s-1.971-.147-1.962-.451.863-.593,1.907-.648S291.4,434.406,291.441,434.708Z" transform="translate(-287.572 -434.248)" fill="#263238"/>
              </g>
            </g>
          </g>
        </g>
        <g id="Grupo_454" data-name="Grupo 454" transform="translate(184.045 40.861)">
          <path id="Trazado_554" data-name="Trazado 554" d="M320.315,199.469l-1.82-5.887a53.548,53.548,0,0,0-2.864-9.953,15.536,15.536,0,0,0-2.59-4.45,23.849,23.849,0,0,0-4.559-4.522c-1.685-1.023-1.309-3.545.449-3.692s6.468,2.565,10.085,7.81,4.29-4.638,4.6-8.235,1.79-14.664,2.967-15.415c1.725-1.1,3.264.586,2.871,4.168-.4,3.627-.818,14.426,1.083,14.547,1.872.121,3.2-18.214,3.2-18.214s-.349-3.982,1.85-3.913c3.967.119,1.121,19.469.805,21.3-.221,1.274,1.842,1.481,2,.1.168-1.425.905-18.33,4.941-18.248,3.1.063-2.192,15.942-.405,19.583s2.787-12.482,5.745-12.3c1.1.07,1.92.274.016,9.416-1.949,9.363-11.36,33.761-11.36,33.761l-17.232-6.161" transform="translate(-307.398 -151.711)" fill="#ffbe9d"/>
        </g>
        <g id="Grupo_479" data-name="Grupo 479" transform="translate(71.934)">
          <g id="Grupo_469" data-name="Grupo 469" transform="translate(5.866 11.894)">
            <g id="Grupo_468" data-name="Grupo 468">
              <g id="Grupo_455" data-name="Grupo 455">
                <path id="Trazado_555" data-name="Trazado 555" d="M247.469,207.094l29.161,2.157c.388-3.374.955-16.484.955-16.484s12.178-1.132,13.071-13.183.511-39.873.511-39.873h0a42,42,0,0,0-42.444,2.7l-1.871,1.265Z" transform="translate(-246.851 -135.202)" fill="#ffbe9d"/>
              </g>
              <g id="Grupo_459" data-name="Grupo 459" transform="translate(37.257 20.579)">
                <g id="Grupo_456" data-name="Grupo 456" transform="translate(2.507 1.505)">
                  <path id="Trazado_556" data-name="Trazado 556" d="M270.009,150.766a1.755,1.755,0,1,1,2.481.032A1.756,1.756,0,0,1,270.009,150.766Z" transform="translate(-269.511 -147.787)" fill="#263238"/>
                </g>
                <g id="Grupo_458" data-name="Grupo 458">
                  <g id="Grupo_457" data-name="Grupo 457">
                    <path id="Trazado_557" data-name="Trazado 557" d="M274.181,148.841c-.2.2-1.33-.786-2.99-.9-1.658-.135-2.92.674-3.09.447-.084-.1.128-.465.679-.832a4.1,4.1,0,0,1,4.852.358C274.123,148.362,274.277,148.755,274.181,148.841Z" transform="translate(-268.083 -146.93)" fill="#263238"/>
                  </g>
                </g>
              </g>
              <g id="Grupo_463" data-name="Grupo 463" transform="translate(19.125 20.929)">
                <g id="Grupo_460" data-name="Grupo 460" transform="translate(2.239 1.509)">
                  <path id="Trazado_558" data-name="Trazado 558" d="M261.79,148.308a1.755,1.755,0,1,1-2.444.426A1.757,1.757,0,0,1,261.79,148.308Z" transform="translate(-259.026 -147.989)" fill="#263238"/>
                </g>
                <g id="Grupo_462" data-name="Grupo 462">
                  <g id="Grupo_461" data-name="Grupo 461">
                    <path id="Trazado_559" data-name="Trazado 559" d="M263.848,149.04c-.2.2-1.33-.786-2.99-.9-1.66-.135-2.92.674-3.09.449-.084-.1.128-.467.677-.833a4.105,4.105,0,0,1,4.854.358C263.79,148.561,263.944,148.954,263.848,149.04Z" transform="translate(-257.75 -147.13)" fill="#263238"/>
                  </g>
                </g>
              </g>
              <g id="Grupo_465" data-name="Grupo 465" transform="translate(30.919 22.454)">
                <g id="Grupo_464" data-name="Grupo 464">
                  <path id="Trazado_560" data-name="Trazado 560" d="M264.59,162.5a8.317,8.317,0,0,1,2.72-.391c.437-.021.793-.095.844-.337a2.373,2.373,0,0,0-.233-1.272c-.358-1.121-.721-2.262-1.1-3.457-1.518-4.92-2.551-8.969-2.311-9.042s1.667,3.852,3.185,8.774c.358,1.2.7,2.35,1.035,3.476a2.772,2.772,0,0,1,.128,1.813,1.124,1.124,0,0,1-.783.639,2.731,2.731,0,0,1-.744.053A8.334,8.334,0,0,1,264.59,162.5Z" transform="translate(-264.471 -147.998)" fill="#263238"/>
                </g>
              </g>
              <g id="Grupo_466" data-name="Grupo 466" transform="translate(25.251 38.251)">
                <path id="Trazado_561" data-name="Trazado 561" d="M261.518,157.206c-1.669-1.137,4.608,2.827,8,2.869a4.6,4.6,0,0,1-5.529,1.493C260.46,160.024,261.518,157.206,261.518,157.206Z" transform="translate(-261.241 -157.001)" fill="#fff"/>
              </g>
              <g id="Grupo_467" data-name="Grupo 467" transform="translate(15.317 51.952)">
                <path id="Trazado_562" data-name="Trazado 562" d="M271.025,170.247a28.082,28.082,0,0,1-15.445-5.438s3.18,8.909,15.282,8.565Z" transform="translate(-255.58 -164.809)" fill="#eb996e"/>
              </g>
            </g>
          </g>
          <g id="Grupo_470" data-name="Grupo 470" transform="translate(3.814 8.182)">
            <path id="Trazado_563" data-name="Trazado 563" d="M247.916,157.571l1.465,8.646,5.373-.1-.347-18.011s21.3,1.634,23.737-6.887c0,0,6.261,9.423,14.085,9.383,0,0,6.819-.695.328-10.179-10-14.608-45.578-2.871-45.578-2.871a24.828,24.828,0,0,0-1.292,8.282C245.544,155.091,247.916,157.571,247.916,157.571Z" transform="translate(-245.681 -133.087)" fill="#263238"/>
          </g>
          <g id="Grupo_471" data-name="Grupo 471" transform="translate(2.449)">
            <path id="Trazado_564" data-name="Trazado 564" d="M245.652,152.306l47.473-9.414s-3.38-18.976-28.985-13.462C239.205,134.8,245.652,152.306,245.652,152.306Z" transform="translate(-244.903 -128.424)" fill="#e7b200"/>
          </g>
          <g id="Grupo_472" data-name="Grupo 472" transform="translate(3.198 13.277)">
            <path id="Trazado_565" data-name="Trazado 565" d="M245.33,146.595c.663-.132,58.01,1.22,62.1-6.712,1.951-3.787-15.012-3.892-15.012-3.892l.386,1.19Z" transform="translate(-245.33 -135.991)" fill="#2bc1d3"/>
            <path id="Trazado_566" data-name="Trazado 566" d="M245.33,146.595c.663-.132,58.01,1.22,62.1-6.712,1.951-3.787-15.012-3.892-15.012-3.892l.386,1.19Z" transform="translate(-245.33 -135.991)" fill="#2bc1d3" opacity="0.75"/>
          </g>
          <g id="Grupo_476" data-name="Grupo 476" transform="translate(0 30.978)">
            <g id="Grupo_473" data-name="Grupo 473">
              <path id="Trazado_567" data-name="Trazado 567" d="M251.689,146.162c-.261-.1-8.947-1.228-8.126,9.028s10.908,6.036,10.9,5.742S251.689,146.162,251.689,146.162Z" transform="translate(-243.508 -146.078)" fill="#ffbe9d"/>
            </g>
            <g id="Grupo_475" data-name="Grupo 475" transform="translate(2.621 3.539)">
              <g id="Grupo_474" data-name="Grupo 474">
                <path id="Trazado_568" data-name="Trazado 568" d="M249.907,156.061c-.047-.03-.168.139-.46.3a1.8,1.8,0,0,1-1.334.135c-1.116-.311-2.165-1.958-2.364-3.8a5.911,5.911,0,0,1,.3-2.6,2.067,2.067,0,0,1,1.234-1.477.909.909,0,0,1,1.093.405c.161.276.112.484.168.5.03.023.205-.19.09-.607a1.147,1.147,0,0,0-.454-.611,1.363,1.363,0,0,0-1.011-.181,2.517,2.517,0,0,0-1.737,1.739,6.058,6.058,0,0,0-.391,2.909c.23,2.062,1.444,3.91,2.96,4.22a1.922,1.922,0,0,0,1.613-.4C249.907,156.31,249.944,156.077,249.907,156.061Z" transform="translate(-245.001 -148.095)" fill="#eb996e"/>
              </g>
            </g>
          </g>
          <g id="Grupo_477" data-name="Grupo 477" transform="translate(30.332 9.277)">
            <rect id="Rectángulo_85" data-name="Rectángulo 85" width="5.81" height="5.81" transform="translate(0 0.111) rotate(-1.099)" fill="#2bc1d3"/>
          </g>
          <g id="Grupo_478" data-name="Grupo 478" transform="translate(33.174 6.063)">
            <rect id="Rectángulo_86" data-name="Rectángulo 86" width="2.905" height="2.905" transform="translate(0 0.057) rotate(-1.114)" fill="#2bc1d3"/>
          </g>
        </g>
        <g id="Grupo_508" data-name="Grupo 508" transform="translate(0 75.892)">
          <path id="Trazado_569" data-name="Trazado 569" d="M397.332,176.859s-8.958,57.07-15.282,57.37c-7.216.342-29.389-31.117-29.389-31.117l0,0c-14.189-21.9-32.924-25.446-39.75-25.988l.042-2.708L279.4,171.674s.054,2.887-.023,5.406l-14.849.021s-26.614-1.218-30.6,34.525l19.132,15.122L260.9,255.93c2.392,8.907-1.255,20.278-5.261,40.259l-2.4-.567-1.016,20.132c-.14.946-.277,1.9-.412,2.874l.267,0L243.96,479.345,202.514,635.008l46.659,1.744L292.2,484.876s3.727-121.429,7.517-121.5c6.377-.123,10.45,270.12,12.885,269.514s50.368-.119,50.368-.119-15.87-314.841-15.756-314.85h0l-4.115-59.6-1.564-17.228,0,0c9.105,12.81,26.3,32.812,44.711,32.458,29.957-.577,34.163-93.437,34.163-93.437Z" transform="translate(-202.514 -171.674)" fill="#ffe781"/>
          <g id="Grupo_481" data-name="Grupo 481" transform="translate(95.468 151.123)">
            <g id="Grupo_480" data-name="Grupo 480">
              <path id="Trazado_570" data-name="Trazado 570" d="M256.929,297.167a39.166,39.166,0,0,0,2.783-5.178c1.4-3.35,2.2-8.356,2.264-13.926-.01-5.461-.018-10.4-.025-14.324a38.237,38.237,0,0,1,.226-5.943,38.254,38.254,0,0,1,.419,5.933c.112,3.673.346,8.725.291,14.354a51.083,51.083,0,0,1-.7,7.919,27.114,27.114,0,0,1-1.878,6.24,18.7,18.7,0,0,1-2.253,3.773C257.375,296.8,256.976,297.208,256.929,297.167Z" transform="translate(-256.92 -257.796)" fill="#263238"/>
            </g>
          </g>
          <g id="Grupo_483" data-name="Grupo 483" transform="translate(47.481 164.991)">
            <g id="Grupo_482" data-name="Grupo 482">
              <path id="Trazado_571" data-name="Trazado 571" d="M250.048,265.7a5.766,5.766,0,0,1,.244,1.648c.095,1.067.2,2.608.239,4.525.032,3.774-.1,9.337-2.923,14.659a16.458,16.458,0,0,1-5.573,6.2,13.353,13.353,0,0,1-6.5,2.05,10.535,10.535,0,0,1-4.524-.779,3.915,3.915,0,0,1-1.435-.872,13.453,13.453,0,0,0,5.919,1.007,13.279,13.279,0,0,0,6.086-2.113A16.184,16.184,0,0,0,246.8,286.1c2.7-5.08,2.953-10.481,3.081-14.231A57.744,57.744,0,0,1,250.048,265.7Z" transform="translate(-229.573 -265.699)" fill="#263238"/>
            </g>
          </g>
          <g id="Grupo_485" data-name="Grupo 485" transform="translate(126.411 168.021)">
            <g id="Grupo_484" data-name="Grupo 484">
              <path id="Trazado_572" data-name="Trazado 572" d="M296.208,292.344c.035.03-.29.516-1.153,1.093a7.49,7.49,0,0,1-4.2,1.093,10.436,10.436,0,0,1-6.024-2.246,23.451,23.451,0,0,1-5.278-5.787,29.972,29.972,0,0,1-4.85-13.229,26.881,26.881,0,0,1-.118-4.285,4.945,4.945,0,0,1,.233-1.556c.158.005,0,2.237.525,5.757a32.04,32.04,0,0,0,4.969,12.8,23.931,23.931,0,0,0,5.026,5.626,10.117,10.117,0,0,0,5.543,2.272,7.755,7.755,0,0,0,3.992-.756C295.747,292.677,296.154,292.286,296.208,292.344Z" transform="translate(-274.553 -267.426)" fill="#263238"/>
            </g>
          </g>
          <g id="Grupo_487" data-name="Grupo 487" transform="translate(2.632 452.952)">
            <g id="Grupo_486" data-name="Grupo 486">
              <path id="Trazado_573" data-name="Trazado 573" d="M250.175,431.595c-.009.251-10.351.083-23.1-.381s-23.075-1.042-23.064-1.3,10.348-.081,23.1.383S250.183,431.342,250.175,431.595Z" transform="translate(-204.014 -429.803)" fill="#263238"/>
            </g>
          </g>
          <g id="Grupo_489" data-name="Grupo 489" transform="translate(109.105 447.634)">
            <g id="Grupo_488" data-name="Grupo 488">
              <path id="Trazado_574" data-name="Trazado 574" d="M314.361,426.86a8.2,8.2,0,0,1-1.941.267l-5.315.39c-4.49.288-10.7.625-17.558.941s-13.075.547-17.572.674c-2.094.037-3.873.072-5.327.1a8.116,8.116,0,0,1-1.957-.086,8.217,8.217,0,0,1,1.946-.269c1.453-.105,3.229-.237,5.317-.388,4.49-.291,10.7-.626,17.553-.941s13.062-.549,17.56-.674l5.331-.1A8.156,8.156,0,0,1,314.361,426.86Z" transform="translate(-264.691 -426.772)" fill="#263238"/>
            </g>
          </g>
          <g id="Grupo_491" data-name="Grupo 491" transform="translate(27.113 194.202)">
            <g id="Grupo_490" data-name="Grupo 490">
              <path id="Trazado_575" data-name="Trazado 575" d="M263.554,282.346a3.9,3.9,0,0,1,.028.688c0,.5-.005,1.167-.009,2.016-.033,1.823-.079,4.427-.139,7.753-.146,6.731-.458,16.472-.946,28.5s-1.163,26.349-2.106,42.242c-.479,7.944-1,16.282-1.711,24.921-.372,4.313-.712,8.725-1.467,13.157-.739,4.429-1.7,8.867-2.657,13.362-8,35.888-17,67.944-24.014,90.979-3.5,11.523-6.666,20.741-8.881,27.1l-2.687,7.275c-.305.793-.544,1.416-.723,1.881a3.653,3.653,0,0,1-.277.63,4.121,4.121,0,0,1,.19-.663c.158-.472.368-1.105.639-1.911.593-1.725,1.441-4.183,2.522-7.328,2.111-6.391,5.184-15.633,8.6-27.172,6.854-23.064,15.744-55.138,23.738-90.986.956-4.485,1.916-8.921,2.653-13.315s1.093-8.774,1.471-13.085c.719-8.623,1.262-16.958,1.764-24.9.99-15.88,1.725-30.2,2.3-42.218.521-11.988.942-21.706,1.237-28.485.132-3.322.237-5.924.309-7.745.042-.849.075-1.516.1-2.013A3.678,3.678,0,0,1,263.554,282.346Z" transform="translate(-217.965 -282.346)" fill="#263238"/>
            </g>
          </g>
          <g id="Grupo_493" data-name="Grupo 493" transform="translate(126.504 202.986)">
            <g id="Grupo_492" data-name="Grupo 492">
              <path id="Trazado_576" data-name="Trazado 576" d="M285.192,533.265a3.283,3.283,0,0,1-.082-.634c-.037-.463-.086-1.079-.147-1.858-.114-1.692-.275-4.092-.484-7.156-.37-6.275-.9-15.256-1.558-26.332-1.249-22.238-2.808-52.967-4.248-86.918s-2.5-64.717-3.183-86.98c-.305-11.09-.553-20.085-.725-26.363-.061-3.071-.111-5.477-.144-7.17-.005-.783-.011-1.4-.014-1.867a3.252,3.252,0,0,1,.026-.635,3.2,3.2,0,0,1,.067.632c.026.467.061,1.084.105,1.864.074,1.693.181,4.1.314,7.165.242,6.277.59,15.266,1.016,26.353.884,22.3,2.1,53.022,3.452,86.964,1.439,33.947,2.9,64.68,3.978,86.923.535,11.083.969,20.069,1.27,26.344.133,3.069.239,5.473.311,7.166.025.781.044,1.4.058,1.864A3.291,3.291,0,0,1,285.192,533.265Z" transform="translate(-274.606 -287.352)" fill="#263238"/>
            </g>
          </g>
          <g id="Grupo_495" data-name="Grupo 495" transform="translate(76.416 1.771)">
            <g id="Grupo_494" data-name="Grupo 494">
              <path id="Trazado_577" data-name="Trazado 577" d="M268.207,172.683a27.774,27.774,0,0,1,.044,4.72,68.043,68.043,0,0,1-1.148,11.741l-.119.577-.526-.277c-1.114-.588-2.265-1.207-3.42-1.883-4.878-2.844-9.019-5.81-12.076-7.849a55.3,55.3,0,0,1-4.9-3.392,29.635,29.635,0,0,1,5.248,2.848c3.157,1.907,7.354,4.785,12.185,7.6,1.142.67,2.278,1.29,3.376,1.879l-.646.3a89.7,89.7,0,0,0,1.439-11.576A26.753,26.753,0,0,1,268.207,172.683Z" transform="translate(-246.062 -172.683)" fill="#263238"/>
            </g>
          </g>
          <g id="Grupo_497" data-name="Grupo 497" transform="translate(99.034 2.294)">
            <g id="Grupo_496" data-name="Grupo 496">
              <path id="Trazado_578" data-name="Trazado 578" d="M270.411,176.36a31.092,31.092,0,0,1-.958,4.375c-.325,1.342-.674,2.955-1.251,4.722a24.856,24.856,0,0,1-1.076,2.711,1.806,1.806,0,0,1-.628.77,1,1,0,0,1-1.256-.147,5.873,5.873,0,0,1-.783-1.541c-1.634-3.892-3.066-7.435-4.059-10.016a21.947,21.947,0,0,1-1.434-4.252,22,22,0,0,1,2.03,4c1.146,2.516,2.671,6.021,4.3,9.913a7.107,7.107,0,0,0,.583,1.251c.084.065.047.054.135.023a.982.982,0,0,0,.3-.391,26.794,26.794,0,0,0,1.084-2.6c.6-1.7,1.02-3.29,1.425-4.615A16.964,16.964,0,0,1,270.411,176.36Z" transform="translate(-258.951 -172.981)" fill="#263238"/>
            </g>
          </g>
          <g id="Grupo_499" data-name="Grupo 499" transform="translate(98.999 1.813)">
            <g id="Grupo_498" data-name="Grupo 498">
              <path id="Trazado_579" data-name="Trazado 579" d="M264.123,296.468a6.441,6.441,0,0,1-.144-1.255c-.061-.912-.139-2.109-.237-3.6-.168-3.234-.407-7.737-.7-13.255-.5-11.288-1.193-26.709-1.955-43.748-.656-17.046-1.251-32.473-1.686-43.764-.17-5.524-.309-10.03-.407-13.266-.026-1.5-.049-2.694-.065-3.609a6.612,6.612,0,0,1,.04-1.262,6.7,6.7,0,0,1,.144,1.255c.06.912.139,2.109.235,3.6.17,3.234.407,7.737.7,13.255.505,11.288,1.2,26.713,1.957,43.755.656,17.042,1.251,32.468,1.686,43.758.17,5.524.307,10.032.407,13.268.026,1.5.047,2.694.065,3.61A6.583,6.583,0,0,1,264.123,296.468Z" transform="translate(-258.932 -172.707)" fill="#263238"/>
            </g>
          </g>
          <g id="Grupo_500" data-name="Grupo 500" transform="translate(109.432 38.136)">
            <rect id="Rectángulo_87" data-name="Rectángulo 87" width="16.12" height="3.328" transform="translate(0 0.311) rotate(-1.106)" fill="#fff"/>
          </g>
          <g id="Grupo_502" data-name="Grupo 502" transform="translate(137.192 38.05)">
            <g id="Grupo_501" data-name="Grupo 501">
              <path id="Trazado_580" data-name="Trazado 580" d="M284.4,247.89c-.253.018-1.272-12.178-2.279-27.234s-1.62-27.281-1.369-27.3,1.274,12.174,2.279,27.237S284.652,247.873,284.4,247.89Z" transform="translate(-280.697 -193.358)" fill="#263238"/>
            </g>
          </g>
          <g id="Grupo_504" data-name="Grupo 504" transform="translate(193.424 14.502)">
            <g id="Grupo_503" data-name="Grupo 503">
              <path id="Trazado_581" data-name="Trazado 581" d="M336.736,185.467c-.056.246-5.473-.783-12.1-2.3s-11.952-2.944-11.9-3.192,5.473.784,12.1,2.3S336.792,185.221,336.736,185.467Z" transform="translate(-312.743 -179.938)" fill="#263238"/>
            </g>
          </g>
          <g id="Grupo_505" data-name="Grupo 505" transform="translate(196.706 9.244)">
            <path id="Trazado_582" data-name="Trazado 582" d="M316.222,176.942a1.641,1.641,0,1,1-1.609,1.672A1.642,1.642,0,0,1,316.222,176.942Z" transform="translate(-314.613 -176.942)" fill="#263238"/>
          </g>
          <g id="Grupo_506" data-name="Grupo 506" transform="translate(119.597 30.684)">
            <rect id="Rectángulo_88" data-name="Rectángulo 88" width="5.81" height="5.81" transform="matrix(1, -0.019, 0.019, 1, 0, 0.111)" fill="#2bc1d3"/>
          </g>
          <g id="Grupo_507" data-name="Grupo 507" transform="translate(122.439 27.47)">
            <rect id="Rectángulo_89" data-name="Rectángulo 89" width="2.905" height="2.905" transform="translate(0 0.056) rotate(-1.114)" fill="#2bc1d3"/>
          </g>
        </g>
        <g id="Grupo_521" data-name="Grupo 521" transform="translate(62.928 134.33)">
          <g id="Grupo_510" data-name="Grupo 510" transform="translate(0.002)">
            <g id="Grupo_509" data-name="Grupo 509">
              <path id="Trazado_583" data-name="Trazado 583" d="M387.793,206.99l-2.375,93.7-147.041-.745.481-94.963Z" transform="translate(-238.377 -204.977)" fill="#2bc1d3"/>
            </g>
          </g>
          <g id="Grupo_512" data-name="Grupo 512" transform="translate(62.007 1.748)">
            <g id="Grupo_511" data-name="Grupo 511">
              <path id="Trazado_584" data-name="Trazado 584" d="M273.8,299.384c-.253-.007.074-20.924.726-46.715s1.388-46.7,1.641-46.7-.074,20.92-.726,46.719S274.05,299.389,273.8,299.384Z" transform="translate(-273.712 -205.973)" fill="#263238"/>
            </g>
          </g>
          <g id="Grupo_514" data-name="Grupo 514" transform="translate(0 1.865)">
            <g id="Grupo_513" data-name="Grupo 513">
              <path id="Trazado_585" data-name="Trazado 585" d="M238.378,299.137a5.518,5.518,0,0,1,.584-.993c.47-.707,1.074-1.618,1.823-2.748,1.686-2.451,4.017-5.842,6.866-9.99l22.915-32.774c8.96-12.794,17.032-24.4,22.8-32.854,2.883-4.225,5.178-7.67,6.761-10.053.742-1.132,1.341-2.046,1.8-2.755a5.466,5.466,0,0,1,.681-.93,5.406,5.406,0,0,1-.523,1.025c-.428.734-.979,1.679-1.66,2.851-1.5,2.443-3.71,5.947-6.526,10.221-5.633,8.551-13.624,20.222-22.587,33.019s-17.165,24.309-23.135,32.621c-2.95,4.08-5.359,7.414-7.1,9.825-.805,1.088-1.458,1.965-1.964,2.646A5.291,5.291,0,0,1,238.378,299.137Z" transform="translate(-238.376 -206.04)" fill="#263238"/>
            </g>
          </g>
          <g id="Grupo_516" data-name="Grupo 516" transform="translate(0.928 1.104)">
            <g id="Grupo_515" data-name="Grupo 515">
              <path id="Trazado_586" data-name="Trazado 586" d="M298.611,300.41c-.214.137-13.754-20.98-30.238-47.156s-29.678-47.513-29.466-47.649,13.75,20.976,30.24,47.161S298.823,300.277,298.611,300.41Z" transform="translate(-238.905 -205.606)" fill="#263238"/>
            </g>
          </g>
          <g id="Grupo_517" data-name="Grupo 517" transform="translate(77.331 79.825)">
            <rect id="Rectángulo_90" data-name="Rectángulo 90" width="23.609" height="4.836" transform="translate(23.602 5.432) rotate(-178.549)" fill="#525452"/>
          </g>
          <g id="Grupo_519" data-name="Grupo 519" transform="translate(78.619 75.474)">
            <g id="Grupo_518" data-name="Grupo 518">
              <path id="Trazado_587" data-name="Trazado 587" d="M283.179,248.427c0-.254,5.171-.449,11.55-.439s11.552.223,11.552.474-5.173.449-11.553.439S283.177,248.678,283.179,248.427Z" transform="translate(-283.179 -247.988)" fill="#263238"/>
            </g>
          </g>
          <g id="Grupo_520" data-name="Grupo 520" transform="translate(107.071 0.963)">
            <path id="Trazado_588" data-name="Trazado 588" d="M312.01,205.823l-.917,36.167-5.061-4.084-6.639,3.787.917-36.168Z" transform="translate(-299.394 -205.525)" fill="#525452"/>
          </g>
        </g>
        <g id="Grupo_535" data-name="Grupo 535" transform="translate(23.268 91.087)">
          <g id="Grupo_526" data-name="Grupo 526" transform="translate(0.374 27.067)">
            <g id="Grupo_525" data-name="Grupo 525">
              <g id="Grupo_524" data-name="Grupo 524">
                <g id="Grupo_523" data-name="Grupo 523">
                  <g id="Grupo_522" data-name="Grupo 522">
                    <path id="Trazado_589" data-name="Trazado 589" d="M252.793,203.642s-7.135,49.735-3.762,52.569c18.674,15.7,44.62,23.94,53.91,26.53,1.348-.325,2.939-.751,4.761-1.328a14.5,14.5,0,0,0,4.369-2.274,22.218,22.218,0,0,0,4.5-4.183c1.039-1.581,3.459-1.077,3.546.639s-2.667,6.143-7.833,9.369c0,0,11.9,19.141,15.689,20.862s14.64,6.614,12.811,7.554-15.052-2.909-15.052-2.909l-26.779-7.159s-88.58-13.887-82.679-54.522c3.617-24.907,7.561-47.356,8.993-53.03Z" transform="translate(-215.987 -195.758)" fill="#ffbe9d"/>
                  </g>
                </g>
              </g>
            </g>
          </g>
          <g id="Grupo_527" data-name="Grupo 527" transform="translate(0 24.758)">
            <path id="Trazado_590" data-name="Trazado 590" d="M223.918,194.442,215.972,248.7c-1.839,16.711,9.351,29.975,24.416,37.439,22.922,11.355,56.949,19.455,56.663,19.4-.463-.084,2.3-24.216,2.3-24.216s-47.7-20.666-49.2-29.541,6.064-46,6.064-46Z" transform="translate(-215.774 -194.442)" fill="#ffe781"/>
          </g>
          <g id="Grupo_529" data-name="Grupo 529" transform="translate(33.357)">
            <g id="Grupo_528" data-name="Grupo 528">
              <path id="Trazado_591" data-name="Trazado 591" d="M282.7,316.188a1.594,1.594,0,0,1-.005-.432c.021-.335.044-.747.074-1.253q.137-1.766.372-4.826c.372-4.262.9-10.3,1.541-17.735l.184.321L260.879,280.64l-6.938-3.381c-2.332-1.235-4.669-2.59-6.977-4.083a69.122,69.122,0,0,1-6.765-4.961c-1.091-.916-2.158-1.876-3.188-2.89a5.712,5.712,0,0,1-1.392-1.828,4.8,4.8,0,0,1-.388-1.088,6.9,6.9,0,0,1-.239-1.107c-.779-5.931.812-11.538,1.634-16.87.926-5.364,1.821-10.541,2.674-15.473,1.721-9.841,3.273-18.711,4.58-26.19a55.04,55.04,0,0,0,1.207-10.076,17.426,17.426,0,0,0-1.546-7.4,12.268,12.268,0,0,0-2.8-3.881c-.821-.741-1.332-1.037-1.306-1.077a6.679,6.679,0,0,1,1.427.939,11.821,11.821,0,0,1,3,3.864,17.544,17.544,0,0,1,1.735,7.547,54.369,54.369,0,0,1-1.079,10.193c-1.255,7.493-2.741,16.377-4.39,26.235-.837,4.94-1.714,10.12-2.623,15.489q-.347,2.016-.7,4.068c-.279,1.342-.507,2.713-.7,4.1a30.954,30.954,0,0,0-.212,8.388,6,6,0,0,0,.218,1.012,3.937,3.937,0,0,0,.335.944,4.754,4.754,0,0,0,1.2,1.567c1.011.995,2.058,1.939,3.13,2.843a69.234,69.234,0,0,0,6.67,4.906c2.279,1.483,4.59,2.83,6.9,4.064q3.532,1.74,6.914,3.4c8.984,4.436,17.072,8.43,23.877,11.788l.207.1-.025.219c-.765,7.424-1.388,13.452-1.828,17.711q-.342,3.043-.542,4.806c-.065.5-.119.912-.163,1.248A1.5,1.5,0,0,1,282.7,316.188Z" transform="translate(-234.784 -180.333)" fill="#263238"/>
            </g>
          </g>
          <g id="Grupo_531" data-name="Grupo 531" transform="translate(72.006 108.319)">
            <g id="Grupo_530" data-name="Grupo 530">
              <path id="Trazado_592" data-name="Trazado 592" d="M261.659,242.062a14.85,14.85,0,0,1-.283,3.7c-.295,2.269-.767,5.4-1.413,8.83s-1.353,6.519-1.946,8.732a14,14,0,0,1-1.177,3.525c-.246-.063.96-5.578,2.225-12.427S261.394,242.018,261.659,242.062Z" transform="translate(-256.809 -242.062)" fill="#263238"/>
            </g>
          </g>
          <g id="Grupo_533" data-name="Grupo 533" transform="translate(6.448 102.196)">
            <g id="Grupo_532" data-name="Grupo 532">
              <path id="Trazado_593" data-name="Trazado 593" d="M294.277,272.231a2.985,2.985,0,0,1-.837-.139l-2.357-.567-8.628-2.251c-7.263-1.969-17.362-4.533-28.18-8.507a116.5,116.5,0,0,1-14.835-6.6,82.255,82.255,0,0,1-11.155-7.179,61.476,61.476,0,0,1-6.686-5.936c-.737-.756-1.281-1.367-1.635-1.8a3.019,3.019,0,0,1-.514-.676,32.285,32.285,0,0,1,2.4,2.22,75.508,75.508,0,0,0,6.826,5.673,88.369,88.369,0,0,0,11.162,6.952,123.684,123.684,0,0,0,14.757,6.491c10.751,3.952,20.818,6.614,28.032,8.739l8.547,2.534c.919.291,1.683.533,2.313.732A3.032,3.032,0,0,1,294.277,272.231Z" transform="translate(-219.449 -238.573)" fill="#263238"/>
            </g>
          </g>
          <g id="Grupo_534" data-name="Grupo 534" transform="translate(78.798 112.622)">
            <path id="Trazado_594" data-name="Trazado 594" d="M263.753,246.021a1.537,1.537,0,1,1-1.565-1.507A1.536,1.536,0,0,1,263.753,246.021Z" transform="translate(-260.68 -244.514)" fill="#263238"/>
          </g>
        </g>
      </g>
    </g>
    <g id="Character_2" data-name="Character 2" transform="translate(557.908 85.77)">
      <g id="Grupo_642" data-name="Grupo 642" transform="translate(0 0)">
        <g id="Grupo_547" data-name="Grupo 547" transform="translate(21.349)">
          <g id="Grupo_546" data-name="Grupo 546">
            <rect id="Rectángulo_91" data-name="Rectángulo 91" width="193.662" height="598.185" transform="translate(22.605 57.297)" fill="#e0e0e0"/>
            <g id="Grupo_544" data-name="Grupo 544" transform="translate(0 36.137)">
              <g id="Grupo_537" data-name="Grupo 537" transform="translate(149.676 25.74)">
                <path id="Trazado_595" data-name="Trazado 595" d="M460.131,102.725V669.573l92.647,26.756.3-593.6H460.131" transform="translate(-460.131 -102.725)" fill="#455a64"/>
              </g>
              <g id="Grupo_538" data-name="Grupo 538" transform="translate(152.821 292.679)">
                <path id="Trazado_597" data-name="Trazado 597" d="M470.2,262.716c.182,4.436-1.521,8.11-3.8,8.2s-4.28-3.429-4.461-7.865,1.521-8.11,3.8-8.2S470.019,258.277,470.2,262.716Z" transform="translate(-461.924 -254.848)" fill="#fff"/>
              </g>
              <g id="Grupo_539" data-name="Grupo 539" transform="translate(156.824 297.238)">
                <path id="Trazado_598" data-name="Trazado 598" d="M464.205,257.446l18.241,2.443a2.025,2.025,0,0,1,1.755,1.925h0a2.026,2.026,0,0,1-2.364,2.079l-17.49-2.971Z" transform="translate(-464.205 -257.446)" fill="#fff"/>
              </g>
              <g id="Grupo_543" data-name="Grupo 543">
                <g id="Grupo_540" data-name="Grupo 540">
                  <path id="Trazado_599" data-name="Trazado 599" d="M374.834,88.056V707.4h30.4V113.8H583.7V707.4h33.458V88.056Z" transform="translate(-374.834 -88.056)" fill="#263238"/>
                </g>
                <g id="Grupo_541" data-name="Grupo 541" transform="translate(15.201 25.74)">
                  <rect id="Rectángulo_92" data-name="Rectángulo 92" width="15.202" height="593.604" fill="#263238"/>
                  <rect id="Rectángulo_93" data-name="Rectángulo 93" width="15.202" height="593.604" opacity="0.5"/>
                </g>
                <g id="Grupo_542" data-name="Grupo 542" transform="translate(227.427)">
                  <rect id="Rectángulo_94" data-name="Rectángulo 94" width="15.2" height="619.345" fill="#263238"/>
                  <rect id="Rectángulo_95" data-name="Rectángulo 95" width="15.2" height="619.345" opacity="0.5"/>
                </g>
              </g>
            </g>
            <g id="Grupo_545" data-name="Grupo 545" transform="translate(92.057)">
              <rect id="Rectángulo_96" data-name="Rectángulo 96" width="49.94" height="11.151" fill="#455a64"/>
            </g>
          </g>
        </g>
        <g id="Grupo_641" data-name="Grupo 641" transform="translate(0 118.036)">
          <g id="Grupo_640" data-name="Grupo 640">
            <g id="Grupo_548" data-name="Grupo 548" transform="translate(83.947 36.97)">
              <path id="Trazado_601" data-name="Trazado 601" d="M470.691,155.8a25.267,25.267,0,0,0,19.141,23.129c5.424,1.325,11.667.7,15.965,4.347,7.37,6.25,3.059,19.206,8.031,27.592,3.057,5.154,9.126,7.682,12.566,12.576,5.713,8.135,1.879,20.429-5.919,26.486s-18.181,7.217-27.953,6.965c-21.494-.556-43.507-7.388-59.046-22.624-7.3-7.156-30.959-34.363-20.216-73.593" transform="translate(-410.507 -155.797)" fill="#263238"/>
            </g>
            <g id="Grupo_549" data-name="Grupo 549" transform="translate(0 27.545)">
              <path id="Trazado_602" data-name="Trazado 602" d="M429.179,217.546s-37.608,32.705-38.582,28.718c-5.282-21.648-3.794-49.27-2.943-59.851.59-.911,1.265-1.911,2.067-3.015a14.2,14.2,0,0,1,3.364-3.283,21.8,21.8,0,0,1,5.113-2.867c1.732-.49,2.015-2.8.5-3.357s-6.315.681-10.774,4.413-2.644-5.126-2.041-8.365,2-13.336,1.146-14.284c-1.249-1.39-3.015-.281-3.541,2.966-.533,3.287-2.8,12.89-4.5,12.534-1.674-.351,1.621-16.8,1.621-16.8s1.277-3.418-.674-3.9c-3.518-.86-5.729,16.853-5.9,18.542-.118,1.177-1.981.856-1.788-.4.2-1.295,3.673-16.346.1-17.256-2.741-.7-1.957,14.559-4.415,17.326s.591-11.66-2.057-12.22c-.986-.207-1.755-.226-2.307,8.279-.3,4.571.2,13.282.746,20.532-2.341,23.35-6.9,94.85,25.391,92.388,38.112-2.908,46.889-32.954,46.889-32.954Z" transform="translate(-362.668 -150.426)" fill="#b78876"/>
            </g>
            <g id="Grupo_564" data-name="Grupo 564" transform="translate(82.964)">
              <g id="Grupo_550" data-name="Grupo 550" transform="translate(1.321 7.654)">
                <path id="Trazado_603" data-name="Trazado 603" d="M422.957,215.467c.555-3-.416-15.679-.416-15.679S411.3,198.371,410.82,186.9s.656-37.878.656-37.878l20.682-9.934,22.252,17.927-3.86,58.267Z" transform="translate(-410.7 -139.09)" fill="#b78876"/>
              </g>
              <g id="Grupo_554" data-name="Grupo 554" transform="translate(2.625 33.535)">
                <g id="Grupo_551" data-name="Grupo 551" transform="translate(1.377 1.907)">
                  <path id="Trazado_604" data-name="Trazado 604" d="M412.228,156.369a1.43,1.43,0,1,0,1.455-1.442A1.449,1.449,0,0,0,412.228,156.369Z" transform="translate(-412.228 -154.926)" fill="#263238"/>
                </g>
                <g id="Grupo_553" data-name="Grupo 553">
                  <g id="Grupo_552" data-name="Grupo 552">
                    <path id="Trazado_605" data-name="Trazado 605" d="M411.467,155.566c.179.193,1.249-.711,2.79-.767,1.537-.082,2.683.721,2.844.512.082-.093-.1-.446-.6-.811a3.717,3.717,0,0,0-4.5.2C411.532,155.111,411.378,155.48,411.467,155.566Z" transform="translate(-411.443 -153.839)" fill="#263238"/>
                  </g>
                </g>
              </g>
              <g id="Grupo_558" data-name="Grupo 558" transform="translate(19.677 33.831)">
                <g id="Grupo_555" data-name="Grupo 555" transform="translate(0.885 1.897)">
                  <path id="Trazado_606" data-name="Trazado 606" d="M421.665,156.531a1.428,1.428,0,1,0,1.455-1.442A1.446,1.446,0,0,0,421.665,156.531Z" transform="translate(-421.665 -155.089)" fill="#263238"/>
                </g>
                <g id="Grupo_557" data-name="Grupo 557">
                  <g id="Grupo_556" data-name="Grupo 556">
                    <path id="Trazado_607" data-name="Trazado 607" d="M421.184,155.735c.181.193,1.253-.711,2.792-.769,1.537-.081,2.681.721,2.846.512.079-.093-.1-.446-.605-.809a3.715,3.715,0,0,0-4.5.2C421.251,155.28,421.1,155.649,421.184,155.735Z" transform="translate(-421.161 -154.008)" fill="#263238"/>
                  </g>
                </g>
              </g>
              <g id="Grupo_560" data-name="Grupo 560" transform="translate(9.976 35.027)">
                <g id="Grupo_559" data-name="Grupo 559">
                  <path id="Trazado_608" data-name="Trazado 608" d="M419.574,168.458a9.4,9.4,0,0,0-2.507-.383c-.395-.028-.769-.1-.839-.381a2.292,2.292,0,0,1,.242-1.258q.532-1.553,1.114-3.253c1.542-4.631,2.653-8.432,2.479-8.493s-1.565,3.643-3.109,8.274q-.555,1.711-1.062,3.269a2.61,2.61,0,0,0-.179,1.662.98.98,0,0,0,.656.59,2.519,2.519,0,0,0,.669.072A9.478,9.478,0,0,0,419.574,168.458Z" transform="translate(-415.633 -154.69)" fill="#263238"/>
                </g>
              </g>
              <g id="Grupo_561" data-name="Grupo 561" transform="translate(11.492 50.191)">
                <path id="Trazado_609" data-name="Trazado 609" d="M423.978,163.519c1.576-1.034-4.343,2.553-7.482,2.5a4.206,4.206,0,0,0,5.073,1.574C424.879,166.223,423.978,163.519,423.978,163.519Z" transform="translate(-416.496 -163.331)" fill="#fff"/>
              </g>
              <g id="Grupo_562" data-name="Grupo 562" transform="translate(13.162 63.481)">
                <path id="Trazado_610" data-name="Trazado 610" d="M417.448,175.776a27.378,27.378,0,0,0,14.879-4.871s-3.5,8.354-14.685,7.686Z" transform="translate(-417.448 -170.905)" fill="#a36957"/>
              </g>
              <g id="Grupo_563" data-name="Grupo 563">
                <path id="Trazado_611" data-name="Trazado 611" d="M471.114,171.885c-.1-.814-.214-2.043-.337-3.32v-.005h0a44.28,44.28,0,0,0-.611-4.657c-5.677-24-26.062-28.81-30.108-28.88-4.341-.074-11.894-2.657-23.168,8.958s-5.429,24.414-5.429,24.414l1.886-1.727,16.409-4.043c-1.216-4.543.783-10.121,1.906-12.718l.107-.1c2.959,17.207,21.338,19.309,21.338,19.309L451.37,214.76c18.093-3.639,19.522-32.988,19.485-42.916Z" transform="translate(-409.947 -134.728)" fill="#263238"/>
              </g>
            </g>
            <g id="Grupo_565" data-name="Grupo 565" transform="translate(96.805 406.967)">
              <path id="Trazado_612" data-name="Trazado 612" d="M417.835,366.651" transform="translate(-417.835 -366.651)" fill="none" stroke="#a36957" stroke-miterlimit="10" stroke-width="0.05"/>
            </g>
            <g id="Grupo_570" data-name="Grupo 570" transform="translate(62.83 241.229)">
              <g id="Grupo_566" data-name="Grupo 566">
                <path id="Trazado_613" data-name="Trazado 613" d="M448.858,272.849c.025-.223.049-.455.063-.59C448.911,272.363,448.89,272.549,448.858,272.849Z" transform="translate(-360.445 -272.156)" fill="#b78876"/>
                <path id="Trazado_614" data-name="Trazado 614" d="M448.825,273.13c.021-.212.04-.384.058-.535C448.851,272.872,448.825,273.13,448.825,273.13Z" transform="translate(-360.47 -271.902)" fill="#b78876"/>
                <path id="Trazado_615" data-name="Trazado 615" d="M508.259,550.556S465.9,407.763,465.094,403.2c-.732-4.127,18.89-104.308,21.734-130.3l-59.563.565s-.007.16-.016.433l-28.776.795,14.4,285.328,31.529.816-.475-93.785c15.624,45.8,35.376,97.533,35.376,97.533Z" transform="translate(-398.473 -271.672)" fill="#b78876"/>
                <path id="Trazado_616" data-name="Trazado 616" d="M448.9,272.235c.005-.044.005-.049,0,0Z" transform="translate(-360.414 -272.2)" fill="#b78876"/>
                <path id="Trazado_617" data-name="Trazado 617" d="M448.894,272.288l.009-.068C448.9,272.239,448.9,272.26,448.894,272.288Z" transform="translate(-360.418 -272.185)" fill="#b78876"/>
              </g>
              <g id="Grupo_568" data-name="Grupo 568" transform="translate(25.736 125.098)">
                <g id="Grupo_567" data-name="Grupo 567">
                  <path id="Trazado_618" data-name="Trazado 618" d="M413.923,343.491c.088.014-.081,1.112-.181,3.115a61.4,61.4,0,0,0,.153,8.469A77.6,77.6,0,0,0,416,367.449c1.093,4.6,3.094,9.411,5.05,14.549,3.922,10.249,7.424,19.546,9.918,26.292,1.19,3.274,2.171,5.975,2.908,8.005a19.924,19.924,0,0,1,.949,2.978,20.587,20.587,0,0,1-1.281-2.852c-.807-2-1.879-4.671-3.178-7.9-2.648-6.686-6.247-15.945-10.169-26.2-.976-2.565-1.925-5.069-2.846-7.491a69.409,69.409,0,0,1-2.169-7.18,72.941,72.941,0,0,1-1.934-12.529,51.336,51.336,0,0,1,.137-8.547c.1-1,.232-1.776.337-2.3A2.769,2.769,0,0,1,413.923,343.491Z" transform="translate(-413.139 -343.491)" fill="#a36957"/>
                </g>
              </g>
              <g id="Grupo_569" data-name="Grupo 569" transform="translate(35.531 169.793)">
                <path id="Trazado_619" data-name="Trazado 619" d="M428.816,428.594c.049-.867.553-31.8.553-31.8s-10.379-28.681-10.643-27.808S428.816,428.594,428.816,428.594Z" transform="translate(-418.721 -368.962)" fill="#a36957"/>
              </g>
            </g>
            <g id="Grupo_594" data-name="Grupo 594" transform="translate(129.764 520.097)">
              <g id="Grupo_573" data-name="Grupo 573" transform="translate(0.116 0.016)">
                <g id="Grupo_572" data-name="Grupo 572">
                  <g id="Grupo_571" data-name="Grupo 571">
                    <path id="Trazado_620" data-name="Trazado 620" d="M451.554,444.634h0l27.866-13.5,3.222,5.987-9.849,5.563c-6.719,3.669-29.571,15.623-34.969,16.595C431.808,460.365,451.554,444.634,451.554,444.634Z" transform="translate(-436.683 -431.131)" fill="#2bc1d3"/>
                  </g>
                </g>
              </g>
              <g id="Grupo_577" data-name="Grupo 577" transform="translate(0 5.633)">
                <g id="Grupo_576" data-name="Grupo 576">
                  <g id="Grupo_575" data-name="Grupo 575">
                    <g id="Grupo_574" data-name="Grupo 574">
                      <path id="Trazado_621" data-name="Trazado 621" d="M436.619,456.047c-.13-.211,10.046-5.245,22.72-11.237s23.059-10.683,23.186-10.471S472.48,439.58,459.8,445.576,436.745,456.259,436.619,456.047Z" transform="translate(-436.617 -434.332)" fill="#263238"/>
                    </g>
                  </g>
                </g>
              </g>
              <g id="Grupo_581" data-name="Grupo 581" transform="translate(38.663 1.918)">
                <g id="Grupo_580" data-name="Grupo 580">
                  <g id="Grupo_579" data-name="Grupo 579">
                    <g id="Grupo_578" data-name="Grupo 578">
                      <path id="Trazado_622" data-name="Trazado 622" d="M458.8,439.51c-.132-.016-.188-.533-.128-1.37a8.111,8.111,0,0,1,.893-3.22,5.447,5.447,0,0,1,2.65-2.432c.921-.37,1.567-.288,1.574-.186.025.132-.528.274-1.234.718a6.3,6.3,0,0,0-2.111,2.281,14.909,14.909,0,0,0-1.091,2.941C459.127,439.032,458.937,439.527,458.8,439.51Z" transform="translate(-458.65 -432.215)" fill="#263238"/>
                    </g>
                  </g>
                </g>
              </g>
              <g id="Grupo_583" data-name="Grupo 583" transform="translate(13.475 14.601)">
                <g id="Grupo_582" data-name="Grupo 582">
                  <path id="Trazado_623" data-name="Trazado 623" d="M444.3,439.641c-.042.256.867.59,1.969.951s2.043.623,2.193.4-.626-.876-1.839-1.269S444.338,439.394,444.3,439.641Z" transform="translate(-444.296 -439.443)" fill="#263238"/>
                </g>
              </g>
              <g id="Grupo_585" data-name="Grupo 585" transform="translate(11.564 16.168)">
                <g id="Grupo_584" data-name="Grupo 584">
                  <path id="Trazado_624" data-name="Trazado 624" d="M443.212,440.475c-.072.246.742.725,1.818,1.065s2.044.428,2.162.2-.693-.709-1.816-1.065S443.282,440.229,443.212,440.475Z" transform="translate(-443.207 -440.336)" fill="#263238"/>
                </g>
              </g>
              <g id="Grupo_587" data-name="Grupo 587" transform="translate(9.983 17.55)">
                <g id="Grupo_586" data-name="Grupo 586">
                  <path id="Trazado_625" data-name="Trazado 625" d="M442.32,441.251c-.111.237.479.679,1.263,1.083s1.513.63,1.688.425-.325-.79-1.172-1.223S442.427,441.018,442.32,441.251Z" transform="translate(-442.306 -441.123)" fill="#263238"/>
                </g>
              </g>
              <g id="Grupo_589" data-name="Grupo 589" transform="translate(6.916 6.959)">
                <g id="Grupo_588" data-name="Grupo 588">
                  <path id="Trazado_626" data-name="Trazado 626" d="M447.25,443.162c.119-.016.16-1.132-.295-2.92a8.476,8.476,0,0,0-1.453-2.987A6.97,6.97,0,0,0,444,435.8a4.226,4.226,0,0,0-1.069-.581,2.088,2.088,0,0,0-1.523.025,1.588,1.588,0,0,0-.523,2.383,10.85,10.85,0,0,0,1.3,1.565,19.151,19.151,0,0,0,2.588,2.223,8.458,8.458,0,0,0,2.781,1.57c.093-.109-.863-.826-2.293-2.057a25.915,25.915,0,0,1-2.339-2.276,11.48,11.48,0,0,1-1.135-1.444c-.307-.458-.223-1.012.1-1.142.363-.179.96.061,1.493.444a6.687,6.687,0,0,1,1.351,1.235,9.3,9.3,0,0,1,1.525,2.674C446.864,442.083,447.089,443.188,447.25,443.162Z" transform="translate(-440.559 -435.088)" fill="#263238"/>
                </g>
              </g>
              <g id="Grupo_591" data-name="Grupo 591" transform="translate(2.862 11.531)">
                <g id="Grupo_590" data-name="Grupo 590">
                  <path id="Trazado_627" data-name="Trazado 627" d="M449,440.655c.068-.093-.9-.848-2.755-1.7a14.991,14.991,0,0,0-3.473-1.083,11.366,11.366,0,0,0-2.206-.182,5.193,5.193,0,0,0-1.242.147,1.831,1.831,0,0,0-.7.339.98.98,0,0,0-.368.823,2.844,2.844,0,0,0,1.679,1.856,7.224,7.224,0,0,0,2.139.679,16.973,16.973,0,0,0,3.678.121c2.118-.137,3.267-.862,3.174-.962a26.032,26.032,0,0,1-3.21.309,20.379,20.379,0,0,1-3.452-.3,6.6,6.6,0,0,1-1.814-.625c-.537-.27-1.127-.8-1.158-1.132-.158-.109.64-.379,1.309-.353a11.331,11.331,0,0,1,2,.116,17.671,17.671,0,0,1,3.341.84A20.865,20.865,0,0,0,449,440.655Z" transform="translate(-438.248 -437.693)" fill="#263238"/>
                </g>
              </g>
              <g id="Grupo_593" data-name="Grupo 593" transform="translate(15.525)">
                <g id="Grupo_592" data-name="Grupo 592">
                  <path id="Trazado_628" data-name="Trazado 628" d="M445.469,444.35c.17.263,6.636-2.216,14.164-5.91s13.334-7.056,13.143-7.3c-.205-.263-6.328,2.688-13.836,6.361S445.295,444.078,445.469,444.35Z" transform="translate(-445.465 -431.122)" fill="#263238"/>
                </g>
              </g>
            </g>
            <g id="Grupo_618" data-name="Grupo 618" transform="translate(59.017 520.416)">
              <g id="Grupo_597" data-name="Grupo 597" transform="translate(0 8.805)">
                <g id="Grupo_596" data-name="Grupo 596">
                  <g id="Grupo_595" data-name="Grupo 595">
                    <path id="Trazado_629" data-name="Trazado 629" d="M418.077,436.321h0l27.948.2-.462,8.105-1.825.011c-8.116-.023-41.261-.605-46.582-2.3C391.222,440.453,418.077,436.321,418.077,436.321Z" transform="translate(-396.3 -436.321)" fill="#2bc1d3"/>
                  </g>
                </g>
              </g>
              <g id="Grupo_601" data-name="Grupo 601" transform="translate(0.247 13.48)">
                <g id="Grupo_600" data-name="Grupo 600">
                  <g id="Grupo_599" data-name="Grupo 599">
                    <g id="Grupo_598" data-name="Grupo 598">
                      <path id="Trazado_630" data-name="Trazado 630" d="M396.441,439.053c.018-.24,11,.181,24.517.942s24.472,1.572,24.454,1.811-10.99-.182-24.517-.944S396.423,439.292,396.441,439.053Z" transform="translate(-396.441 -438.985)" fill="#263238"/>
                    </g>
                  </g>
                </g>
              </g>
              <g id="Grupo_605" data-name="Grupo 605" transform="translate(40.375 11.315)">
                <g id="Grupo_604" data-name="Grupo 604">
                  <g id="Grupo_603" data-name="Grupo 603">
                    <g id="Grupo_602" data-name="Grupo 602">
                      <path id="Trazado_631" data-name="Trazado 631" d="M419.332,442.15c-.107-.077.16-.54.718-1.221a9.684,9.684,0,0,1,2.737-2.316,6.666,6.666,0,0,1,3.8-.828c1.03.118,1.546.486,1.49.577-.058.123-.628-.014-1.514.035a7.716,7.716,0,0,0-3.236.951,18.024,18.024,0,0,0-2.741,1.985C419.906,441.9,419.437,442.229,419.332,442.15Z" transform="translate(-419.309 -437.752)" fill="#263238"/>
                    </g>
                  </g>
                </g>
              </g>
              <g id="Grupo_607" data-name="Grupo 607" transform="translate(19.639 9.145)">
                <g id="Grupo_606" data-name="Grupo 606">
                  <path id="Trazado_632" data-name="Trazado 632" d="M407.529,436.559c-.193.2.4.9,1.149,1.725s1.413,1.483,1.678,1.363-.016-1.034-.842-1.934S407.715,436.366,407.529,436.559Z" transform="translate(-407.492 -436.515)" fill="#263238"/>
                </g>
              </g>
              <g id="Grupo_609" data-name="Grupo 609" transform="translate(17.036 9.542)">
                <g id="Grupo_608" data-name="Grupo 608">
                  <path id="Trazado_633" data-name="Trazado 633" d="M406.064,436.774c-.214.177.211.962.946,1.753s1.532,1.318,1.776,1.177-.177-.925-.948-1.753S406.274,436.6,406.064,436.774Z" transform="translate(-406.008 -436.741)" fill="#263238"/>
                </g>
              </g>
              <g id="Grupo_611" data-name="Grupo 611" transform="translate(14.786 9.977)">
                <g id="Grupo_610" data-name="Grupo 610">
                  <path id="Trazado_634" data-name="Trazado 634" d="M404.821,437.017c-.242.149.007.8.449,1.509s.944,1.241,1.22,1.148.2-.821-.283-1.585S405.058,436.869,404.821,437.017Z" transform="translate(-404.726 -436.989)" fill="#263238"/>
                </g>
              </g>
              <g id="Grupo_613" data-name="Grupo 613" transform="translate(17.423)">
                <g id="Grupo_612" data-name="Grupo 612">
                  <path id="Trazado_635" data-name="Trazado 635" d="M408.458,440.75a6.3,6.3,0,0,0,1.513-2.616,7.813,7.813,0,0,0,.539-3.211,5.756,5.756,0,0,0-.437-1.937,3.572,3.572,0,0,0-.584-.993,2,2,0,0,0-1.349-.688,1.81,1.81,0,0,0-1.906,1.776,9.38,9.38,0,0,0,.188,1.936,15.9,15.9,0,0,0,.921,3.1,7,7,0,0,0,1.483,2.63c.149-.049-.253-1.105-.76-2.816a21.063,21.063,0,0,1-.67-3.023,10.053,10.053,0,0,1-.118-1.755c.009-.532.419-.963.779-.923.427.018.8.5,1.039,1.074a5.526,5.526,0,0,1,.435,1.677,8.377,8.377,0,0,1-.288,2.983C408.772,439.654,408.3,440.7,408.458,440.75Z" transform="translate(-406.229 -431.303)" fill="#263238"/>
                </g>
              </g>
              <g id="Grupo_615" data-name="Grupo 615" transform="translate(11.378 2.023)">
                <g id="Grupo_614" data-name="Grupo 614">
                  <path id="Trazado_636" data-name="Trazado 636" d="M411.386,439.422c.118-.047-.27-1.139-1.384-2.723a12.878,12.878,0,0,0-2.387-2.541,10.63,10.63,0,0,0-1.823-1.183,5.1,5.1,0,0,0-1.177-.454,2.057,2.057,0,0,0-.819-.04,1.187,1.187,0,0,0-.821.526,2.413,2.413,0,0,0,.344,2.36,6.222,6.222,0,0,0,1.462,1.574,15.75,15.75,0,0,0,3.152,1.818c1.939.874,3.387.8,3.366.665a25.052,25.052,0,0,1-3-1.234,18.7,18.7,0,0,1-2.844-1.867,5.58,5.58,0,0,1-1.209-1.376,1.86,1.86,0,0,1-.328-1.5c-.074-.167.788-.025,1.362.312a10.568,10.568,0,0,1,1.686,1.034,15.337,15.337,0,0,1,2.416,2.271C410.607,438.5,411.242,439.487,411.386,439.422Z" transform="translate(-402.784 -432.456)" fill="#263238"/>
                </g>
              </g>
              <g id="Grupo_617" data-name="Grupo 617" transform="translate(22.431 8.664)">
                <g id="Grupo_616" data-name="Grupo 616">
                  <path id="Trazado_637" data-name="Trazado 637" d="M409.083,436.387c-.023.251,5.987.812,13.419.888s13.445-.232,13.44-.479c-.007-.263-6.021-.361-13.429-.444S409.1,436.129,409.083,436.387Z" transform="translate(-409.083 -436.241)" fill="#263238"/>
                </g>
              </g>
            </g>
            <g id="Grupo_638" data-name="Grupo 638" transform="translate(36.261 83.181)">
              <g id="Grupo_619" data-name="Grupo 619">
                <path id="Trazado_638" data-name="Trazado 638" d="M513.347,242.877s1.156-4.273-2.093-30.517c-1.416-11.425-9.188-18.5-17.516-22.856l.007-.151-.726-.212A68.636,68.636,0,0,0,471.2,182.8l-29.455-.477s-21.564-2.69-35.313,12.259-23.1,23.775-23.1,23.775l21.945,26.374,5.877-5.82s-.612,12.138,3.4,19.2l9.483,16.7-6.286,29.452c-3.9,11.216-16.732,52.223-11.7,92.842,6.235,50.3,7.231,65.012,7.231,65.012l71.136,9.73s28.43-106.514,18.692-148.826c-6.691-29.073-11.8-27.716-13.44-34.014l1.851-45.269Z" transform="translate(-383.332 -182.132)" fill="#2bc1d3"/>
              </g>
              <g id="Grupo_621" data-name="Grupo 621" transform="translate(27.492 46.996)">
                <g id="Grupo_620" data-name="Grupo 620">
                  <path id="Trazado_639" data-name="Trazado 639" d="M404.935,208.919c.216.128-.93,2.464-2.562,5.213s-3.13,4.876-3.348,4.747.93-2.462,2.562-5.213S404.718,208.79,404.935,208.919Z" transform="translate(-398.999 -208.914)" fill="#263238"/>
                </g>
              </g>
              <g id="Grupo_623" data-name="Grupo 623" transform="translate(38.729 100.947)">
                <g id="Grupo_622" data-name="Grupo 622">
                  <path id="Trazado_640" data-name="Trazado 640" d="M463.866,240.724a11.427,11.427,0,0,1-2.269.453c-1.467.24-3.6.512-6.247.786a176.878,176.878,0,0,1-41.481-.739c-2.634-.367-4.757-.716-6.215-1.007a11.331,11.331,0,0,1-2.251-.535,11.406,11.406,0,0,1,2.3.183l6.242.719c5.269.572,12.571,1.169,20.657,1.316s15.4-.195,20.687-.581l6.264-.495A11.1,11.1,0,0,1,463.866,240.724Z" transform="translate(-405.403 -239.659)" fill="#263238"/>
                </g>
              </g>
              <g id="Grupo_625" data-name="Grupo 625" transform="translate(30.087 181.73)">
                <g id="Grupo_624" data-name="Grupo 624">
                  <path id="Trazado_641" data-name="Trazado 641" d="M491.56,285.7a8.181,8.181,0,0,1-.275,1.4q-.361,1.49-.963,3.983-.329,1.308-.719,2.876c-.295,1.042-.691,2.151-1.076,3.357-.816,2.392-1.6,5.175-2.888,8.093q-.9,2.216-1.893,4.631c-.67,1.6-1.532,3.2-2.336,4.891-1.555,3.418-3.625,6.849-5.719,10.507a137.921,137.921,0,0,1-36.918,40.1c-3.473,2.388-6.724,4.736-10,6.566-1.621.941-3.139,1.932-4.683,2.734l-4.457,2.269c-2.8,1.523-5.512,2.534-7.828,3.545-1.169.484-2.241.97-3.255,1.351-1.018.346-1.956.662-2.808.953q-2.437.805-3.89,1.29a8.442,8.442,0,0,1-1.372.39,8.168,8.168,0,0,1,1.316-.567l3.825-1.448,2.769-1.025c1-.4,2.062-.909,3.216-1.413,2.29-1.053,4.966-2.1,7.735-3.653l4.408-2.311c1.527-.812,3.029-1.813,4.631-2.762,3.243-1.848,6.458-4.208,9.9-6.6A140.729,140.729,0,0,0,474.973,325c2.1-3.624,4.185-7.022,5.757-10.406.814-1.676,1.686-3.255,2.372-4.843s1.32-3.122,1.935-4.582c1.32-2.89,2.144-5.643,3-8.014.409-1.191.826-2.29,1.146-3.322q.432-1.545.791-2.843.705-2.466,1.128-3.934A8.627,8.627,0,0,1,491.56,285.7Z" transform="translate(-400.478 -285.696)" fill="#263238"/>
                </g>
              </g>
              <g id="Grupo_627" data-name="Grupo 627" transform="translate(36.681 2.449)">
                <g id="Grupo_626" data-name="Grupo 626">
                  <path id="Trazado_642" data-name="Trazado 642" d="M496.455,226.476a6.686,6.686,0,0,1-1.114.642c-.744.393-1.846.958-3.287,1.649a44.971,44.971,0,0,1-12.859,4.254,23.808,23.808,0,0,1-9.4-.521,17.2,17.2,0,0,1-4.854-2.116,18.314,18.314,0,0,1-4.162-3.769c-2.446-2.976-4.2-6.586-6.3-10.078-2.06-3.445-4.724-6.994-8.776-8.347-4.031-1.388-8.326-.339-12.2.762-3.917,1.121-7.758,2.427-11.639,2.511a16.989,16.989,0,0,1-17.607-18.027,17.819,17.819,0,0,1,1.313-5.71,12.71,12.71,0,0,1,2.651-4.2,23.872,23.872,0,0,0-2.32,4.332,17.981,17.981,0,0,0-1.134,5.6,16.141,16.141,0,0,0,7.214,14.249,16.359,16.359,0,0,0,9.858,2.913c3.706-.1,7.474-1.386,11.418-2.532a38.318,38.318,0,0,1,6.18-1.356,14.921,14.921,0,0,1,6.565.591,13.782,13.782,0,0,1,5.5,3.627,28.832,28.832,0,0,1,3.745,5.126c2.109,3.548,3.836,7.121,6.182,10A16.3,16.3,0,0,0,470,231.77a23.422,23.422,0,0,0,9.111.611,47.324,47.324,0,0,0,12.792-3.938l3.357-1.49A6.9,6.9,0,0,1,496.455,226.476Z" transform="translate(-404.236 -183.527)" fill="#fff"/>
                </g>
              </g>
              <g id="Grupo_629" data-name="Grupo 629" transform="translate(29.207 66.067)">
                <g id="Grupo_628" data-name="Grupo 628">
                  <path id="Trazado_643" data-name="Trazado 643" d="M457.884,261.273a8.272,8.272,0,0,0,1.248-2.96,9.691,9.691,0,0,0-2.734-7.993,12.625,12.625,0,0,0-5.069-3.16,31.945,31.945,0,0,0-6.852-1.5c-2.467-.33-5.112-.526-7.817-1.114a18.993,18.993,0,0,1-7.875-3.383,12.146,12.146,0,0,1-2.906-3.336,22.281,22.281,0,0,1-1.734-3.869,41.553,41.553,0,0,0-2.862-7.223,12.946,12.946,0,0,0-10.665-6.31,13.331,13.331,0,0,0-8.221,2.662,29.174,29.174,0,0,0-2.416,2.2,2.767,2.767,0,0,1,.468-.719,11.8,11.8,0,0,1,1.728-1.757,13.307,13.307,0,0,1,8.449-3.027,13.541,13.541,0,0,1,11.381,6.526,41.058,41.058,0,0,1,2.978,7.349,14.085,14.085,0,0,0,4.366,6.793,18.308,18.308,0,0,0,7.5,3.225c2.627.584,5.245.8,7.738,1.153,4.947.623,9.646,2.035,12.289,5.057a9.922,9.922,0,0,1,2.6,8.5,6.114,6.114,0,0,1-1.006,2.264C458.109,261.082,457.909,261.3,457.884,261.273Z" transform="translate(-399.977 -219.782)" fill="#fff"/>
                </g>
              </g>
              <g id="Grupo_631" data-name="Grupo 631" transform="translate(59.792 139.617)">
                <g id="Grupo_630" data-name="Grupo 630">
                  <path id="Trazado_644" data-name="Trazado 644" d="M472.3,354.262a24.842,24.842,0,0,0-7.016.3,77.782,77.782,0,0,0-8.012,2.1A38.568,38.568,0,0,1,446.4,358.61a31.669,31.669,0,0,1-13.129-2.569,27.287,27.287,0,0,1-11.89-9.66,24.664,24.664,0,0,1-3.811-16.435,23.673,23.673,0,0,1,2.711-8.644,21.037,21.037,0,0,1,6.2-6.965c2.487-1.844,5.2-3.5,6.512-6.079a6.641,6.641,0,0,0,.586-4.115,15.384,15.384,0,0,0-1.4-4.059c-1.249-2.588-2.7-5.282-2.937-8.219a17.336,17.336,0,0,1,1.225-8.312,20.243,20.243,0,0,1,10.767-10.765,29.978,29.978,0,0,1,13.161-2.36c4.082.039,7.767.209,10.937-.314a17.9,17.9,0,0,0,7.577-2.958,11.241,11.241,0,0,0,3.457-3.8c.562-1.049.695-1.679.755-1.658a6.2,6.2,0,0,1-.591,1.741,10.929,10.929,0,0,1-3.411,4.006,17.992,17.992,0,0,1-7.7,3.174c-3.234.583-6.965.453-11.022.458a29.47,29.47,0,0,0-12.848,2.4,19.507,19.507,0,0,0-10.3,10.388,16.557,16.557,0,0,0-1.139,7.907c.233,2.764,1.588,5.269,2.881,7.93a16.309,16.309,0,0,1,1.483,4.3,7.54,7.54,0,0,1-.667,4.661c-1.506,2.916-4.345,4.582-6.782,6.41a21.092,21.092,0,0,0-8.563,14.977,23.862,23.862,0,0,0,3.624,15.865,26.6,26.6,0,0,0,11.492,9.432,31.2,31.2,0,0,0,12.817,2.618,38.662,38.662,0,0,0,10.736-1.8,72.183,72.183,0,0,1,8.091-1.957,20.624,20.624,0,0,1,5.263-.244A10.237,10.237,0,0,1,472.3,354.262Z" transform="translate(-417.406 -261.697)" fill="#fff"/>
                </g>
              </g>
              <g id="Grupo_633" data-name="Grupo 633" transform="translate(27.418 247.09)">
                <g id="Grupo_632" data-name="Grupo 632">
                  <path id="Trazado_645" data-name="Trazado 645" d="M461.391,364c-.079-.009.083-1.223.135-3.417a20.342,20.342,0,0,0-1.6-8.986,8.839,8.839,0,0,0-4.269-4.325c-2.018-.976-4.508-1.06-7.091-1.06-2.573-.026-5.452.156-8.235-1.026a9.637,9.637,0,0,1-3.557-2.75,21.467,21.467,0,0,1-2.423-3.846,31.839,31.839,0,0,0-4.494-7.387,22.434,22.434,0,0,0-6.243-4.973,21.353,21.353,0,0,0-13.178-2.351,23.033,23.033,0,0,0-8.646,3.053c-1.871,1.142-2.78,1.967-2.834,1.9-.023-.023.191-.24.619-.639a17.975,17.975,0,0,1,2.023-1.56,22.047,22.047,0,0,1,8.742-3.394,21.7,21.7,0,0,1,13.668,2.246,23.017,23.017,0,0,1,6.522,5.127,22.678,22.678,0,0,1,2.569,3.585c.742,1.293,1.378,2.646,2.064,3.973,1.327,2.643,3.008,5.12,5.527,6.194,2.5,1.088,5.289.967,7.881,1s5.215.126,7.41,1.22a9.453,9.453,0,0,1,4.529,4.733,19.687,19.687,0,0,1,1.367,9.279c-.077,1.107-.191,1.958-.29,2.534A3.358,3.358,0,0,1,461.391,364Z" transform="translate(-398.957 -322.944)" fill="#fff"/>
                </g>
              </g>
              <g id="Grupo_635" data-name="Grupo 635" transform="translate(21.925 143.035)">
                <g id="Grupo_634" data-name="Grupo 634">
                  <path id="Trazado_646" data-name="Trazado 646" d="M421.666,263.645a32.569,32.569,0,0,1-1.441,3.006,23.183,23.183,0,0,0-2.616,8.525,11.226,11.226,0,0,0,1.274,5.88,49.108,49.108,0,0,0,4,5.914,21.22,21.22,0,0,1,3.962,15.926,17.92,17.92,0,0,1-9.653,13.138,16.105,16.105,0,0,1-7.115,1.732,15.41,15.41,0,0,1-13.027-7.43,11.608,11.608,0,0,1-1.016-2.276,3.01,3.01,0,0,1-.2-.848c.091-.033.39,1.141,1.52,2.938a15.143,15.143,0,0,0,6.758,5.642,14.462,14.462,0,0,0,5.959,1.214,15.465,15.465,0,0,0,6.743-1.721,17.212,17.212,0,0,0,9.132-12.538,20.56,20.56,0,0,0-3.752-15.294,47.606,47.606,0,0,1-3.989-6.057,11.782,11.782,0,0,1-1.241-6.259,22.12,22.12,0,0,1,2.943-8.647c.519-.944.953-1.658,1.255-2.139A3.112,3.112,0,0,1,421.666,263.645Z" transform="translate(-395.827 -263.645)" fill="#fff"/>
                </g>
              </g>
              <g id="Grupo_637" data-name="Grupo 637" transform="translate(98.55 30.87)">
                <g id="Grupo_636" data-name="Grupo 636">
                  <path id="Trazado_647" data-name="Trazado 647" d="M441.577,253.005a9.387,9.387,0,0,1-.214-2.092c-.077-1.539-.174-3.446-.288-5.7-.244-5.02-.56-11.576-.912-18.821-.347-7.354-.586-14.021-.646-18.848-.032-2.413-.03-4.368,0-5.719a9.434,9.434,0,0,1,.142-2.1,9.4,9.4,0,0,1,.214,2.092c.077,1.537.174,3.445.288,5.7.244,5.02.561,11.576.914,18.825.346,7.351.584,14.015.644,18.842.033,2.415.033,4.369,0,5.719A9.163,9.163,0,0,1,441.577,253.005Z" transform="translate(-439.494 -199.724)" fill="#263238"/>
                </g>
              </g>
            </g>
            <g id="Grupo_639" data-name="Grupo 639" transform="translate(48.905 144.116)">
              <path id="Trazado_648" data-name="Trazado 648" d="M477.913,217.838s2.955,35.414-.433,37.783c-18.76,13.108-43.706,18.383-52.62,19.931-1.239-.442-2.681-1-4.352-1.737a13.843,13.843,0,0,1-3.9-2.6,21.706,21.706,0,0,1-3.864-4.434c-.842-1.609-3.148-1.369-3.373.258s1.993,6.121,6.561,9.709-4.426,3.781-7.7,3.91-13.387,1.02-14.131,2.081c-1.088,1.555.363,3.057,3.631,2.85,3.308-.211,13.122-.125,13.134,1.646.011,1.746-16.679,2.172-16.679,2.172s-3.592-.5-3.645,1.548c-.1,3.689,17.593,1.9,19.272,1.686,1.167-.149,1.246,1.776-.016,1.867-1.3.093-16.665.032-16.8,3.787-.1,2.88,14.566-1.335,17.777.486s-11.462,2.037-11.45,4.794c.005,1.027.149,1.793,8.539.428a166.744,166.744,0,0,0,17.756-4.729l.017.088s87.224-7.479,85.041-46.81c-1.476-26.614-1-21.7-2.625-35.69" transform="translate(-390.538 -216.857)" fill="#b78876"/>
            </g>
          </g>
        </g>
      </g>
    </g>
  </g>
</svg>
