<svg xmlns="http://www.w3.org/2000/svg" width="67.073" height="83.089" viewBox="0 0 67.073 83.089">
  <g id="Logo_Alican_SA" data-name="Logo Alican SA" transform="translate(0 -0.01)">
    <path id="Trazado_1182" data-name="Trazado 1182" d="M80.76,202.485v-.05c0-3,2.428-4.557,5.96-4.557a14.639,14.639,0,0,1,4.272.591v-.434c0-2.478-1.509-3.767-4.123-3.767a9.691,9.691,0,0,0-4.229.99l-.619-1.695a11.321,11.321,0,0,1,5.063-1.189,6.188,6.188,0,0,1,4.528,1.538,5.5,5.5,0,0,1,1.424,4.094v8.544H90.978v-2.072a6.1,6.1,0,0,1-4.984,2.371c-2.613,0-5.2-1.488-5.2-4.343m10.246-1.082v-1.3a14.5,14.5,0,0,0-4.073-.591c-2.585,0-4.066,1.132-4.066,2.805v.057c0,1.752,1.616,2.777,3.5,2.777,2.556,0,4.635-1.538,4.635-3.752" transform="translate(-80.76 -123.753)" fill="#525452"/>
    <rect id="Rectángulo_109" data-name="Rectángulo 109" width="2.079" height="19.68" transform="translate(15.23 63.095)" fill="#525452"/>
    <path id="Trazado_1183" data-name="Trazado 1183" d="M109.65,185.19h2.385v2.293h-2.371Zm.128,5.333h2.079v13.941h-2.079Z" transform="translate(-89.08 -121.689)" fill="#525452"/>
    <path id="Trazado_1184" data-name="Trazado 1184" d="M116.8,199.6v-.057a7.263,7.263,0,0,1,12.731-4.8l-1.381,1.424a5.635,5.635,0,0,0-4.229-2.1,5.131,5.131,0,0,0-4.984,5.4v.05a5.212,5.212,0,0,0,5.127,5.419,5.746,5.746,0,0,0,4.272-2.079l1.317,1.246a7.213,7.213,0,0,1-12.816-4.528" transform="translate(-91.139 -123.725)" fill="#525452"/>
    <path id="Trazado_1185" data-name="Trazado 1185" d="M136.64,202.491v-.05c0-3,2.421-4.557,5.96-4.557a14.675,14.675,0,0,1,4.272.591v-.434c0-2.478-1.517-3.767-4.123-3.767a9.748,9.748,0,0,0-4.237.99l-.619-1.695a11.392,11.392,0,0,1,5.07-1.189,6.157,6.157,0,0,1,4.5,1.538,5.511,5.511,0,0,1,1.46,4.094v8.544h-2.058v-2.072a6.116,6.116,0,0,1-5.02,2.371c-2.613,0-5.2-1.488-5.2-4.343m10.218-1.1v-1.3a14.589,14.589,0,0,0-4.073-.591c-2.585,0-4.073,1.132-4.073,2.805v.057c0,1.752,1.616,2.777,3.51,2.777,2.556,0,4.635-1.538,4.635-3.752" transform="translate(-96.852 -123.759)" fill="#525452"/>
    <path id="Trazado_1186" data-name="Trazado 1186" d="M157.76,192.561h2.079v2.428a5.269,5.269,0,0,1,4.771-2.72c3.368,0,5.34,2.264,5.34,5.575V206.5H167.9v-8.146c0-2.585-1.424-4.2-3.852-4.2a4.1,4.1,0,0,0-4.18,4.365V206.5h-2.079Z" transform="translate(-102.934 -123.727)" fill="#525452"/>
    <path id="Trazado_1187" data-name="Trazado 1187" d="M109.592,150.842a46.993,46.993,0,0,0-5.91,9.513h-5.8a64.872,64.872,0,0,1,6.266-13.785,40.947,40.947,0,0,0-4.436-2.492,69.7,69.7,0,0,0-7.12,16.277H86.949a84.653,84.653,0,0,1,6.821-18.612,39.916,39.916,0,0,0-4.507-1.075l-.591-.107A90.028,90.028,0,0,0,80.84,165h26.423a42.316,42.316,0,0,1,5.881-10.431,39.774,39.774,0,0,0-3.56-3.738" transform="translate(-80.783 -108.836)" fill="#525452"/>
    <path id="Trazado_1188" data-name="Trazado 1188" d="M111.612,127.9c.456-.605.926-1.189,1.424-1.773h0c.456-.562.926-1.111,1.424-1.652l.206-.242c.477-.534.954-1.061,1.424-1.588l.456-.463c.313-.32.619-.641.94-.961l.349-.349h0q1.83-1.773,3.767-3.411h0l.712-.562.1-.078a65.138,65.138,0,0,1,5.44-4h0q2.136-1.424,4.4-2.649h0l-.114-.135a90.9,90.9,0,0,0-10.282-10.68h0l-.157-.135q-1.865-1.645-3.838-3.2h0q-2,1.566-3.9,3.24l-.107.085h0a91.176,91.176,0,0,0-10.381,10.787,66.93,66.93,0,0,1,10.552,7.234h.043a71.364,71.364,0,0,0-6.942,8,47.874,47.874,0,0,0-6.408-2.7,84.4,84.4,0,0,1,5.931-8.473q-2.008-1.317-4.137-2.478l-.278-.135a90.255,90.255,0,0,0-9.185,14.4h.043a43.284,43.284,0,0,1,5.454,1.353l.534.192q.712.235,1.424.491l.669.249c.641.256,1.282.527,1.908.812l.563.263.605.285a.538.538,0,0,1,.093.043,40.519,40.519,0,0,1,4.322,2.492h0l.634.434.776.527c.534.384,1.061.783,1.588,1.189l.712.577c.335.278.669.555.99.84l.712.641.235.214h0a42.215,42.215,0,0,1,3.56,3.7h0c.235.278.463.57.712.854l.627.79c.32.427.641.862.954,1.3l.584.854c.2.3.4.619.6.926q.527.833,1,1.687c.15.256.3.513.434.769.214.4.42.8.619,1.21.107.2.206.406.306.619.449.94.876,1.9,1.26,2.848h26.4a90.284,90.284,0,0,0-7.832-24.437l-.634.114a39.012,39.012,0,0,0-4.457,1.054,85.231,85.231,0,0,1,6.821,18.619h-5.611a70.333,70.333,0,0,0-7.177-16.312,40.421,40.421,0,0,0-4.436,2.492,64.738,64.738,0,0,1,6.294,13.82h-5.81a47.414,47.414,0,0,0-7.12-10.972l.3-.271a42.009,42.009,0,0,1,20.884-10.282h.064a90.319,90.319,0,0,0-9.263-14.3l-.278.15c-1.424.776-2.777,1.616-4.115,2.492a87.4,87.4,0,0,1,5.917,8.437,47.487,47.487,0,0,0-6.408,2.7,70.378,70.378,0,0,0-5.589-6.657c-1.3,1.082-2.556,2.222-3.767,3.4a65.251,65.251,0,0,1,4.984,5.8,47.7,47.7,0,0,0-6.266,4.927,47.251,47.251,0,0,0-6.28-4.927m-.328-19.047a85.517,85.517,0,0,1,6.608-6.344,86.83,86.83,0,0,1,6.608,6.344,70.041,70.041,0,0,0-6.608,4.984,71.913,71.913,0,0,0-6.608-4.984" transform="translate(-84.299 -96.01)" fill="#525452"/>
  </g>
</svg>
