<svg xmlns="http://www.w3.org/2000/svg" width="128.567" height="21" viewBox="0 0 128.567 21"><g transform="translate(0)"><path d="M-152.8,319.44a11.612,11.612,0,0,1,5.695,1.6,7.781,7.781,0,0,1,3.414,4.322,13,13,0,0,1-.008,9.324,8.428,8.428,0,0,1-6.84,5.56,11.335,11.335,0,0,1-5.349-.379,8.235,8.235,0,0,1-5.671-5.676,13.461,13.461,0,0,1-.172-8.033,9.063,9.063,0,0,1,6.966-6.48A14.85,14.85,0,0,1-152.8,319.44Zm.158,17.231h.343a4.626,4.626,0,0,0,4.418-3,9.208,9.208,0,0,0,.556-5.375,8.615,8.615,0,0,0-.916-2.637,4.731,4.731,0,0,0-5.071-2.247,4.7,4.7,0,0,0-4.173,3.636,10.014,10.014,0,0,0-.021,5.873A4.837,4.837,0,0,0-152.638,336.671Z" transform="translate(162.26 -319.44)" fill="#525452"/><path d="M202.279,335.918c-.06,2.343.018,4.637-.048,7.027-1.445.085-2.774.041-4.164.03-.033-.331-.077-.573-.077-.814V325.077a2.023,2.023,0,0,1,2.291-2.281c2.334-.008,4.669-.044,7,.025a9.339,9.339,0,0,1,2.679.5,4.78,4.78,0,0,1,3.128,3.625,9.325,9.325,0,0,1,.019,4.679,5.5,5.5,0,0,1-5.405,4.232c-1.511.01-3.021,0-4.532.007C202.909,335.863,202.643,335.895,202.279,335.918Zm.036-4.055a1.049,1.049,0,0,0,.262.1c1.417,0,2.836.029,4.257,0a2.045,2.045,0,0,0,1.8-.961c.508-.824.687-2.773-.11-3.64a1.993,1.993,0,0,0-1.005-.637,14.693,14.693,0,0,0-2.387-.183c-.687-.011-1.373.065-2.049.107-.243.015-.483.045-.768.073Z" transform="translate(-148.52 -322.32)" fill="#525452"/><path d="M45.04,328.6V322.82a6.672,6.672,0,0,1,2.91.137,1.576,1.576,0,0,1,1.037,1.269,7.816,7.816,0,0,1,.15,1.358c.012,3.042.032,6.083-.007,9.124a23.336,23.336,0,0,1-.284,3.677,5.236,5.236,0,0,1-4.2,4.448,10.012,10.012,0,0,1-6.256-.246,5.65,5.65,0,0,1-3.51-3.87,13.3,13.3,0,0,1,.2-8.02,5.832,5.832,0,0,1,9.294-2.361,5.15,5.15,0,0,0,.5.332Zm.034,6.309a23.979,23.979,0,0,0-.61-2.5,2.593,2.593,0,0,0-2.553-1.824,2.7,2.7,0,0,0-2.755,1.843,8.493,8.493,0,0,0-.378,1.316,6.658,6.658,0,0,0,.515,4.46,2.9,2.9,0,0,0,5-.015A9.793,9.793,0,0,0,45.075,334.912Z" transform="translate(-7.355 -322.277)" fill="#525452"/><path d="M682.822,362.32h-9.86a2.825,2.825,0,0,0,1.031,2.859,2.728,2.728,0,0,0,3.642-.243,4.624,4.624,0,0,1,3.141-.939,14.064,14.064,0,0,1,1.605.137,4.189,4.189,0,0,1-.1.791,5.656,5.656,0,0,1-3.6,3.937,8.742,8.742,0,0,1-6.678-.309,5.73,5.73,0,0,1-3.183-4.3,13.435,13.435,0,0,1-.389-2.843,10.978,10.978,0,0,1,1.1-5.313,5.467,5.467,0,0,1,3.776-2.829,10.124,10.124,0,0,1,5.016.077,5.3,5.3,0,0,1,3.929,4.091c.35,1.482.463,3.021.673,4.532C682.934,362.044,682.876,362.133,682.822,362.32Zm-9.862-3.031c1.792.008,3.506.015,5.3,0a2.773,2.773,0,0,0-1.236-2.439,2.583,2.583,0,0,0-2.969.111A2.662,2.662,0,0,0,672.959,359.289Z" transform="translate(-554.357 -348.382)" fill="#525452"/><path d="M450.1,369.05h-3.991a7.48,7.48,0,0,1-.077-.761c0-2.859-.014-5.718.01-8.577a11.669,11.669,0,0,1,.2-2.109,5.179,5.179,0,0,1,4.573-4.284,12.449,12.449,0,0,1,4.286.128,4.836,4.836,0,0,1,4.024,3.661,10.788,10.788,0,0,1,.229,2.447c.026,2.928.012,5.855.007,8.789,0,.244-.043.489-.07.79a5.165,5.165,0,0,1-3.119-.221,1.936,1.936,0,0,1-.927-1.936c-.017-1.211,0-2.424,0-3.636,0-1.327-.01-2.653,0-3.982a2.807,2.807,0,0,0-1.826-2.49,2.452,2.452,0,0,0-3.238,2.26c-.029.662-.007,1.327-.007,1.99v7.067C450.163,368.446,450.127,368.714,450.1,369.05Z" transform="translate(-362.499 -348.556)" fill="#525452"/><path d="M567.476,358.5c-.32.029-.563.065-.806.067-.71.008-1.42-.023-2.127.011a2.074,2.074,0,0,1-1.873-.783,2.6,2.6,0,0,0-4.345.7,7.261,7.261,0,0,0,0,5.806,2.7,2.7,0,0,0,4.29,1,4.221,4.221,0,0,1,3.63-1.019,7.449,7.449,0,0,0,1.236.01,5.429,5.429,0,0,1-.063.868,5.964,5.964,0,0,1-5.578,4.394,18.2,18.2,0,0,1-2.935-.172,5.49,5.49,0,0,1-4.557-3.786,11.674,11.674,0,0,1,.147-8.833,5.542,5.542,0,0,1,4.6-3.378,10.914,10.914,0,0,1,4.614.257,5.243,5.243,0,0,1,3.754,4.146A3.008,3.008,0,0,1,567.476,358.5Z" transform="translate(-455.256 -348.615)" fill="#525452"/><path d="M-7.983,322.836a7.612,7.612,0,0,1,2.723.085,1.618,1.618,0,0,1,1.144,1.336,6.729,6.729,0,0,1,.151,1.357q.015,8.131,0,16.259v.912a37.652,37.652,0,0,1-3.966.029C-8.114,342.228-8.162,323.774-7.983,322.836Z" transform="translate(29.265 -322.301)" fill="#525452"/><path d="M326.119,370.513h-4.055c-.029-.281-.073-.523-.074-.763,0-2.31-.021-4.618.012-6.927a19.013,19.013,0,0,1,.238-2.586c.433-2.812,2.218-4.364,4.865-5.015a9.789,9.789,0,0,1,3.485-.275c.125,1.373.04,2.727.052,4.142-.383.03-.672.044-.961.078-.566.069-1.137.111-1.69.229a2.074,2.074,0,0,0-1.682,1.778,8.908,8.908,0,0,0-.181,1.629c-.021,2.263-.011,4.532-.012,6.789Z" transform="translate(-255.486 -350.028)" fill="#525452"/><path d="M405.887,370.769h-3.759c-.207-.588-.225-14.857-.014-15.572.629,0,1.284-.008,1.938,0a6.385,6.385,0,0,1,.678.092,1.266,1.266,0,0,1,1.236,1.31q.019,6.866,0,13.732A2.979,2.979,0,0,1,405.887,370.769Z" transform="translate(-324.484 -350.284)" fill="#525452"/><path d="M406.331,325.908H402.46V322.78a13.721,13.721,0,0,1,2.915.172,1.145,1.145,0,0,1,.941.979C406.379,324.556,406.331,325.193,406.331,325.908Z" transform="translate(-324.911 -322.321)" fill="#525452"/></g></svg>