<svg xmlns="http://www.w3.org/2000/svg" width="89.903" height="69.128" viewBox="0 0 89.903 69.128">
  <g id="Logo-Sieger_" data-name="Logo-Sieger " transform="translate(0 0.02)">
    <path id="Trazado_1173" data-name="Trazado 1173" d="M104.252,171.556c3.152,0,4.619-1.956,4.619-4.107,0-6.467-11.91-5.867-11.91-13.576,0-3.608,3.152-6.193,7.477-6.193a11.275,11.275,0,0,1,6.353,1.571v5.144h-.4c-1.209-3.964-3.605-5.786-6.17-5.786-2.64,0-4.215,1.715-4.215,3.856,0,6.464,11.874,6,11.874,13.5,0,3.716-2.934,6.539-7.588,6.539a15.789,15.789,0,0,1-7.314-1.78v-5.359h.4c1.467,4.237,4.29,6.154,6.891,6.193" transform="translate(-96.96 -111.95)" fill="#525452"/>
    <path id="Trazado_1174" data-name="Trazado 1174" d="M153.222,180.059c0,2.331.476,3.227,1.5,3.693v.326h-6.157v-.326c1.027-.466,1.5-1.362,1.5-3.693v-9.831c0-1.9-.88-2.51-1.61-2.833v-.359l4.762-1.578Z" transform="translate(-131.673 -123.934)" fill="#525452"/>
    <path id="Trazado_1175" data-name="Trazado 1175" d="M153.011,144a2.252,2.252,0,1,1-2.311,2.249A2.318,2.318,0,0,1,153.011,144" transform="translate(-133.183 -109.469)" fill="#525452"/>
    <path id="Trazado_1176" data-name="Trazado 1176" d="M188,180.275a9.161,9.161,0,0,1-7.585,4.2c-5.241,0-8.687-3.625-8.687-9.325,0-5.776,3.517-9.684,8.576-9.684,5.313,0,7.4,3.334,7.4,7.637v.9H175.139v.287c0,5.632,3,8.106,6.558,8.106a8.864,8.864,0,0,0,6.011-2.441ZM184.53,172.6c-.072-3.123-1.063-6.193-4.215-6.193s-4.837,3.012-5.13,6.78Z" transform="translate(-147.359 -123.934)" fill="#525452"/>
    <path id="Trazado_1177" data-name="Trazado 1177" d="M235.885,177.671c3.911,0,5.681,1.079,5.681,3.84,0,3.66-4.511,7.784-10.887,7.784-4.361,0-6.78-1.9-6.78-4.563,0-2.044,1.685-3.836,3.957-4.563a2.725,2.725,0,0,1-1.832-2.585c0-1.864,1.724-3.191,2.787-3.765a5.789,5.789,0,0,1-4.071-5.7c0-3.693,3.08-6.418,7.588-6.418a7.94,7.94,0,0,1,4.237,1.112c.652-1.76,1.907-2.908,3.445-2.908a1.789,1.789,0,0,1,1.982,1.724,1.548,1.548,0,0,1-1.649,1.649,1.78,1.78,0,0,1-1.724-1.219,2.363,2.363,0,0,0-1.5,1.111,5.672,5.672,0,0,1,2.135,4.642c0,3.8-3.188,6.457-7.624,6.457a9.126,9.126,0,0,1-2.014-.215,3.134,3.134,0,0,0-1.063,2.008c0,1.076.769,1.613,2.529,1.613Zm-5.134,2.979a8.758,8.758,0,0,1-2.05-.215,4.14,4.14,0,0,0-2.089,3.514c0,2.549,2.161,3.983,5.277,3.983,3.96,0,7.109-1.9,7.109-5.059,0-1.613-1.063-2.223-3.26-2.223Zm-2.784-12.843c0,3.409,1.76,5.561,4.032,5.561s4.032-2.115,4.032-5.274c0-3.048-1.688-5.522-4.032-5.522s-4.032,2.187-4.032,5.235" transform="translate(-182.524 -120.186)" fill="#525452"/>
    <path id="Trazado_1178" data-name="Trazado 1178" d="M295.2,180.275a9.163,9.163,0,0,1-7.588,4.2c-5.238,0-8.683-3.625-8.683-9.325,0-5.776,3.517-9.684,8.576-9.684,5.313,0,7.4,3.334,7.4,7.637v.9H282.336v.287c0,5.632,3.005,8.106,6.561,8.106a8.864,8.864,0,0,0,6.011-2.441ZM291.72,172.6c-.075-3.123-1.063-6.193-4.215-6.193s-4.84,3.012-5.13,6.78Z" transform="translate(-219.616 -123.934)" fill="#525452"/>
    <path id="Trazado_1179" data-name="Trazado 1179" d="M344.061,165.3a2.157,2.157,0,0,1,2.347,2.151,2.132,2.132,0,0,1-2.2,2.223,2.207,2.207,0,0,1-2.125-2.223c-.916.108-2.494,1.362-3.664,2.8V179.9c0,2.327.583,3.191,1.939,3.693v.326h-6.588V183.6c1.023-.466,1.5-1.366,1.5-3.693V170a2.744,2.744,0,0,0-1.613-2.868v-.326l4.765-1.578v4.016c1.793-2.366,3.911-3.98,5.642-3.944" transform="translate(-256.507 -123.779)" fill="#525452"/>
    <path id="Trazado_1180" data-name="Trazado 1180" d="M205.348,67.336l-.062-.5c-.055-.554-.15-.61-.711-.812a40.93,40.93,0,0,1-4.518-1.4l-.075-1.167c-.4-2.722-2.966-5.381-5.541-7.37a21.167,21.167,0,0,0-7.428-3.706l-11.477-3.3L167.987,38l-.049.036a.978.978,0,0,0-.365.75l.228,2.4L165.7,42.619a2.673,2.673,0,0,0-.724,1.568l-3.83,2.308a.648.648,0,0,0-.143,1.1,5.833,5.833,0,0,0,.691.74,1.4,1.4,0,0,0,1.1.424,2.876,2.876,0,0,0,1.369-.365s.147.134-.153.326h0c-.036.02-.075.042-.121.062h0c-.326.153-.916.359-.978.623a6.449,6.449,0,0,0-.049.942,3.235,3.235,0,0,0,.065.675c.046.2.17.453.326.42,0,0,.036,0,.033-.049a3.634,3.634,0,0,1,.13-1.5c.14.228.293.42.57.381.14-.016.746-.111.789-.121l2.471-.574.293.378c1.206,4.042,1.92,7.428,1.92,7.428a16.034,16.034,0,0,0,3.348,4.772l.8,8.41.039.183c-.3.1-.652.209-1,.342a1.216,1.216,0,0,0-.564.463c-.215.447-.326.688-.456,1.01H177.9l1.219-8.426a16.493,16.493,0,0,1-2.386-.108l-.4,6.685c-.205.068-.437.121-.6.179l.362-7.539h0a45.566,45.566,0,0,0,6.519.114,46.077,46.077,0,0,0,7.761-1.3,12.277,12.277,0,0,0,6.359,5.541,11.613,11.613,0,0,0,.512,3.615c.6,1.3,2.112,1.278,3.168,1.268A18.708,18.708,0,0,1,200,68.209a17.989,17.989,0,0,0,3.08.121l.114,2.451c-.284.091-.606.2-.919.326a1.216,1.216,0,0,0-.564.463c-.215.447-.326.688-.456,1.01H205.7Z" transform="translate(-139.962 -38.02)" fill="#525452"/>
    <path id="Trazado_1181" data-name="Trazado 1181" d="M247.8,119.357l-.163-.1a12.013,12.013,0,0,1-1.61-1.125,12.535,12.535,0,0,1-1.754-1.75,10.255,10.255,0,0,1-1.121-1.548c-.707.169-3.432.854-3.432.854a12.321,12.321,0,0,0,4.749,4.469,4.821,4.821,0,0,0,1.548.583l-.241,1.763v-.042c-.326.114-.8.248-1.232.42a1.2,1.2,0,0,0-.564.463c-.215.447-.326.688-.456,1.01h4.563l.127-3.863c.029-.652.095-.808-.414-1.131" transform="translate(-193.187 -89.807)" fill="#525452"/>
  </g>
</svg>
