<svg xmlns="http://www.w3.org/2000/svg" width="48.523" height="46.649" viewBox="0 0 48.523 46.649">
  <g id="_Group_2" data-name=" Group 2" transform="translate(-19.739 -28.613)">
    <path id="Trazado_169" data-name="Trazado 169" d="M72.818,281.05l1.7,20.681H26l1.7-20.681H40.033l10.229,10.681L60.547,281.05Z" transform="translate(-6.261 -226.47)" fill="#00b894"/>
    <path id="Trazado_171" data-name="Trazado 171" d="M167.7,94.208l0,0v6.711h10.751V94.336l.063-.079L173.08,89.9ZM173.08,85.6a9.81,9.81,0,1,1-9.81,9.81,9.81,9.81,0,0,1,9.81-9.81Z" transform="translate(-129.051 -51.637)" fill="#f5faff"/>
    <path id="Trazado_172" data-name="Trazado 172" d="M216.106,130.718l-.063.079v6.584H205.292V130.67l0,0,5.378-4.308Z" transform="translate(-166.639 -89.097)" fill="#2bc1d3"/>
    <path id="Trazado_174" data-name="Trazado 174" d="M166.818,99.7A10.549,10.549,0,1,0,156.27,89.149,10.549,10.549,0,0,0,166.818,99.7Zm0-19.62a9.072,9.072,0,1,1-9.072,9.072A9.072,9.072,0,0,1,166.818,80.077Z" transform="translate(-122.79 -45.375)" fill="#f5faff"/>
    <path id="Trazado_193" data-name="Trazado 193" d="M122.424,60.847l-.055-.057a15.661,15.661,0,0,1,0-21.478,14.212,14.212,0,0,1,20.624,0,15.661,15.661,0,0,1,0,21.478l-.055.057L132.653,71.529ZM142.491,50.04a9.81,9.81,0,1,0-9.81,9.81,9.81,9.81,0,0,0,9.81-9.81Z" transform="translate(-88.653 -6.267)" fill="#f7d100" opacity="0.5"/>
  </g>
</svg>
