<svg xmlns="http://www.w3.org/2000/svg" width="123.816" height="32.454" viewBox="0 0 123.816 32.454">
  <path id="Logo-Mcriadores" d="M79.009,237.038H74.873l2.091-5.545Zm37.134-4.409a3.09,3.09,0,0,1-.409,1.545,2.748,2.748,0,0,1-1.636.864H112.37v-3.909c0-.136.045-.182.045-.273-.045-.591.727-.682,1.091-.682C115.188,230.175,116.142,230.9,116.142,232.629Zm-23.635-1.818c1.042.682,1.231,3.363,1.231,4.64,0,2.591-.136,5.409-3.772,5.409-1,0-1.273-.182-1.273-1.136v-8.458c-.095-1.042.545-1.091,1.182-1.091A4.627,4.627,0,0,1,92.508,230.811Zm-32.634,1.863a7.734,7.734,0,0,1-.095.818,2.245,2.245,0,0,1-1.954,1.545H56.147V230.9c.045-.136.045-.364.136-.454.136-.227.727-.273,1-.273C59.01,230.175,59.874,230.948,59.874,232.675Zm44.86-1.816c.727.727.954,3.363.954,4.64a8.158,8.158,0,0,1-.954,4.681,2.188,2.188,0,0,1-1.909.818,2.463,2.463,0,0,1-1.591-.5,2.422,2.422,0,0,1-.818-1.231,14.842,14.842,0,0,1-.455-3v-1.5c.227-1.864.045-4.727,2.863-4.727A2.175,2.175,0,0,1,104.734,230.859Zm24.725-1.5v2.636h-.455c.095-2-1.954-1.863-3-1.863-.409,0-1.727-.136-1.727.773v3.909h2.954c.864.045.864-1.091.909-1.5h.455v3.863h-.455c0-.545-.136-1.5-.954-1.5h-2.909v4.545c0,.409.5.682.773.682h2.409c.636,0,1.818-.636,1.818-1.409,0-.136.045-.318.045-.454h.409a26.034,26.034,0,0,1,0,2.682h-9.09v-.455a1.3,1.3,0,0,0,1.591-1.273v-9a1.992,1.992,0,0,0-.273-.818c-.364-.545-.909-.409-1.318-.409v-.409Zm-15,0c2.591.409,3.818,1.042,3.818,3.136,0,3.272-2.773,2.818-2.773,3.182a8.43,8.43,0,0,0,.727,1.364,21.418,21.418,0,0,0,2.5,4c.182.227.591.227.909.227v.455h-2.863l-3.314-5.776h-1.136V239.9c.045.364,0,.727.227,1,.364.454.909.318,1.364.364v.455h-5.185v-.455c.364-.045,1.042.095,1.364-.5a1.9,1.9,0,0,0,.182-.682,1.547,1.547,0,0,1,.045-.455v-8.272c-.045-.227-.095-.545-.136-.864-.136-.773-1.042-.773-1.454-.727v-.409Zm-23.453,0c.545.095,1.091.182,1.591.273,3.091.727,3.363,3.772,3.363,5.863,0,2.545-.5,5.272-3.272,5.863a15.19,15.19,0,0,1-1.954.364H85.054v-.455c.5.045,1.545-.136,1.5-.954.045-.136.045-.273.095-.409v-8.819c-.136-.227-.045-.727-.318-1-.273-.364-.864-.364-1.273-.318v-.409Zm-12.863,0c.273.773.5,1.545.818,2.318.227.636.455,1.318.727,1.954.182.5.364,1.042.591,1.591.636,1.727,1.273,3.454,2,5.181a1.411,1.411,0,0,0,.5.545,2.4,2.4,0,0,0,1.409.318v.455H78.873v-.455c.409,0,1.409.095,1.409-.682a19.512,19.512,0,0,0-.954-2.682H74.555a11.479,11.479,0,0,0-.909,2.591c0,.818.954.773,1.409.773v.455H70.51v-.455a3.459,3.459,0,0,0,.954-.136c.954-.318,1.182-1.454,1.5-2.178,1.231-3.182,2.409-6.409,3.636-9.59Zm-8.545,0v.409c-1.273-.095-1.591.454-1.591,1.454v8.545a2.8,2.8,0,0,1,.045.591c.095.864.954.909,1.545.909v.455H64.419v-.455c.591.095,1.545-.227,1.545-1a1.258,1.258,0,0,1,.045-.409v-8.774a1.085,1.085,0,0,1-.095-.409c-.095-.954-.954-.909-1.5-.909v-.409Zm-11.363,0c2.322.364,3.818,1,3.818,3.134,0,1.5-.591,2.727-2.818,3.182a38.22,38.22,0,0,0,3.182,5.318,1.062,1.062,0,0,0,.954.273v.455H60.51l-3.272-5.776H56.1v4.227c-.095.773.909,1.182,1.591,1.091v.455H52.511v-.455c.409,0,1.182.045,1.409-.682l.136-.545v-9.09a1.992,1.992,0,0,0-.273-.818c-.273-.409-.864-.409-1.273-.364v-.409Zm82.854.182.144,3.591h-.591c-.682-2.409-1.591-2.909-3.272-2.909-1.182,0-2.954.409-2.954,2.136,0,1.909,2.591,2.909,4,3.727.5.318,1.136.591,1.727,1a4.2,4.2,0,0,1,1.909,3.454c0,3.863-3.682,4.45-6.09,4.45a18.62,18.62,0,0,1-4.136-.636v-3.771h.591c.636,2.773,1.909,3.314,3.772,3.314,1.364,0,3.227-.545,3.227-2.5a2.436,2.436,0,0,0-.636-1.727,5.92,5.92,0,0,0-2-1.5c-1.545-.954-3.863-1.818-4.545-3.818a5.23,5.23,0,0,1-.182-.909v-.814c.364-3.136,3.454-3.5,5.363-3.5a17.823,17.823,0,0,1,3.678.413Zm-33.179,5.954c0,3.314-.773,6.409-5.091,6.409-1.773,0-4.045-.5-4.727-3.272-.136-.591-.318-1.727-.318-1.818V234.22c.364-4,2.227-5.091,5.045-5.091,4.5,0,5.094,3.318,5.094,6.363ZM50.78,229.813l.095,3.863h-.591a3.478,3.478,0,0,0-.227-.909c-1-2.045-2.273-2.545-3.682-2.545a3.218,3.218,0,0,0-1.909.454c-1.818,1.182-2.045,4.409-2.045,6.045,0,2.409.591,7,4.591,7a6.784,6.784,0,0,0,3.954-1.136v1.5a11.107,11.107,0,0,1-4.409.909c-2.5,0-5.545-.818-6.409-4.409a19.059,19.059,0,0,1-.409-2.454v-2.638c.5-5.136,2.954-6.363,6.5-6.363a13.957,13.957,0,0,1,4.545.682Zm65.457-7.5h-3.731l1.863-5Zm-60.859,0H51.647l1.863-5Zm69.631-7.045,5.363,9.136.045-7.409c-.095-.227-.045-.727-.273-.954a1.248,1.248,0,0,0-1.182-.364v-.409h3.954v.409c-.864-.136-1.454.273-1.454,1.042v9.912h-1.636l-5.681-9.59v7.908a3.247,3.247,0,0,0,.095.682c.182.636.909.545,1.364.636v.364H121.7v-.364c.318-.136.818.045,1.136-.364a2.376,2.376,0,0,0,.273-.727v-8.454c-.045-.095-.095-.318-.136-.455-.182-.636-.909-.636-1.273-.591v-.409Zm-9.59,0c.318.818.591,1.636.909,2.454.227.636.5,1.318.727,1.954.136.318.273.727.409,1.091.591,1.545,1.091,3.182,1.863,4.772a.886.886,0,0,0,.409.409c.409.318.773.227,1.273.318v.364h-4.867v-.364c.455-.136,1.273.095,1.273-.682a14.759,14.759,0,0,0-.864-2.454h-4.363a11,11,0,0,0-.864,2.409c0,.682.773.682,1.318.727v.364h-4.136v-.364a2.28,2.28,0,0,1,.545-.095c1-.045,1.364-1.364,1.636-2,1.136-2.954,2.273-5.954,3.363-8.908Zm-14.59,0,5.363,9.136.045-7.545c-.045-.136-.095-.409-.136-.545-.182-.727-.909-.591-1.318-.636v-.409h3.954v.409c-.954-.045-1.454.318-1.454,1.091v9.863h-1.64l-5.681-9.59v7.818c.045.273,0,.773.227,1.042.364.409.818.227,1.231.364v.364H97.508v-.36c.364-.095.864.045,1.182-.409a1.527,1.527,0,0,0,.227-.636v-8.545a1.48,1.48,0,0,0-.273-.682,1.158,1.158,0,0,0-1.136-.318v-.409Zm-4.818,0,.136,2.454h-.5c.136-1.863-1.727-1.682-2.636-1.682-.773,0-1.727-.227-1.727.954v3.314h2.682c.727.095.954-.909.864-1.364h.455v3.545H94.83c.095-.591-.095-1.409-.909-1.409h-2.64v3.863a1.824,1.824,0,0,0,.136.682c.182.273,1.318.273,1.682.273,1.231,0,2.682.182,2.818-1.727h.409l.045.045c0,.227-.045,1.318-.045,2.409H88.008v-.36c.227-.095.727-.045,1-.227.227-.136.273-.5.409-.727v-8.727c.045-.682-.909-1.042-1.409-.909v-.409Zm-8.818,0V217.9h-.455a1.769,1.769,0,0,0-1.773-1.863H83.736v9.185c-.095.864.864,1.042,1.454,1.042v.364H80.418v-.364c.455-.045,1.409-.136,1.409-.909a1.13,1.13,0,0,1,.045-.364V216.04H80.554a2.389,2.389,0,0,0-.773.182,1.808,1.808,0,0,0-.954,1.682h-.409v-2.636Zm-17.362,0,5.363,9.09.045-7.681c-.045-.095-.095-.318-.136-.409-.182-.636-.909-.636-1.318-.591v-.409h3.95v.409c-1.045-.136-1.458.411-1.458,1.273v9.681H74.687L69.1,217.085h-.095v8.136c-.095.864.864,1.042,1.454,1.042v.364H66.51v-.36c.227-.095.727-.045,1-.227.227-.136.273-.5.409-.727V216.54c-.045-.682-.864-.954-1.409-.864v-.409Zm-4.227,0v.409c-1.091-.136-1.454.455-1.454,1.231V225a1.922,1.922,0,0,0,.227.909c.318.409.818.273,1.231.364v.364H60.874v-.367a5.561,5.561,0,0,0,.773-.136,1.24,1.24,0,0,0,.636-.864v-8.681c-.045-.095-.095-.273-.136-.364-.182-.591-.909-.591-1.273-.545v-.409Zm-11.045,0c.318.773.591,1.545.864,2.318.227.682.545,1.409.773,2.091.136.318.273.727.409,1.091.591,1.545,1.091,3.182,1.863,4.772a1.173,1.173,0,0,0,.409.409c.318.273.909.227,1.273.318v.364H55.283v-.364c.455-.136,1.273.095,1.273-.682a14.759,14.759,0,0,0-.864-2.454H51.329a9.423,9.423,0,0,0-.864,2.409c0,.773,1,.636,1.318.727v.364H47.648v-.364a2.28,2.28,0,0,1,.545-.095c1-.045,1.364-1.364,1.636-2,1.136-2.954,2.273-5.954,3.363-8.908Zm86.9.318a17.844,17.844,0,0,1,0,2.863H141.1a1.258,1.258,0,0,0-.136-.591c-.818-1.636-1.682-1.954-2.773-1.954-2.682,0-2.909,3.091-2.909,4.818,0,1.682.364,5.181,3.363,5.181a5.55,5.55,0,0,0,2.954-.864v1.136a7.7,7.7,0,0,1-3.227.636c-1.727,0-3.863-.364-4.681-2.954a13.407,13.407,0,0,1-.364-1.773V219.5c.591-3.818,2.273-4.363,4.863-4.363.721,0,1.018-.018,1.311.009a15.366,15.366,0,0,1,1.957.443ZM152.6,212.54l.136,3.045h-.591a2,2,0,0,0-2.091-2.091H147.6c-.545,0-.864.591-.864,1.042v4.272h3c.5.095,1.545-.455,1.364-1.136a2.593,2.593,0,0,0,.045-.591h.545v4.363h-.545c.045-.545-.182-1.682-1.091-1.682h-3.314v4.954c.095.273-.045.636.364.818a4.5,4.5,0,0,0,1.909.182c1.182,0,3.5.136,3.454-2.136h.591l-.136,3.045H142.64v-.5a1.777,1.777,0,0,0,1.454-.409,1.691,1.691,0,0,0,.318-.909v-10.45a.529.529,0,0,1-.095-.318c-.095-.954-1.136-1.042-1.682-1v-.5Zm-118.764,0,4.091,11.545,4.181-11.545h4.681v.5c-1.042-.045-1.818.227-1.818,1.318v10.408a1.789,1.789,0,0,0,.273.954c.409.455.954.409,1.545.409v.5H41.012v-.5c.409,0,1.136.045,1.5-.409a2.178,2.178,0,0,0,.318-.909l-.045-10.545-4.45,12.363h-1.5l-4.5-12.363v10.545a1.88,1.88,0,0,0,.227.864c.364.545,1.042.455,1.591.455v.5H29.24v-.5a1.668,1.668,0,0,0,1.454-.455c.227-.273.182-.727.318-1.042V214.449c-.136-.227-.095-.727-.318-1-.409-.545-1-.364-1.454-.409v-.5Z" transform="translate(-29.24 -212.54)" fill="#525452" fill-rule="evenodd"/>
</svg>
