<svg xmlns="http://www.w3.org/2000/svg" width="92.334" height="32.113" viewBox="0 0 92.334 32.113"><g transform="translate(-142.758 -365.617)"><path d="M-77.9,228.333c.071-.217.116-.343.151-.464a2.628,2.628,0,0,1,2.88-2.165q3.135-.013,6.264,0a2.594,2.594,0,0,1,2.873,2.41c.073.437.238.42.581.31a10.842,10.842,0,0,1,6.051-.383,10.7,10.7,0,0,1,3.914,1.95c.319.242.481.348.685-.149a2.3,2.3,0,0,1,2.27-1.51c3.848.033,7.7.03,11.544.175,3.26.123,5.342,1.952,6.18,5.143.023.091.062.178.135.382l.858-3.2c.5-1.875,1.344-2.533,3.27-2.537q3.657-.007,7.316,0c1.93,0,2.764.653,3.278,2.528a7.9,7.9,0,0,0,.533,1.51c0-.382-.015-.765,0-1.147a2.675,2.675,0,0,1,2.879-2.879q6.82-.059,13.64,0a2.652,2.652,0,0,1,2.88,2.977c0,1.3.01,2.592,0,3.888a4.717,4.717,0,0,1-.856,2.724c-1.121,1.6-2.214,3.218-3.351,4.806-.281.392-.2.491.206.671a7.707,7.707,0,0,1,4.8,6.716,2.709,2.709,0,0,1-2.881,3.143q-10.915.013-21.824,0a2.652,2.652,0,0,1-2.9-2.288,2.064,2.064,0,0,0-.067-.281c-.066-.17-.147-.334-.223-.5a4.441,4.441,0,0,0-.2.527,2.811,2.811,0,0,1-3.184,2.544c-4.005,0-8.012.026-12.014,0a10.952,10.952,0,0,1-1.742-.33,1.709,1.709,0,0,0-.581.008,11.1,11.1,0,0,1-1.691.321c-1.858.037-3.716.015-5.574,0a2.632,2.632,0,0,1-2.72-1.583c-.158-.381-.322-.122-.464-.012a9.6,9.6,0,0,1-4.877,2c-4.121.43-7.729-.506-10.335-4.006a2.184,2.184,0,0,0-.232-.238,1.871,1.871,0,0,0-.165.336c-.116.448-.207.906-.348,1.348a2.524,2.524,0,0,1-2.613,1.962q-4.616.022-9.229,0a2.555,2.555,0,0,1-2.731-2.256q-1.456-6.446-2.884-12.9c-.916-4.112-1.842-8.221-2.727-12.34a4.829,4.829,0,0,1-.044-1.825,2.105,2.105,0,0,1,1.656-1.765,10.074,10.074,0,0,1,8.612,1.547,7.884,7.884,0,0,1,2.822,4.2C-78.033,227.88-77.983,228.06-77.9,228.333Zm65.126,23.76H-1.864a1.591,1.591,0,0,0,1.8-1.879,6.71,6.71,0,0,0-5.31-6.174c-.736-.179-.743-.183-.316-.8q2.065-2.981,4.14-5.954a3.66,3.66,0,0,0,.679-2.177c0-1.314.01-2.629,0-3.948-.013-1.132-.535-1.7-1.67-1.706q-6.851-.029-13.7,0a1.532,1.532,0,0,0-1.727,1.73q-.037,2.377,0,4.754c.017,1.172.6,1.719,1.788,1.734.948.012,1.9,0,2.844,0a4.1,4.1,0,0,1,.5.062,3.246,3.246,0,0,1-.2.459q-1.812,2.871-3.636,5.732c-.122.19-.276.361-.415.54a5.564,5.564,0,0,1-.281-.68q-1.693-6.327-3.376-12.657c-.363-1.362-.763-1.685-2.156-1.691q-3.658-.015-7.316,0c-1.446,0-1.831.3-2.206,1.7-.52,1.94-1.025,3.885-1.542,5.827q-.745,2.8-1.51,5.6a3.352,3.352,0,0,1-.223.495,5.108,5.108,0,0,1-.273-.484c-.232-.533-.428-1.078-.669-1.606a.874.874,0,0,1,.078-.964,6.971,6.971,0,0,0,1.172-4.229c-.074-3.849-2.173-6.11-5.871-6.2-3.6-.085-7.2-.094-10.791-.124a1.427,1.427,0,0,0-1.563,1.494c-.028.464,0,.929-.015,1.387a1.143,1.143,0,0,1-.1.309,1.944,1.944,0,0,1-.238-.154c-.366-.316-.719-.648-1.09-.956a10.057,10.057,0,0,0-5.583-2.607,12.134,12.134,0,0,0-5.367,1c-.369.139-.747.254-1.121.381.063-.4.116-.8.189-1.189.307-1.535-.3-2.307-1.858-2.314q-2.961-.012-5.922,0A1.675,1.675,0,0,0-76.7,228.4c-.375,1.742-.726,3.484-1.094,5.219a2.628,2.628,0,0,1-.181.444,2.452,2.452,0,0,1-.157-.413c-.225-1.236-.481-2.466-.65-3.71-.337-2.468-1.223-4.586-3.445-5.951a8.975,8.975,0,0,0-6.374-1.058,1.564,1.564,0,0,0-1.485,2.151l5.62,25.3a1.653,1.653,0,0,0,1.937,1.563q4.323.008,8.648,0a1.646,1.646,0,0,0,1.931-1.51c.288-1.161.554-2.331.837-3.5.063-.258.159-.509.239-.763a6.731,6.731,0,0,1,.4.714c2.821,6.944,11.707,7.1,15.53,3.213.348-.359.677-.743,1.02-1.11a1.124,1.124,0,0,1,.221-.147,1.045,1.045,0,0,1,.075.262c.009.367,0,.735,0,1.1.012,1.393.5,1.881,1.9,1.888q2.756.012,5.513.02a1.984,1.984,0,0,0,1.781-.777c.177-.254.267-.167.408.027a1.787,1.787,0,0,0,1.613.735c.755-.021,1.51,0,2.264,0H-30a1.6,1.6,0,0,0,1.807-1.432,8.07,8.07,0,0,0,.232-1.076c.048-.456.247-.608.711-.6,1.439.012,1.44-.007,1.75,1.406.307,1.393.687,1.708,2.1,1.709Zm-3.927-10.342a2.067,2.067,0,0,0,.187-.207q.763-1.2,1.524-2.4c.2-.322-.038-.286-.232-.3-.69-.062-1.38-.137-2.07-.187-.062,0-.206.165-.192.223.219.881.458,1.758.7,2.635a2.36,2.36,0,0,0,.087.238Z" transform="translate(234 144)" fill="#525452"/><path d="M544.595,371.435a2.354,2.354,0,0,1-.1-.238c-.232-.877-.474-1.753-.7-2.635-.014-.058.13-.226.192-.223.7.05,1.381.125,2.07.187.2.019.44-.017.232.3q-.761,1.2-1.524,2.4A2.058,2.058,0,0,1,544.595,371.435Z" transform="translate(-327.301 14.315)" fill="#525452"/><path d="M-57.711,263.553c.354-1.71.718-3.42,1.066-5.131q.877-4.358,1.742-8.722a.737.737,0,0,1,.833-.69q2.756.028,5.512,0c.438,0,.593.116.485.574q-2.418,10.24-4.835,20.473c-.186.788-.363.918-1.152.918h-7.485c-.83,0-.96-.116-1.137-.9q-2.691-12.077-5.385-24.153c-.17-.762-.178-.791.6-.885a6.65,6.65,0,0,1,5.962,1.832,6.947,6.947,0,0,1,1.626,4.006c.5,3.336,1.022,6.668,1.547,10,.139.891.319,1.774.482,2.66Z" transform="translate(213.598 123.372)" fill="#525452"/><path d="M245.834,312.113c0-3.019.013-6.038-.014-9.057,0-.506.146-.69.635-.686,3.368.027,6.728-.014,10.089.094a4.232,4.232,0,0,1,3.57,1.609c1.079,1.521,1.2,4.733.093,6.234a8.672,8.672,0,0,1-1.765,1.439,3.631,3.631,0,0,1-.331.209,1.683,1.683,0,0,0,.319.175,3.043,3.043,0,0,1,2.131,2.771c.3,2.2.531,4.4.769,6.61.01.1-.2.309-.3.31-1.759.019-3.52.016-5.28.01-.437,0-.6-.3-.656-.675-.186-1.219-.362-2.439-.547-3.66-.072-.476-.124-.957-.232-1.424a1.322,1.322,0,0,0-1.644-1.085c-.4.047-.492.26-.491.626.012,1.858-.009,3.716.013,5.574.006.49-.109.672-.641.661-1.7-.035-3.4-.03-5.109,0-.493.009-.613-.152-.61-.625.019-3.037.009-6.073.009-9.11Zm6.3-3.44h0v1.161c0,.735.046.775.8.718a1.913,1.913,0,0,0,1.843-2.447,1.772,1.772,0,0,0-2.371-1.219.465.465,0,0,0-.253.348C252.111,307.709,252.132,308.192,252.132,308.674Z" transform="translate(-63.922 72.624)" fill="#525452"/><path d="M102.138,317.589c-4.367,0-7.416-2.461-8.22-6.716a6.1,6.1,0,0,1,.043-2.347q.907-4.24,1.983-8.442a2.831,2.831,0,0,1,.92-1.41,8.061,8.061,0,0,1,12.615,3.535,14.21,14.21,0,0,1-.064,10.465A7.377,7.377,0,0,1,102.138,317.589Zm1.637-9.307c-.185-1.8-.321-3.438-.533-5.062a1.3,1.3,0,0,0-2.552-.07,33.148,33.148,0,0,0-.489,4.521,20.571,20.571,0,0,0,.43,3.724,1.286,1.286,0,0,0,1.332,1.144,1.238,1.238,0,0,0,1.283-1.11C103.475,310.338,103.62,309.23,103.775,308.282Z" transform="translate(70.424 77.457)" fill="#525452"/><path d="M401.375,322.311c-.929,0-1.858-.009-2.781,0-.908.012-1.057-.116-1.209-1.016-.082-.493-.2-.98-.317-1.467a.721.721,0,0,0-.788-.612c-1.081.012-2.162.007-3.244,0a.709.709,0,0,0-.776.621q-.181.846-.377,1.692a.82.82,0,0,1-.929.733c-1.626-.035-3.251-.024-4.877,0-.409.006-.54-.071-.424-.505q2.458-9.242,4.89-18.491a.484.484,0,0,1,.557-.426q3.769.022,7.541,0c.4,0,.516.178.6.513q1.837,6.957,3.693,13.907.573,2.152,1.145,4.3c.179.668.165.691-.509.7h-2.206Zm-6.707-7.95c.289,0,.581-.019.867,0,.372.031.52-.07.447-.478-.369-2.045-.716-4.094-1.078-6.141a1.245,1.245,0,0,0-.145-.305,1.316,1.316,0,0,0-.168.319q-.524,2.631-1.032,5.267C393.3,314.36,393.311,314.363,394.667,314.361Z" transform="translate(-187.48 72.209)" fill="#525452"/><path d="M560.289,302.805c2.108,0,4.216.021,6.324-.014.556-.009.675.177.658.686-.034,1.121.027,2.245-.029,3.367a2.578,2.578,0,0,1-.4,1.277c-1.911,2.787-3.862,5.552-5.8,8.325a5.692,5.692,0,0,0-.323.6,4.974,4.974,0,0,0,.71.1,9.018,9.018,0,0,1,3.367.412,5.088,5.088,0,0,1,3.146,4.256c.086.492-.281.4-.555.4h-8.818q-1.8,0-3.593.059a1.211,1.211,0,0,1-1.277-.862,4.961,4.961,0,0,1,.514-4.944c1.719-2.636,3.4-5.3,5.107-7.942a3.7,3.7,0,0,0,.243-.569,4.81,4.81,0,0,0-.614-.078c-1.681-.007-3.367-.02-5.047.006-.489.007-.685-.107-.67-.64.037-1.277.029-2.555,0-3.832-.01-.464.106-.633.609-.627C555.993,302.821,558.138,302.805,560.289,302.805Z" transform="translate(-335.637 72.254)" fill="#525452"/></g></svg>