<svg xmlns="http://www.w3.org/2000/svg" width="97" height="33.585" viewBox="0 0 97 33.585"><g transform="translate(-101 -391)"><path d="M-126.1,276.825l-6.133-.381c-.258-9.709-.516-19.383-.77-29.113h6.582v11.836a.974.974,0,0,0,.09.52c.2.28.524.177.743-.22q2.132-3.84,4.261-7.682l2.646-4.784,4.876,5.747c-.717,1.089-1.416,2.177-2.141,3.247q-1.463,2.164-2.959,4.307c-.9,1.282-.9,1.893.009,3.173q2.748,3.848,5.475,7.7c.064.088.12.181.2.3l-5.017,5.769c-.408-.73-.793-1.41-1.171-2.089q-3.028-5.477-6.061-10.951a1.915,1.915,0,0,0-.424-.4,1.882,1.882,0,0,0-.195.569q-.018,5.855-.009,11.71Z" transform="translate(234 144)" fill="#525452"/><path d="M51.805,294.844a11.117,11.117,0,0,1-2.946,7.729,10,10,0,0,1-8.847,3.023,14.7,14.7,0,0,1-3.091-.68,6.888,6.888,0,0,1-4.472-4.515,13.044,13.044,0,0,1-.043-8.676c1.384-3.918,4.3-5.951,8.355-6.478a12.092,12.092,0,0,1,4.684.275,7.891,7.891,0,0,1,6.037,6.6C51.659,293.018,51.7,293.937,51.805,294.844Zm-5.906.514a10.412,10.412,0,0,0-.964-4.109,3.406,3.406,0,0,0-5.2-1.539,6.112,6.112,0,0,0-2.681,5.633,14.4,14.4,0,0,0,.965,4.033,2.817,2.817,0,0,0,2.793,2.157,4.988,4.988,0,0,0,4.3-2.705A7.918,7.918,0,0,0,45.9,295.359Z" transform="translate(87.421 110.058)" fill="#525452"/><path d="M586.178,294.613c-.167,4.4-1.8,7.766-5.555,9.9a9.6,9.6,0,0,1-5.953,1.061,16.425,16.425,0,0,1-3.054-.6,7.241,7.241,0,0,1-5.13-5.51,12.721,12.721,0,0,1,.789-8.986,9.527,9.527,0,0,1,7.74-5.257,12.054,12.054,0,0,1,4.791.265,7.991,7.991,0,0,1,6.094,6.751C586.062,293.08,586.1,293.943,586.178,294.613Zm-14.756.595c.177,1.059.29,2.133.55,3.172a4.116,4.116,0,0,0,1.947,2.741,3.97,3.97,0,0,0,5.432-1.869c1.438-2.813,1-5.607-.226-8.339a3.121,3.121,0,0,0-2.309-1.785,3.8,3.8,0,0,0-3.488,1.166A6.8,6.8,0,0,0,571.422,295.208Z" transform="translate(-388.178 110.091)" fill="#525452"/><path d="M247.127,306.376l-13.24-11c-.019.308-.041.51-.041.712,0,2.968-.012,5.936.008,8.9,0,.473-.11.646-.611.629-1.042-.037-2.089-.01-3.132-.013-.179,0-.358-.019-.561-.031V285.635l13,9.775v-9.93h4.581Z" transform="translate(-88.694 109.75)" fill="#525452"/><path d="M417.2,279.636c-1.421.776-2.826,1.521-4.207,2.309a20.724,20.724,0,0,0-2.214,1.424A4.941,4.941,0,0,0,409.073,289a4.26,4.26,0,0,0,4.586,2.449c.122-.029.256-.315.259-.485.024-1.081.032-2.162,0-3.242-.013-.531.18-.77.716-.8.989-.057,1.966-.195,2.951-.22a1.319,1.319,0,0,1,1.562,1.274,28.548,28.548,0,0,1,.146,6.841,1.449,1.449,0,0,1-1.319,1.41c-1.853.151-3.717.279-5.575.269a16.992,16.992,0,0,1-3.306-.463,7.322,7.322,0,0,1-6.03-6.186c-.919-4.362.643-7.86,3.793-10.782a19.394,19.394,0,0,1,7.938-4.177c.915-.27,1.337.038,1.539.957C416.606,277.09,416.9,278.333,417.2,279.636Z" transform="translate(-242.901 119.263)" fill="#525452"/><path d="M162.852,500.221a20.611,20.611,0,0,1-8.117,4.03,51.53,51.53,0,0,1-11.715,1.581,94.068,94.068,0,0,1-16.406-1.114c-4.485-.652-8.952-1.44-13.444-2.048-2.933-.4-5.89-.7-8.846-.821-2.588-.1-5.189.11-7.784.187-.383.011-.77,0-1.192,0-.11-.276-.068-.44.295-.483,4.087-.463,8.164-1.1,12.264-1.347a87.331,87.331,0,0,1,10.26.133c4.547.263,9.079.759,13.622,1.1s9.088.66,13.632.9a48.068,48.068,0,0,0,14.7-1.35C161.035,500.754,161.941,500.48,162.852,500.221Z" transform="translate(30.803 -81.281)" fill="#525452"/></g></svg>