<svg xmlns="http://www.w3.org/2000/svg" width="111.859" height="41.219" viewBox="0 0 111.859 41.219">
  <g id="Logo-KongoGold" transform="translate(262 11)">
    <path id="Trazado_1167" data-name="Trazado 1167" d="M511.137,317.64v21.446H504.15V317.64ZM530,339.086h-8.982l-9.688-11.717,8.917-9.722h8.818l-9.526,9.271Zm7.251-.693c-6.888,0-10.975-2.993-10.975-8.047s4.087-8.047,10.975-8.047,11.009,3.024,11.009,8.047-4.118,8.041-11.009,8.041Zm0-12.65c-2.542,0-3.991,1.706-3.991,4.6s1.448,4.637,3.991,4.637,4.04-1.706,4.04-4.637-1.495-4.609-4.04-4.609Zm25.284,12V330.7c0-2.486-.712-4.32-3.049-4.32s-3.13,1.3-3.13,4.056v7.307h-6.776V322.936h6.76v2.157c1.4-1.815,3.18-2.577,5.986-2.577,2.639,0,4.861,1,5.89,2.642.87,1.383,1.063,2.35,1.063,5.567v7.018Zm28.594-14.807v11.876c0,8.435-6.316,9.265-10.633,9.265-4.438,0-9.293-1.358-9.293-5.3h6.888c.034,1.414.9,2.176,2.707,2.176,2.486,0,3.571-1.38,3.571-4.18v-1.483a8.528,8.528,0,0,1-6.148,2.253c-4.973,0-7.789-2.608-7.789-7.276,0-4.8,3.108-7.77,8.239-7.77,2.735,0,4.351.581,5.89,2.095v-1.675Zm-10.173,3.027c-2.219,0-3.571,1.448-3.571,3.926,0,2.673,1.243,4.249,3.378,4.249,2.253,0,3.636-1.61,3.636-4.183.006-2.48-1.312-3.991-3.437-3.991ZM603.263,338.4c-6.887,0-10.975-2.993-10.975-8.047s4.087-8.047,10.975-8.047,11.009,3.024,11.009,8.047-4.112,8.037-11,8.037Zm0-12.65c-2.542,0-3.991,1.706-3.991,4.6s1.448,4.637,3.991,4.637,4.04-1.706,4.04-4.637-1.492-4.612-4.034-4.612Z" transform="translate(-765.699 -328.64)" fill="#525452"/>
    <path id="Trazado_1168" data-name="Trazado 1168" d="M855.5,335.8a1.1,1.1,0,1,1,1.1,1.106,1.091,1.091,0,0,1-1.1-1.106Zm1.1.932a.932.932,0,1,0-.886-.932.886.886,0,0,0,.886.923Zm-.208-.329h-.177v-1.181h.444c.277,0,.41.1.41.336a.311.311,0,0,1-.311.326l.333.519h-.2l-.311-.51h-.2Zm.211-.662c.149,0,.283,0,.283-.193s-.131-.174-.255-.174h-.239v.351Z" transform="translate(-1007.847 -340.398)" fill="#525452"/>
    <path id="Trazado_1169" data-name="Trazado 1169" d="M522.157,402.915V411.2l-.656.171a39.223,39.223,0,0,1-5.184.8c-1.016.1-2.011.146-2.956.146-3.294,0-5.573-.485-7.316-1.6a7.738,7.738,0,0,1-3.344-6.713,8.363,8.363,0,0,1,3.108-6.71c1.89-1.433,4.351-2.086,7.73-2.086,3.9,0,6.275.932,7.73,3.03a4.2,4.2,0,0,1,.9,2.446h-5.654c-.264-1.526-1.4-2.328-3.391-2.328-3.005,0-4.845,2.11-4.845,5.5,0,3.465,1.89,5.33,5.427,5.33a11.026,11.026,0,0,0,3.369-.507v-2.8h-4.143v-2.971Z" transform="translate(-764.7 -382.101)" fill="#525452"/>
    <path id="Trazado_1170" data-name="Trazado 1170" d="M577.781,423.4c-5.184,0-8.261-2.253-8.261-6.058s3.077-6.058,8.261-6.058,8.286,2.278,8.286,6.058S582.966,423.4,577.781,423.4Zm0-9.523c-1.915,0-3.005,1.284-3.005,3.465s1.091,3.49,3.005,3.49,3.03-1.287,3.03-3.49S579.7,413.872,577.781,413.872Z" transform="translate(-810.752 -393.176)" fill="#525452"/>
    <path id="Trazado_1171" data-name="Trazado 1171" d="M633.158,412.917H628.07V396.78h5.088Z" transform="translate(-851.104 -383.183)" fill="#525452"/>
    <path id="Trazado_1172" data-name="Trazado 1172" d="M665.665,396.78V410.5c0,.7,0,1.066.047,1.79l.025.622h-5.088l-.025-.485-.025-.507-.022-.342a6.127,6.127,0,0,1-4.581,1.65c-3.876,0-6.216-2.157-6.216-5.719,0-3.925,2.449-6.216,6.617-6.216a6.106,6.106,0,0,1,4.193,1.455V396.78Zm-7.8,7.1c-1.768,0-2.859,1.309-2.859,3.441,0,2.085,1.044,3.344,2.716,3.344,1.79,0,2.931-1.333,2.931-3.441C660.649,405.187,659.558,403.879,657.861,403.879Z" transform="translate(-866.066 -383.183)" fill="#525452"/>
  </g>
</svg>
