<svg xmlns="http://www.w3.org/2000/svg" width="131.34" height="36.449" viewBox="0 0 131.34 36.449">
  <g id="Grupo_1050" data-name="Grupo 1050" transform="translate(-551.228 -6467.036)">
    <g id="g12" transform="translate(606.168 6480.277)">
      <path id="path14" d="M-1.6-3.779a1.306,1.306,0,0,1-1.06.243.611.611,0,0,1-.159-1.022c7.333-4.047,15.382-2.859,20.006.073.106.067.543.515.2.895a.845.845,0,0,1-.961.024C9.873-6.979,3.909-6.778-1.6-3.779" transform="translate(3.029 7.16)" fill="#525252" fill-rule="evenodd"/>
    </g>
    <g id="g16" transform="translate(604.912 6477.89)">
      <path id="path18" d="M-3.151-1.9A20.926,20.926,0,0,1,3.615-3.537a24.155,24.155,0,0,1,5.793.281,20.987,20.987,0,0,1,5.525,1.77,7.972,7.972,0,0,1,1.748.992.83.83,0,0,1,.281,1c-.185.638-.929.58-1.374.322C9.288-2.82,1.718-2.44-4.632.808c-.388.2-1.058.229-1.264-.3-.3-.762.344-1.269.949-1.66.089-.057-.084.052,0,.005A12.591,12.591,0,0,1-3.151-1.9" transform="translate(5.97 3.603)" fill="#525252" fill-rule="evenodd"/>
    </g>
    <g id="g20" transform="translate(600.054 6470.295)">
      <path id="path22" d="M-2.556-5.11A2.286,2.286,0,0,0-.27-7.4,2.285,2.285,0,0,0-2.556-9.681,2.285,2.285,0,0,0-4.843-7.4,2.286,2.286,0,0,0-2.556-5.11" transform="translate(4.843 9.681)" fill="#525252" fill-rule="evenodd"/>
    </g>
    <g id="g24" transform="translate(602.43 6475.123)">
      <path id="path26" d="M-2.557-5.111A2.287,2.287,0,0,0-.271-7.4,2.287,2.287,0,0,0-2.557-9.683,2.287,2.287,0,0,0-4.844-7.4,2.287,2.287,0,0,0-2.557-5.111" transform="translate(4.844 9.683)" fill="#525252" fill-rule="evenodd"/>
    </g>
    <g id="g28" transform="translate(607.983 6473.191)">
      <path id="path30" d="M-2.555-5.111A2.285,2.285,0,0,0-.27-7.4,2.286,2.286,0,0,0-2.555-9.684,2.286,2.286,0,0,0-4.841-7.4,2.285,2.285,0,0,0-2.555-5.111" transform="translate(4.841 9.684)" fill="#525252" fill-rule="evenodd"/>
    </g>
    <g id="g32" transform="translate(606.775 6467.881)">
      <path id="path34" d="M-2.557-5.111A2.286,2.286,0,0,0-.271-7.4,2.287,2.287,0,0,0-2.557-9.684,2.287,2.287,0,0,0-4.844-7.4,2.286,2.286,0,0,0-2.557-5.111" transform="translate(4.844 9.684)" fill="#525252" fill-rule="evenodd"/>
    </g>
    <g id="g36" transform="translate(613.896 6472.225)">
      <path id="path38" d="M-2.556-5.113A2.286,2.286,0,0,0-.271-7.4,2.286,2.286,0,0,0-2.556-9.687,2.287,2.287,0,0,0-4.843-7.4,2.287,2.287,0,0,0-2.556-5.113" transform="translate(4.843 9.687)" fill="#525252" fill-rule="evenodd"/>
    </g>
    <g id="g40" transform="translate(613.896 6467.036)">
      <path id="path42" d="M-2.556-5.113A2.286,2.286,0,0,0-.271-7.4,2.287,2.287,0,0,0-2.556-9.687,2.288,2.288,0,0,0-4.843-7.4,2.287,2.287,0,0,0-2.556-5.113" transform="translate(4.843 9.687)" fill="#525252" fill-rule="evenodd"/>
    </g>
    <g id="g44" transform="translate(619.929 6472.951)">
      <path id="path46" d="M-2.557-5.11A2.286,2.286,0,0,0-.273-7.4,2.285,2.285,0,0,0-2.557-9.681,2.285,2.285,0,0,0-4.845-7.4,2.287,2.287,0,0,0-2.557-5.11" transform="translate(4.845 9.681)" fill="#525252" fill-rule="evenodd"/>
    </g>
    <g id="g48" transform="translate(621.016 6467.881)">
      <path id="path50" d="M-2.555-5.111A2.286,2.286,0,0,0-.269-7.4,2.286,2.286,0,0,0-2.555-9.684,2.286,2.286,0,0,0-4.841-7.4,2.286,2.286,0,0,0-2.555-5.111" transform="translate(4.841 9.684)" fill="#525252" fill-rule="evenodd"/>
    </g>
    <g id="g52" transform="translate(625.662 6475.123)">
      <path id="path54" d="M-2.555-5.111A2.286,2.286,0,0,0-.269-7.4,2.286,2.286,0,0,0-2.555-9.683,2.286,2.286,0,0,0-4.841-7.4,2.286,2.286,0,0,0-2.555-5.111" transform="translate(4.841 9.683)" fill="#525252" fill-rule="evenodd"/>
    </g>
    <g id="g56" transform="translate(627.835 6470.295)">
      <path id="path58" d="M-2.556-5.11A2.287,2.287,0,0,0-.27-7.4,2.285,2.285,0,0,0-2.556-9.681,2.285,2.285,0,0,0-4.843-7.4,2.287,2.287,0,0,0-2.556-5.11" transform="translate(4.843 9.681)" fill="#525252" fill-rule="evenodd"/>
    </g>
    <g id="g60" transform="translate(577.959 6486.584)">
      <path id="path62" d="M-2.689-.243A5.285,5.285,0,0,1-.808,1.407c1,1.051,1.862,2.114,2.948,3.085a.3.3,0,0,0,.32,0A29.3,29.3,0,0,1,6.637-.131,1.753,1.753,0,0,1,9.348.9a1.877,1.877,0,0,1-.383,1.574C7.355,4.593,5.793,6.345,4.176,8.344c-.045,2.2,0,4.066,0,6.381a1.893,1.893,0,0,1-1.809,1.614,1.693,1.693,0,0,1-1.485-.824,2.125,2.125,0,0,1-.276-.868C.524,12.556.427,10.468.432,8.374-1.884,5.417-4.953,2.815-5.081,1.727A1.729,1.729,0,0,1-2.689-.243" transform="translate(5.095 0.46)" fill="#525252" fill-rule="evenodd"/>
    </g>
    <g id="g64" transform="translate(603.986 6486.481)">
      <path id="path66" d="M-4.253-14.725V-25.919a1.9,1.9,0,1,0-3.8-.067v13.933s0,1.162,1.4,1.054h6.2a1.825,1.825,0,0,0,1.89-1.729A1.949,1.949,0,0,0-.037-14.585L-4.061-14.6a.271.271,0,0,1-.2-.337Z" transform="translate(8.058 27.898)" fill="#525252" fill-rule="evenodd"/>
    </g>
    <g id="g68" transform="translate(588.043 6486.474)">
      <path id="path70" d="M-15.25-16.856a1.818,1.818,0,0,1-1.967,1.828c-.1-.007.074.016,0,0a1.75,1.75,0,0,1-1.643-1.368,18.549,18.549,0,0,1-.184-1.937c-.005-.04-4.6-.012-4.6-.012a31.675,31.675,0,0,1-2.329,3.024,1.291,1.291,0,0,1-.954.305A1.974,1.974,0,0,1-28.7-16.169a1.487,1.487,0,0,1-.013-1.415c2.163-3.111,4.107-5.712,6.337-8.732,1.232-1.67,2.328-3.148,3.59-4.757a1.971,1.971,0,0,1,1.8-.863,1.688,1.688,0,0,1,1.733,1.466v13.606L-19.835-22a7.02,7.02,0,0,0,.805,0c.031-.882,0-1.931-.013-2.781-.659.868-1.2,1.636-1.831,2.484-.063.084-.1.271.084.283.337.021.779-.014.954.013Z" transform="translate(28.893 31.936)" fill="#525252" fill-rule="evenodd"/>
    </g>
    <g id="g72" transform="translate(562.721 6486.629)">
      <path id="path74" d="M-18.839-9.42A8.427,8.427,0,0,1-27.268-.993,8.425,8.425,0,0,1-35.693-9.42a8.424,8.424,0,0,1,8.426-8.427A8.427,8.427,0,0,1-18.839-9.42Zm-8.4-4.524A4.523,4.523,0,0,0-31.76-9.42,4.522,4.522,0,0,0-27.237-4.9,4.523,4.523,0,0,0-22.715-9.42a4.523,4.523,0,0,0-4.522-4.524" transform="translate(35.693 17.847)" fill="#525252" fill-rule="evenodd"/>
    </g>
    <g id="g76" transform="translate(618.476 6486.719)">
      <path id="path78" d="M-.077-8.126a8.389,8.389,0,0,1,5.016-6.612,7.877,7.877,0,0,1,9.248,2.184,1.613,1.613,0,0,1-.112,2,1.649,1.649,0,0,1-1.881.688c-1.131-.44-1.912-1.453-3.169-1.714a4.494,4.494,0,0,0-5.4,3.705,4.62,4.62,0,0,0,3.6,5.393c1.786.339,3.19-.627,4.659-1.663a1.619,1.619,0,0,1,2.292.631,1.7,1.7,0,0,1,.138,1.656c-1.2,2.121-3.641,2.882-5.895,3.1A7.709,7.709,0,0,1,3.64-.091,8.136,8.136,0,0,1-.077-8.126" transform="translate(0.146 15.395)" fill="#525252" fill-rule="evenodd"/>
    </g>
    <g id="g80" transform="translate(648.585 6486.57)">
      <path id="path82" d="M-.042-16.97s-.218,1.476,1.834,1.657a1.792,1.792,0,0,0,1.829-1.658v-7.86c0-.086.15-.187.2-.106l4.911,8.809a2.084,2.084,0,0,0,1.751.785,2.392,2.392,0,0,0,2.458-1.629l.035-.574v-13.2a1.864,1.864,0,0,0-3.607-.009v7.738s.011.272-.154.241c-1.6-2.7-3-5.537-4.687-8.3A2.613,2.613,0,0,0,1.59-32,2.622,2.622,0,0,0,.122-30.61a1.387,1.387,0,0,0-.2.694v12.853Z" transform="translate(0.079 32.152)" fill="#525252" fill-rule="evenodd"/>
    </g>
    <g id="g84" transform="translate(634.11 6486.44)">
      <path id="path86" d="M0-16.849V-30.456A1.687,1.687,0,0,1,1.73-31.923a1.975,1.975,0,0,1,1.8.864C4.8-29.45,5.891-27.971,7.125-26.3c2.229,3.021,4.173,5.622,6.336,8.734a1.481,1.481,0,0,1-.013,1.414A1.968,1.968,0,0,1,11.674-15a1.284,1.284,0,0,1-.954-.3,32.1,32.1,0,0,1-2.333-3.023s-4.6-.031-4.6.011A18.112,18.112,0,0,1,3.6-16.38a1.748,1.748,0,0,1-1.643,1.368c-.072.013.1-.01,0,0A1.818,1.818,0,0,1,0-16.842L5.534-22c.185-.011.147-.2.084-.282-.633-.849-1.173-1.617-1.831-2.485-.016.852-.044,1.9-.011,2.781a6.477,6.477,0,0,0,.8,0c.175-.026.618.008.954-.013Z" transform="translate(0.004 31.923)" fill="#525252" fill-rule="evenodd"/>
    </g>
    <g id="g88" transform="translate(669.512 6486.545)">
      <path id="path90" d="M-.042-16.971S-.26-15.5,1.792-15.314a1.793,1.793,0,0,0,1.83-1.66v-7.86c0-.085.15-.188.2-.106l4.911,8.809a2.078,2.078,0,0,0,1.749.786,2.393,2.393,0,0,0,2.46-1.629l.035-.574v-13.2a1.865,1.865,0,0,0-3.609-.009v7.739s.013.271-.153.24c-1.6-2.7-3-5.536-4.687-8.3a2.612,2.612,0,0,0-2.939-.92A2.634,2.634,0,0,0,.12-30.613a1.391,1.391,0,0,0-.2.694v12.853Z" transform="translate(0.079 32.154)" fill="#525252" fill-rule="evenodd"/>
    </g>
    <g id="g92" transform="translate(663.636 6488.519)">
      <path id="path94" d="M0,0V12.914a1.792,1.792,0,0,0,1.9,1.9,1.89,1.89,0,0,0,2.022-1.841Z" transform="translate(0.001)" fill="#525252" fill-rule="evenodd"/>
    </g>
    <g id="g96" transform="translate(663.638 6486.678)">
      <path id="path98" d="M-4.384-16.561V-29.475a1.792,1.792,0,0,0-1.9-1.9,1.89,1.89,0,0,0-2.021,1.842Z" transform="translate(8.307 31.377)" fill="#525252" fill-rule="evenodd"/>
    </g>
    <g id="g100" transform="translate(551.228 6486.637)">
      <path id="path102" d="M-1.628-1.637A5.148,5.148,0,0,1,1.633-3.066,5.729,5.729,0,0,1,4.475-2.6a5.563,5.563,0,0,1,3.441,5.86A6.313,6.313,0,0,1,5.728,7.127C6.8,9.508,8.815,11.064,8.5,12.244a1.62,1.62,0,0,1-1.167,1.344,1.549,1.549,0,0,1-1.508-.182C3.952,11.814,2.966,9.515,1.392,7.871,1,7.463.826,7.645.827,7.866.835,9.794.849,11.228.75,12.171a2.131,2.131,0,0,1-.956,1.4,1.8,1.8,0,0,1-2.548-1.235A22.817,22.817,0,0,1-3.08,7.273c-.008-1.971,0-2.4,0-5.53a4.657,4.657,0,0,1,1.452-3.38ZM2.394,4.3A1.87,1.87,0,0,0,4.335,2.51,1.87,1.87,0,0,0,2.394.719,1.871,1.871,0,0,0,.452,2.51,1.871,1.871,0,0,0,2.394,4.3" transform="translate(3.084 3.102)" fill="#525252" fill-rule="evenodd"/>
    </g>
    <rect id="rect590" width="4.873" height="3.474" transform="translate(596.517 6496.431)" fill="#525252"/>
    <rect id="rect590-1" width="3.213" height="2.816" transform="translate(598.473 6498.737)" fill="#525252"/>
    <rect id="rect607" width="5.342" height="3.527" transform="translate(635.172 6496.405)" fill="#525252"/>
    <rect id="rect607-3" width="3.212" height="3.344" transform="translate(634.11 6498.176)" fill="#525252"/>
    <rect id="rect624" width="3.922" height="12.974" transform="translate(663.638 6488.521)" fill="#525252"/>
  </g>
</svg>
