<svg xmlns="http://www.w3.org/2000/svg" width="90.953" height="35.485" viewBox="0 0 90.953 35.485">
  <path id="Logo-Agility" d="M188.429,274.214c.412.091.5.274.5.549,0,.046-.091.5-.366.5h-3.978c-.412-.19-.32-.412-.32-.549,0-.274.046-.5.457-.5Zm-10.609,0c.274-.046.5.366.5.549,0,.046-.191.5-.412.5H140.186c-.412-.137-.32-.32-.32-.549,0-.366-.091-.366.412-.5Zm-57.48,0c.32-.046.457.366.457.549a.688.688,0,0,1-.271.511H110.047c-.412-.137-.32-.32-.32-.549s-.091-.412.412-.5Zm12.85-18.291c1.463.366,1.6,2.1,1.6,2.972,0,1.6-.64,4.436-3.2,4.436a7.429,7.429,0,0,1-.823-.091c-.091,0-.191-.091-.274-.091-.915-.229-1.463-1.692-1.463-2.424v-1.1l.137-.953a3.641,3.641,0,0,1,2.286-2.744h.869a2.652,2.652,0,0,1,.869-.008Zm30.043-2.477v.5a19.868,19.868,0,0,0-.408,2.888c-.046.915-.32,1.875-.412,2.835-.191,1.463-.32,3.018-.549,4.527-.191,1.235-.412,3.8-.412,3.933,0,.091-.137.5-.191.823-.091.64-.137,1.418-.274,2.1-.046.366-.953,1.555-1.509,1.555h-2.694v-.686l2.332-18.482ZM135.75,253.4H146.4c1.235.366,1.418.953,1.418,1.783,0,1.646-.549,3.8-.686,5.4-.191,2.195-.5,4.344-.823,6.493-.191,1.143-.229,2.424-.412,3.658a2.935,2.935,0,0,1-.366.915c-.046.092-.953.953-1.28.953H141.6l2.149-17.468c.046-.191-.229-.366-.366-.549h-1.235c-1.783.32-3.933,1.1-4.71,2.515v.229c.274-.191.32-.412.64-.412.594,0,.64,2.789.64,2.835,0,4.3-3.384,6.31-6.813,6.31-.091,0-1.334-.091-1.418-.091-.549,0-2.149.549-2.149,1.6,0,3.064,10.655-.777,10.655,7.362,0,4.382-4.573,5.99-8.414,6.219a15.772,15.772,0,0,0-2.058,0,4,4,0,0,0-.732-.091,14.768,14.768,0,0,1-1.509-.274c-1.418-.32-3.75-1.372-4.382-3.239a2.811,2.811,0,0,1-.137-.5v-2.233c.869-2.195,2.149-3.2,3.841-3.2a2.919,2.919,0,0,1,.64,0c.091,0,1.334.366,1.334.777,0,.777-2.195.732-2.195,3.2a2.281,2.281,0,0,0,.091.915c.823,1.555,2.835,1.738,4.116,1.738,1.692,0,5.076-.366,5.579-2.881v-.915c-.32-1.418-1.966-1.6-2.972-1.829-1.143-.274-2.378-.32-3.521-.594a9.844,9.844,0,0,1-1.235-.457c-.366-.091-2.607-1.418-2.607-2.332v-1.372c.137-1.235,1.829-2.195,2.881-2.881-.046-.046-.091-.046-.137-.091-.915-.091-2.477-2.927-2.477-3.75v-2.744a4.965,4.965,0,0,1,.366-1.28,6.586,6.586,0,0,1,6.585-4.024c1.73,0,2.191.32,3.7.32Zm-20.715-1.41,1.829,9.877h-6.173c1.463-3.521,3.2-7.271,4.344-10.746C115.035,251.35,115.173,251.716,115.035,251.99Zm56.291,1.372h8.094a3.461,3.461,0,0,0,.046.686c.953,4.8,2.195,9.877,2.835,14.724,1.463-5.122,4.024-10.2,6.082-15.365h4.344s.046-.046.046.091c0,.32-1.509,3.292-1.783,3.887-1.692,3.658-3.292,7.545-5.076,11.341-3.109,6.4-4.116,12.438-10.479,12.438a5.786,5.786,0,0,1-1.28-.137,3.319,3.319,0,0,1-1.006-.191c-.191-.046-.091-.366-.091-.412-.046-.191-.046-.366-.091-.549-.046-.686-.191-2.012-.191-2.1a.343.343,0,0,1,.046-.229,15.863,15.863,0,0,0,2.058.274,3.769,3.769,0,0,0,3.11-1.6c.366-.594,1.829-2.789,1.829-3.62a5.906,5.906,0,0,0-.274-1.189c-.229-.869-.5-1.738-.64-2.607-.229-1.372-.732-2.972-1.006-4.3-.191-.915-.32-1.783-.549-2.606-.549-2.149-1.189-4.344-1.555-6.585-.046,0-.046-.046-.091-.091-.32.64-.64,1.334-1.372,1.334h-3.369L169.627,267.8a1.689,1.689,0,0,0,1.829,1.875,10.292,10.292,0,0,0,2.332-.549h.278l.137,2.286c.191,1.372-2.744,1.555-3.521,1.555-3.7,0-5.259-2.1-5.259-5.167l1.372-11.158s0-.091-.137-.091h-1.738v-.549a12.348,12.348,0,0,1,.366-2.607h1.921l.5-4.253h4.116Zm-53.5-6.082,4.763,23.687c.091.457-.64,1.646-1.372,1.646h-2.431l-1.052-5.907c-.091-.366-.191-.777-.274-1.143h-8.193a55.283,55.283,0,0,0-2.652,5.807c-.091.229-1.143,1.235-1.555,1.235H101.82v-.229c3.567-8.048,7.911-17.788,10.746-24.144a4.191,4.191,0,0,1,.594-.953Zm46.323,1.052a1.967,1.967,0,0,1-1.646,2.195,3.478,3.478,0,0,1-.64.046,3.238,3.238,0,0,1-.64-.046,1.746,1.746,0,0,1-.732-.274c-.137-.046-.869-.732-.869-.953v-1.738a2.16,2.16,0,0,1,2.332-1.418A1.933,1.933,0,0,1,164.147,248.332Zm-15.136,0a2.134,2.134,0,0,1-2.332,2.241,3.148,3.148,0,0,1-.823-.091,1.566,1.566,0,0,1-.823-.412,2.594,2.594,0,0,1-.64-1.1v-1.235a2.052,2.052,0,0,1,2.332-1.6C148.188,246.137,149.011,246.732,149.011,248.332Zm7.728-2.652c-.137.732-.32,2.1-.32,2.241,0,.091-.137,1.418-.229,2.149-.137,1.334-.412,2.789-.594,4.207-.191,1.143-.229,2.424-.366,3.658-.137,1.052-.366,2.149-.5,3.2-.191,1.692-.32,3.567-.64,5.259-.137.869-.229,1.875-.32,2.789a15.48,15.48,0,0,1-.274,1.875c-.137.549-1.006,1.555-1.555,1.555h-2.606v-1.143c.274-1.829.549-3.7.777-5.579.366-3.155.777-6.31,1.189-9.466.274-2.744.686-5.487,1.052-8.231a6.384,6.384,0,0,1,.046-1.006,1.334,1.334,0,0,0-.366-.64c-.274-.32-.869-.457-1.052-.869Z" transform="translate(-101.82 -245.68)" fill="#525252" fill-rule="evenodd"/>
</svg>
