<svg xmlns="http://www.w3.org/2000/svg" width="55.886" height="55.903" viewBox="0 0 55.886 55.903">
  <g id="hand" transform="translate(-0.501)">
    <path id="Trazado_176" data-name="Trazado 176" d="M127.076,223.817a3.262,3.262,0,0,0-4.6.387l-7.466,7.674h.008a3.338,3.338,0,0,0-3.2-2.4H99.453a13.056,13.056,0,0,0-5.243-1.091c-5.165,0-9.632,2.5-11.765,7.249l9.87,9.82.018-.014,1.7-1.639a4.364,4.364,0,0,1,3.031-1.225h14.548a8.7,8.7,0,0,0,6.065-2.464l9.785-11.7a3.261,3.261,0,0,0-.387-4.6Zm0,0" transform="translate(-72.997 -198.694)" fill="#fed2a4"/>
    <path id="Trazado_177" data-name="Trazado 177" d="M220.027,20.912A10.916,10.916,0,1,1,209.111,10,10.915,10.915,0,0,1,220.027,20.912Zm0,0" transform="translate(-176.109 -8.905)" fill="#ffe781"/>
    <path id="Trazado_178" data-name="Trazado 178" d="M27.789,348.33,22.5,353.538l-12.256-12.35,5.193-5.208a2.184,2.184,0,0,1,3.088,0l9.262,9.262a2.184,2.184,0,0,1,0,3.088Zm0,0" transform="translate(-8.681 -298.726)" fill="#2bc1d3" opacity="0.5"/>
    <path id="Trazado_179" data-name="Trazado 179" d="M220.588,332.058a1.092,1.092,0,1,0-1.544,0A1.093,1.093,0,0,0,220.588,332.058Zm0,0" transform="translate(-194.396 -294.141)" fill="#525452"/>
    <path id="Trazado_180" data-name="Trazado 180" d="M188.449,12.007A12.007,12.007,0,1,0,200.456,0,12.021,12.021,0,0,0,188.449,12.007Zm21.831,0a9.824,9.824,0,1,1-9.824-9.824A9.835,9.835,0,0,1,210.28,12.007Zm0,0" transform="translate(-167.426)" fill="#525452"/>
    <path id="Trazado_181" data-name="Trazado 181" d="M13.074,244.717a1.091,1.091,0,0,0,1.541.009l5.292-5.214a3.3,3.3,0,0,0,.777-3.387l1.138-1.1a3.255,3.255,0,0,1,2.273-.918H38.606a9.773,9.773,0,0,0,6.852-2.784c.076-.074-.576.694,9.9-11.826a4.366,4.366,0,0,0-6.644-5.667l-6.441,6.62a4.387,4.387,0,0,0-3.394-1.625H26.707a14.083,14.083,0,0,0-5.466-1.091,13.5,13.5,0,0,0-12.309,6.979,3.261,3.261,0,0,0-2.919.9L.82,230.828a1.092,1.092,0,0,0,0,1.54Zm8.166-24.8a11.916,11.916,0,0,1,4.805,1,1.09,1.09,0,0,0,.438.092h12.4a2.183,2.183,0,1,1,0,4.366H29.973a1.091,1.091,0,1,0,0,2.183h8.906a4.36,4.36,0,0,0,4.328-4.937c6.231-6.4,7.109-7.3,7.147-7.35a2.183,2.183,0,1,1,3.334,2.821L43.9,229.8a7.6,7.6,0,0,1-5.291,2.128H24.1a5.427,5.427,0,0,0-3.789,1.53l-.928.9L10.827,225.8c2-3.749,5.749-5.882,10.414-5.882ZM7.557,227.162a1.089,1.089,0,0,1,1.352-.154c.189.115-.354-.379,9.454,9.416a1.094,1.094,0,0,1,.006,1.538l-4.512,4.445L3.132,231.6Zm0,0" transform="translate(0 -189.137)" fill="#525452"/>
    <path id="Trazado_182" data-name="Trazado 182" d="M267.791,41.116v1.245a3.274,3.274,0,0,0,1.072,6.361,1.111,1.111,0,0,1,1.1.966,1.093,1.093,0,0,1-1.085,1.218,1.961,1.961,0,0,1-1.4-.806,1.112,1.112,0,0,0-1.4-.259,1.093,1.093,0,0,0-.283,1.645,4.527,4.527,0,0,0,2,1.422v1.24a1.114,1.114,0,0,0,.929,1.114,1.092,1.092,0,0,0,1.254-1.08V52.9A3.274,3.274,0,0,0,268.9,46.54a1.111,1.111,0,0,1-1.1-.966,1.093,1.093,0,0,1,1.085-1.218,1.731,1.731,0,0,1,1.155.546,1.12,1.12,0,0,0,1.429.122,1.092,1.092,0,0,0,.116-1.667,4.217,4.217,0,0,0-1.607-1V41.082A1.092,1.092,0,0,0,268.72,40,1.113,1.113,0,0,0,267.791,41.116Zm0,0" transform="translate(-236.098 -35.624)" fill="#525452"/>
  </g>
</svg>
