<svg xmlns="http://www.w3.org/2000/svg" xmlns:xlink="http://www.w3.org/1999/xlink" width="757.733" height="558.083" viewBox="0 0 757.733 558.083">
  <defs>
    <clipPath id="clip-path">
      <rect width="757.733" height="558.083" fill="none"/>
    </clipPath>
  </defs>
  <g id="Pattern.1" opacity="0.16" clip-path="url(#clip-path)">
    <g id="OPSEG71" transform="translate(0.007 0)">
      <g id="huellas" transform="translate(7.112 0)">
        <path id="Trazado_828" data-name="Trazado 828" d="M376.252,578.4a16.079,16.079,0,0,1,2.239-6.138c6.169-9.893,19.139-9.651,25.9-.72a16.58,16.58,0,0,1,3.367,8.252,11.133,11.133,0,0,1-2.431,8.494,5.206,5.206,0,0,1-7.114.814,9.57,9.57,0,0,1-2.27-2.745,5.215,5.215,0,0,0-2.342-2.682,3.776,3.776,0,0,0-1.621-.25,4.514,4.514,0,0,0-3.967,2.477c-.654,1.265-1.343,2.682-2.722,3.3a4.577,4.577,0,0,1-2.973.134C377.147,588.032,375.563,583.182,376.252,578.4Z" transform="translate(-116.175 -301.537)" fill="#00b894"/>
        <path id="Trazado_829" data-name="Trazado 829" d="M387.862,538.245c-4.347,1.614-5.256,7.97-.618,9.835a5.238,5.238,0,0,0,6.648-7.22A5.182,5.182,0,0,0,387.862,538.245Z" transform="translate(-120.627 -286.694)" fill="#00b894"/>
        <path id="Trazado_830" data-name="Trazado 830" d="M418.732,538.245c-4.347,1.614-5.256,7.97-.618,9.835a5.238,5.238,0,0,0,6.648-7.22A5.18,5.18,0,0,0,418.732,538.245Z" transform="translate(-137.676 -286.694)" fill="#00b894"/>
        <path id="Trazado_831" data-name="Trazado 831" d="M444.532,558.4c-3.635.8-4.714,5.659-2.024,8.158a5.171,5.171,0,0,0,7.275-.563C452.833,562.124,448.938,557.43,444.532,558.4Z" transform="translate(-152.024 -297.904)" fill="#00b894"/>
        <path id="Trazado_832" data-name="Trazado 832" d="M363.5,558.4c-3.64.8-4.719,5.659-2.028,8.158a5.171,5.171,0,0,0,7.275-.563C371.793,562.124,367.9,557.43,363.5,558.4Z" transform="translate(-107.266 -297.904)" fill="#00b894"/>
        <path id="Trazado_833" data-name="Trazado 833" d="M-181.279,475.145a16.07,16.07,0,0,1,.5-6.491c3.277-11.176,15.835-14.439,24.749-7.653a16.592,16.592,0,0,1,5.462,7.045,11.157,11.157,0,0,1-.049,8.842,5.177,5.177,0,0,1-6.631,2.682,9.671,9.671,0,0,1-2.928-2.034,5.108,5.108,0,0,0-2.973-1.949,3.838,3.838,0,0,0-1.634.192,4.5,4.5,0,0,0-3.134,3.451c-.287,1.395-.56,2.959-1.733,3.911a4.589,4.589,0,0,1-2.829.925C-177.819,484.2-180.653,479.951-181.279,475.145Z" transform="translate(191.733 -242.168)" fill="#00b894"/>
        <path id="Trazado_834" data-name="Trazado 834" d="M-183.876,437.226c-3.752,2.718-2.91,9.088,2.059,9.647a5.374,5.374,0,0,0,5.265-2.825,5.358,5.358,0,0,0-.806-5.914A5.143,5.143,0,0,0-183.876,437.226Z" transform="translate(194.383 -230.53)" fill="#00b894"/>
        <path id="Trazado_835" data-name="Trazado 835" d="M-154.1,428.928c-3.752,2.718-2.915,9.088,2.059,9.651a5.374,5.374,0,0,0,5.265-2.83,5.358,5.358,0,0,0-.806-5.914A5.178,5.178,0,0,0-154.1,428.928Z" transform="translate(177.937 -225.947)" fill="#00b894"/>
        <path id="Trazado_836" data-name="Trazado 836" d="M-124.082,441.493c-3.286,1.752-3.018,6.705.251,8.4a5.166,5.166,0,0,0,6.854-2.5C-115.088,442.852-120.1,439.374-124.082,441.493Z" transform="translate(161.362 -232.977)" fill="#00b894"/>
        <path id="Trazado_837" data-name="Trazado 837" d="M-202.132,463.3c-3.286,1.752-3.018,6.705.251,8.4a5.164,5.164,0,0,0,6.854-2.494C-193.138,464.662-198.152,461.184-202.132,463.3Z" transform="translate(204.469 -245.037)" fill="#00b894"/>
        <path id="Trazado_838" data-name="Trazado 838" d="M34.149,734.369a16.177,16.177,0,0,1,3.792-5.315c8.609-7.868,21.042-4.157,25.139,6.258a16.557,16.557,0,0,1,1.016,8.851,11.231,11.231,0,0,1-4.634,7.537,5.2,5.2,0,0,1-7.069-1.126,9.578,9.578,0,0,1-1.446-3.254,5.156,5.156,0,0,0-1.536-3.205,3.705,3.705,0,0,0-1.5-.68,4.5,4.5,0,0,0-4.477,1.319c-.972,1.046-2.019,2.235-3.514,2.45a4.6,4.6,0,0,1-2.9-.671C32.421,743.886,32.2,738.79,34.149,734.369Z" transform="translate(73.322 -390.006)" fill="#00b894"/>
        <path id="Trazado_839" data-name="Trazado 839" d="M59.809,695.924c-4.62.384-7.213,6.258-3.25,9.32a5.246,5.246,0,0,0,8.35-5.168A5.172,5.172,0,0,0,59.809,695.924Z" transform="translate(61.38 -374.015)" fill="#00b894"/>
        <path id="Trazado_840" data-name="Trazado 840" d="M89.592,704.233c-4.62.384-7.208,6.258-3.25,9.316a5.246,5.246,0,0,0,8.354-5.163C94.217,706.106,91.974,704.032,89.592,704.233Z" transform="translate(44.93 -378.61)" fill="#00b894"/>
        <path id="Trazado_841" data-name="Trazado 841" d="M109.245,730.392c-3.72-.2-6.071,4.18-4.15,7.313a5.175,5.175,0,0,0,7.163,1.413C116.229,736.208,113.749,730.66,109.245,730.392Z" transform="translate(33.877 -393.078)" fill="#00b894"/>
        <path id="Trazado_842" data-name="Trazado 842" d="M31.195,708.591c-3.72-.206-6.071,4.2-4.15,7.331a5.174,5.174,0,0,0,7.163,1.408C38.179,714.407,35.7,708.837,31.195,708.591Z" transform="translate(76.984 -381.023)" fill="#00b894"/>
        <path id="Trazado_843" data-name="Trazado 843" d="M1086.252,506.4a16.079,16.079,0,0,1,2.238-6.138c6.169-9.893,19.14-9.651,25.9-.72a16.579,16.579,0,0,1,3.367,8.252,11.135,11.135,0,0,1-2.431,8.494,5.206,5.206,0,0,1-7.114.813,9.564,9.564,0,0,1-2.27-2.745,5.215,5.215,0,0,0-2.342-2.682,3.783,3.783,0,0,0-1.625-.25,4.51,4.51,0,0,0-3.962,2.477c-.653,1.265-1.343,2.682-2.722,3.3a4.578,4.578,0,0,1-2.973.134C1087.147,516.032,1085.563,511.182,1086.252,506.4Z" transform="translate(-508.304 -261.723)" fill="#00b894"/>
        <path id="Trazado_844" data-name="Trazado 844" d="M1097.863,466.245c-4.347,1.614-5.256,7.971-.618,9.835a5.238,5.238,0,0,0,6.648-7.22A5.182,5.182,0,0,0,1097.863,466.245Z" transform="translate(-512.756 -246.88)" fill="#00b894"/>
        <path id="Trazado_845" data-name="Trazado 845" d="M1128.733,466.245c-4.347,1.614-5.256,7.971-.618,9.835a5.238,5.238,0,0,0,6.648-7.22A5.18,5.18,0,0,0,1128.733,466.245Z" transform="translate(-529.805 -246.88)" fill="#00b894"/>
        <path id="Trazado_846" data-name="Trazado 846" d="M1154.532,486.4c-3.635.8-4.714,5.659-2.024,8.158a5.171,5.171,0,0,0,7.275-.563C1162.833,490.124,1158.938,485.43,1154.532,486.4Z" transform="translate(-544.152 -258.09)" fill="#00b894"/>
        <path id="Trazado_847" data-name="Trazado 847" d="M1073.5,486.4c-3.64.8-4.719,5.659-2.028,8.158a5.171,5.171,0,0,0,7.275-.563C1081.793,490.124,1077.9,485.43,1073.5,486.4Z" transform="translate(-499.395 -258.09)" fill="#00b894"/>
        <path id="Trazado_848" data-name="Trazado 848" d="M646.948,463.869a16.1,16.1,0,0,1,4.383-4.823c9.482-6.795,21.383-1.632,24.212,9.2a16.592,16.592,0,0,1-.04,8.909,11.184,11.184,0,0,1-5.5,6.933,5.221,5.221,0,0,1-6.89-1.958,9.637,9.637,0,0,1-1.048-3.4,5.161,5.161,0,0,0-1.137-3.366,3.851,3.851,0,0,0-1.406-.854,4.514,4.514,0,0,0-4.611.782c-1.088.921-2.27,1.985-3.779,2.012a4.611,4.611,0,0,1-2.8-1.01C644.1,473.114,644.486,468.031,646.948,463.869Z" transform="translate(-264.751 -241.344)" fill="#00b894"/>
        <path id="Trazado_849" data-name="Trazado 849" d="M678.378,427.386c-4.629-.165-7.9,5.364-4.334,8.869a5.247,5.247,0,0,0,8.909-4.139A5.164,5.164,0,0,0,678.378,427.386Z" transform="translate(-279.893 -225.526)" fill="#00b894"/>
        <path id="Trazado_850" data-name="Trazado 850" d="M706.917,439.175c-4.634-.17-7.9,5.364-4.334,8.865a5.243,5.243,0,0,0,8.9-4.139A5.164,5.164,0,0,0,706.917,439.175Z" transform="translate(-295.654 -232.045)" fill="#00b894"/>
        <path id="Trazado_851" data-name="Trazado 851" d="M723.467,467.347c-3.644-.639-6.523,3.433-4.987,6.772a5.161,5.161,0,0,0,6.939,2.235C729.712,473.954,727.912,468.13,723.467,467.347Z" transform="translate(-305.036 -247.589)" fill="#00b894"/>
        <path id="Trazado_852" data-name="Trazado 852" d="M648.561,436.426c-3.671-.644-6.523,3.429-4.992,6.768a5.163,5.163,0,0,0,6.94,2.235C654.806,443.029,653,437.2,648.561,436.426Z" transform="translate(-263.664 -230.49)" fill="#00b894"/>
        <path id="Trazado_853" data-name="Trazado 853" d="M885.378,744.325a16.071,16.071,0,0,1-.3-6.518c1.912-11.5,13.986-16.236,23.652-10.563a16.632,16.632,0,0,1,6.268,6.334,11.172,11.172,0,0,1,1.012,8.784,5.2,5.2,0,0,1-6.268,3.473,9.7,9.7,0,0,1-3.134-1.667,5.156,5.156,0,0,0-3.188-1.578,3.735,3.735,0,0,0-1.594.385,4.5,4.5,0,0,0-2.713,3.8c-.121,1.417-.2,3.008-1.253,4.09a4.593,4.593,0,0,1-2.686,1.256C889.9,752.876,886.578,749.005,885.378,744.325Z" transform="translate(-397.168 -390.016)" fill="#00b894"/>
        <path id="Trazado_854" data-name="Trazado 854" d="M876.89,708.606c-3.4,3.129-1.791,9.388,3.206,9.334a5.238,5.238,0,0,0,3.376-9.213A5.169,5.169,0,0,0,876.89,708.606Z" transform="translate(-391.765 -380.412)" fill="#00b894"/>
        <path id="Trazado_855" data-name="Trazado 855" d="M905.41,696.788c-3.4,3.129-1.791,9.388,3.206,9.334a5.238,5.238,0,0,0,3.376-9.213A5.174,5.174,0,0,0,905.41,696.788Z" transform="translate(-407.517 -373.878)" fill="#00b894"/>
        <path id="Trazado_856" data-name="Trazado 856" d="M936.617,705.663c-3.053,2.132-2.194,7.027,1.254,8.31a5.17,5.17,0,0,0,6.505-3.3C945.71,705.932,940.311,703.08,936.617,705.663Z" transform="translate(-424.711 -378.869)" fill="#00b894"/>
        <path id="Trazado_857" data-name="Trazado 857" d="M861.749,736.677c-3.053,2.132-2.189,7.032,1.254,8.31a5.164,5.164,0,0,0,6.505-3.3C870.842,736.95,865.443,734.1,861.749,736.677Z" transform="translate(-383.362 -396.02)" fill="#00b894"/>
        <path id="Trazado_858" data-name="Trazado 858" d="M360.083,252.8a16.069,16.069,0,0,1,.076-6.527c2.574-11.368,14.9-15.4,24.221-9.177a16.628,16.628,0,0,1,5.9,6.705,11.17,11.17,0,0,1,.5,8.829,5.207,5.207,0,0,1-6.451,3.107,9.682,9.682,0,0,1-3.049-1.851,5.123,5.123,0,0,0-3.089-1.757,3.8,3.8,0,0,0-1.616.291,4.5,4.5,0,0,0-2.928,3.639c-.2,1.413-.376,2.991-1.486,4.023a4.575,4.575,0,0,1-2.767,1.1C364.1,261.6,361.009,257.541,360.083,252.8Z" transform="translate(-107.165 -118.69)" fill="#00b894"/>
        <path id="Trazado_859" data-name="Trazado 859" d="M354.467,215.931c-3.582,2.946-2.342,9.249,2.655,9.5a5.239,5.239,0,0,0,3.909-9C359.333,214.822,356.3,214.4,354.467,215.931Z" transform="translate(-103.094 -108.072)" fill="#00b894"/>
        <path id="Trazado_860" data-name="Trazado 860" d="M383.577,205.809c-3.582,2.95-2.341,9.253,2.655,9.5a5.234,5.234,0,0,0,3.909-9A5.141,5.141,0,0,0,383.577,205.809Z" transform="translate(-119.171 -102.469)" fill="#00b894"/>
        <path id="Trazado_861" data-name="Trazado 861" d="M414.267,216.465c-3.174,1.949-2.6,6.889.77,8.368a5.167,5.167,0,0,0,6.684-2.919C423.329,217.261,418.1,214.1,414.267,216.465Z" transform="translate(-136.099 -108.45)" fill="#00b894"/>
        <path id="Trazado_862" data-name="Trazado 862" d="M337.727,243.088c-3.174,1.954-2.6,6.889.77,8.368a5.155,5.155,0,0,0,6.684-2.919C346.789,243.883,341.564,240.727,337.727,243.088Z" transform="translate(-93.826 -123.172)" fill="#00b894"/>
        <path id="Trazado_863" data-name="Trazado 863" d="M-192.8,46.412a16.15,16.15,0,0,1,4.925-4.3c10.185-5.7,21.436.755,23.039,11.837a16.566,16.566,0,0,1-1.057,8.851,11.18,11.18,0,0,1-6.232,6.281,5.215,5.215,0,0,1-6.631-2.7,9.657,9.657,0,0,1-.663-3.5,5.244,5.244,0,0,0-.757-3.473,3.8,3.8,0,0,0-1.3-1,4.514,4.514,0,0,0-4.67.259c-1.186.8-2.476,1.726-3.98,1.582A4.6,4.6,0,0,1-192.81,58.9C-196.664,55.281-195.711,50.279-192.8,46.412Z" transform="translate(199.435 -11.311)" fill="#00b894"/>
        <path id="Trazado_864" data-name="Trazado 864" d="M-156.292,12.385c-4.589-.679-8.453,4.47-5.3,8.333a5.378,5.378,0,0,0,5.74,1.658,5.365,5.365,0,0,0,3.582-4.783A5.177,5.177,0,0,0-156.292,12.385Z" transform="translate(181.421 3.99)" fill="#00b894"/>
        <path id="Trazado_865" data-name="Trazado 865" d="M-129.244,27.275c-4.589-.679-8.453,4.47-5.3,8.328a5.378,5.378,0,0,0,5.744,1.663,5.365,5.365,0,0,0,3.582-4.783A5.2,5.2,0,0,0-129.244,27.275Z" transform="translate(166.484 -4.244)" fill="#00b894"/>
        <path id="Trazado_866" data-name="Trazado 866" d="M-115.866,57c-3.582-1.051-6.863,2.682-5.713,6.169a5.164,5.164,0,0,0,6.644,3.008C-110.395,64.252-111.537,58.262-115.866,57Z" transform="translate(158.818 -20.613)" fill="#00b894"/>
        <path id="Trazado_867" data-name="Trazado 867" d="M-186.861,17.917c-3.582-1.051-6.868,2.682-5.717,6.169a5.169,5.169,0,0,0,6.648,3.008C-181.395,25.172-182.536,19.2-186.861,17.917Z" transform="translate(198.031 0.997)" fill="#00b894"/>
        <path id="Trazado_868" data-name="Trazado 868" d="M34,319.112a16.022,16.022,0,0,1,3.859-5.266c8.7-7.76,21.087-3.889,25.072,6.58a16.548,16.548,0,0,1,.9,8.86c-.586,3.062-2.3,6.057-4.732,7.479a5.224,5.224,0,0,1-7.06-1.216,9.662,9.662,0,0,1-1.406-3.272,5.126,5.126,0,0,0-1.491-3.223,3.727,3.727,0,0,0-1.491-.7,4.481,4.481,0,0,0-4.477,1.261c-.985,1.033-2.046,2.235-3.546,2.4a4.59,4.59,0,0,1-2.906-.7C32.142,328.607,31.972,323.511,34,319.112Z" transform="translate(73.449 -160.48)" fill="#00b894"/>
        <path id="Trazado_869" data-name="Trazado 869" d="M60.285,280.839c-4.625.326-7.289,6.173-3.367,9.28a5.246,5.246,0,0,0,8.417-5.065A5.176,5.176,0,0,0,60.285,280.839Z" transform="translate(61.155 -144.486)" fill="#00b894"/>
        <path id="Trazado_870" data-name="Trazado 870" d="M89.915,289.528c-4.625.322-7.289,6.169-3.367,9.276a5.246,5.246,0,0,0,8.417-5.047A5.166,5.166,0,0,0,89.915,289.528Z" transform="translate(44.79 -149.291)" fill="#00b894"/>
        <path id="Trazado_871" data-name="Trazado 871" d="M109.3,315.917c-3.72-.25-6.125,4.1-4.244,7.26a5.2,5.2,0,0,0,7.163,1.5C116.209,321.823,113.8,316.221,109.3,315.917Z" transform="translate(33.884 -163.883)" fill="#00b894"/>
        <path id="Trazado_872" data-name="Trazado 872" d="M31.529,293.127c-3.72-.25-6.12,4.1-4.244,7.26a5.193,5.193,0,0,0,7.163,1.5C38.437,299.033,36.029,293.431,31.529,293.127Z" transform="translate(76.833 -151.281)" fill="#00b894"/>
        <path id="Trazado_873" data-name="Trazado 873" d="M217,14.112a16.022,16.022,0,0,1,3.859-5.266c8.7-7.76,21.087-3.889,25.072,6.58a16.548,16.548,0,0,1,.9,8.86c-.587,3.062-2.3,6.057-4.732,7.479a5.224,5.224,0,0,1-7.06-1.216,9.662,9.662,0,0,1-1.406-3.272,5.126,5.126,0,0,0-1.491-3.223,3.727,3.727,0,0,0-1.491-.7,4.482,4.482,0,0,0-4.477,1.261c-.985,1.033-2.046,2.235-3.546,2.405a4.59,4.59,0,0,1-2.906-.7C215.142,23.607,214.972,18.511,217,14.112Z" transform="translate(-27.621 8.177)" fill="#00b894"/>
        <path id="Trazado_874" data-name="Trazado 874" d="M243.285-24.161c-4.625.326-7.289,6.173-3.367,9.28a5.379,5.379,0,0,0,5.968.38,5.361,5.361,0,0,0,2.449-5.445A5.176,5.176,0,0,0,243.285-24.161Z" transform="translate(-39.915 24.17)" fill="#00b894"/>
        <path id="Trazado_875" data-name="Trazado 875" d="M272.915-15.472c-4.625.322-7.289,6.169-3.367,9.276a5.379,5.379,0,0,0,5.963.38,5.361,5.361,0,0,0,2.453-5.427A5.166,5.166,0,0,0,272.915-15.472Z" transform="translate(-56.28 19.366)" fill="#00b894"/>
        <path id="Trazado_876" data-name="Trazado 876" d="M292.3,10.917c-3.72-.25-6.125,4.1-4.244,7.26a5.175,5.175,0,0,0,7.141,1.5C299.209,16.822,296.8,11.221,292.3,10.917Z" transform="translate(-67.186 4.774)" fill="#00b894"/>
        <path id="Trazado_877" data-name="Trazado 877" d="M214.529-11.873c-3.72-.25-6.12,4.1-4.244,7.26a5.171,5.171,0,0,0,7.141,1.5C221.437-5.968,219.029-11.569,214.529-11.873Z" transform="translate(-24.237 17.376)" fill="#00b894"/>
        <path id="Trazado_878" data-name="Trazado 878" d="M1100.123,61.575a16.069,16.069,0,0,1-.51-6.5c1.536-11.551,13.431-16.674,23.281-11.314a16.608,16.608,0,0,1,6.474,6.133,11.136,11.136,0,0,1,1.294,8.748,5.2,5.2,0,0,1-6.143,3.67,9.587,9.587,0,0,1-3.2-1.569,5.2,5.2,0,0,0-3.237-1.475,3.787,3.787,0,0,0-1.585.447,4.5,4.5,0,0,0-2.588,3.889c-.076,1.422-.108,3.013-1.119,4.126a4.565,4.565,0,0,1-2.655,1.341C1104.913,69.979,1101.471,66.215,1100.123,61.575Z" transform="translate(-515.697 -12.214)" fill="#00b894"/>
        <path id="Trazado_879" data-name="Trazado 879" d="M1090.081,26.567c-3.3,3.254-1.5,9.423,3.5,9.227a5.222,5.222,0,0,0,3.08-9.3A5.155,5.155,0,0,0,1090.081,26.567Z" transform="translate(-509.581 -3.21)" fill="#00b894"/>
        <path id="Trazado_880" data-name="Trazado 880" d="M1118.211,13.837c-3.3,3.259-1.5,9.423,3.5,9.227a5.371,5.371,0,0,0,4.777-3.576,5.359,5.359,0,0,0-1.7-5.722A5.155,5.155,0,0,0,1118.211,13.837Z" transform="translate(-525.117 3.829)" fill="#00b894"/>
        <path id="Trazado_881" data-name="Trazado 881" d="M1149.663,21.684c-2.982,2.235-1.965,7.094,1.522,8.266a5.166,5.166,0,0,0,6.393-3.5C1158.76,21.684,1153.276,19,1149.663,21.684Z" transform="translate(-542.439 -0.597)" fill="#00b894"/>
        <path id="Trazado_882" data-name="Trazado 882" d="M1075.833,55.1c-2.982,2.235-1.965,7.1,1.522,8.27a5.172,5.172,0,0,0,6.4-3.509C1084.926,55.085,1079.441,52.407,1075.833,55.1Z" transform="translate(-501.663 -19.072)" fill="#00b894"/>
        <path id="Trazado_883" data-name="Trazado 883" d="M1364,321.288a16.138,16.138,0,0,1,5.113-4.059c10.454-5.181,21.369,1.824,22.421,12.964a16.56,16.56,0,0,1-1.477,8.784,11.122,11.122,0,0,1-6.537,5.963,5.214,5.214,0,0,1-6.487-3.035,9.67,9.67,0,0,1-.488-3.527,5.133,5.133,0,0,0-.582-3.5,3.737,3.737,0,0,0-1.249-1.068,4.514,4.514,0,0,0-4.674.031c-1.222.733-2.561,1.6-4.056,1.381a4.572,4.572,0,0,1-2.6-1.448C1359.72,329.956,1360.9,325,1364,321.288Z" transform="translate(-660.193 -163.653)" fill="#00b894"/>
        <path id="Trazado_884" data-name="Trazado 884" d="M1402.63,288.548c-4.544-.894-8.663,4.023-5.7,8.046a5.244,5.244,0,0,0,9.456-2.66A5.147,5.147,0,0,0,1402.63,288.548Z" transform="translate(-679.42 -148.696)" fill="#00b894"/>
        <path id="Trazado_885" data-name="Trazado 885" d="M1428.91,304.758c-4.549-.894-8.663,4.023-5.7,8.046a5.244,5.244,0,0,0,9.456-2.655A5.174,5.174,0,0,0,1428.91,304.758Z" transform="translate(-693.933 -157.659)" fill="#00b894"/>
        <path id="Trazado_886" data-name="Trazado 886" d="M1440.817,335.046c-3.514-1.225-6.989,2.342-6.013,5.883a5.171,5.171,0,0,0,6.487,3.335C1445.921,342.565,1445.1,336.53,1440.817,335.046Z" transform="translate(-700.799 -174.33)" fill="#00b894"/>
        <path id="Trazado_887" data-name="Trazado 887" d="M1371.857,292.5c-3.519-1.225-6.989,2.338-6.013,5.878a5.166,5.166,0,0,0,6.487,3.335C1376.956,300.014,1376.119,293.975,1371.857,292.5Z" transform="translate(-662.713 -150.801)" fill="#00b894"/>
        <path id="Trazado_888" data-name="Trazado 888" d="M652.252,56.4a16.078,16.078,0,0,1,2.239-6.138c6.169-9.893,19.14-9.651,25.9-.72a16.581,16.581,0,0,1,3.367,8.252,11.133,11.133,0,0,1-2.431,8.494,5.206,5.206,0,0,1-7.114.814,9.569,9.569,0,0,1-2.288-2.731,5.215,5.215,0,0,0-2.342-2.682,3.784,3.784,0,0,0-1.625-.25,4.509,4.509,0,0,0-3.962,2.485c-.654,1.265-1.343,2.682-2.722,3.3a4.578,4.578,0,0,1-2.973.134C653.147,66.032,651.562,61.182,652.252,56.4Z" transform="translate(-268.608 -12.885)" fill="#00b894"/>
        <path id="Trazado_889" data-name="Trazado 889" d="M663.862,16.245c-4.347,1.614-5.256,7.97-.618,9.835a5.237,5.237,0,0,0,6.639-7.219A5.167,5.167,0,0,0,663.862,16.245Z" transform="translate(-273.06 1.958)" fill="#00b894"/>
        <path id="Trazado_890" data-name="Trazado 890" d="M694.732,16.245c-4.347,1.614-5.256,7.97-.618,9.835a5.234,5.234,0,0,0,6.635-7.219A5.156,5.156,0,0,0,694.732,16.245Z" transform="translate(-290.11 1.958)" fill="#00b894"/>
        <path id="Trazado_891" data-name="Trazado 891" d="M720.532,36.4c-3.635.8-4.714,5.659-2.024,8.158A5.171,5.171,0,0,0,725.784,44C728.832,40.124,724.937,35.43,720.532,36.4Z" transform="translate(-304.457 -9.252)" fill="#00b894"/>
        <path id="Trazado_892" data-name="Trazado 892" d="M639.5,36.4c-3.64.8-4.719,5.659-2.028,8.158A5.171,5.171,0,0,0,644.744,44C647.793,40.124,643.9,35.43,639.5,36.4Z" transform="translate(-259.699 -9.252)" fill="#00b894"/>
        <path id="Trazado_893" data-name="Trazado 893" d="M877.252,324.4a16.078,16.078,0,0,1,2.239-6.138c6.169-9.893,19.139-9.651,25.9-.72a16.579,16.579,0,0,1,3.367,8.252,11.133,11.133,0,0,1-2.431,8.493,5.206,5.206,0,0,1-7.114.814,9.569,9.569,0,0,1-2.27-2.745,5.215,5.215,0,0,0-2.341-2.682,3.785,3.785,0,0,0-1.625-.25,4.509,4.509,0,0,0-3.962,2.477c-.654,1.265-1.343,2.682-2.722,3.3a4.577,4.577,0,0,1-2.973.134C878.147,334.032,876.563,329.182,877.252,324.4Z" transform="translate(-392.875 -161.082)" fill="#00b894"/>
        <path id="Trazado_894" data-name="Trazado 894" d="M888.862,284.245c-4.347,1.614-5.256,7.971-.618,9.835a5.238,5.238,0,0,0,6.648-7.219A5.182,5.182,0,0,0,888.862,284.245Z" transform="translate(-397.326 -146.239)" fill="#00b894"/>
        <path id="Trazado_895" data-name="Trazado 895" d="M919.732,284.245c-4.347,1.614-5.256,7.971-.618,9.835a5.238,5.238,0,0,0,6.648-7.219A5.18,5.18,0,0,0,919.732,284.245Z" transform="translate(-414.376 -146.239)" fill="#00b894"/>
        <path id="Trazado_896" data-name="Trazado 896" d="M945.532,304.4c-3.635.8-4.714,5.659-2.024,8.158a5.171,5.171,0,0,0,7.275-.563C953.833,308.124,949.938,303.43,945.532,304.4Z" transform="translate(-428.723 -157.449)" fill="#00b894"/>
        <path id="Trazado_897" data-name="Trazado 897" d="M864.5,304.4c-3.64.8-4.719,5.659-2.028,8.158a5.171,5.171,0,0,0,7.275-.563C872.793,308.124,868.9,303.43,864.5,304.4Z" transform="translate(-383.965 -157.449)" fill="#00b894"/>
        <path id="Trazado_898" data-name="Trazado 898" d="M289.759,924.4a16.1,16.1,0,0,1,1.4-6.375c4.817-10.617,17.707-12.07,25.577-4.108a16.592,16.592,0,0,1,4.419,7.738,11.16,11.16,0,0,1-1.294,8.748,5.2,5.2,0,0,1-6.944,1.743,9.648,9.648,0,0,1-2.61-2.427,5.144,5.144,0,0,0-2.686-2.347,3.771,3.771,0,0,0-1.643-.036,4.511,4.511,0,0,0-3.6,2.973c-.479,1.341-.971,2.852-2.265,3.63a4.59,4.59,0,0,1-2.928.519C291.912,933.831,289.705,929.231,289.759,924.4Z" transform="translate(-68.49 -491.765)" fill="#00b894"/>
        <path id="Trazado_899" data-name="Trazado 899" d="M294.469,884.831c-4.1,2.168-4.164,8.587.681,9.835a5.241,5.241,0,0,0,5.646-8.047A5.193,5.193,0,0,0,294.469,884.831Z" transform="translate(-69.425 -478.224)" fill="#00b894"/>
        <path id="Trazado_900" data-name="Trazado 900" d="M325.077,880.781c-4.1,2.168-4.164,8.592.681,9.835a5.236,5.236,0,0,0,5.641-8.047A5.192,5.192,0,0,0,325.077,880.781Z" transform="translate(-86.329 -475.984)" fill="#00b894"/>
        <path id="Trazado_901" data-name="Trazado 901" d="M353.165,897.435c-3.5,1.274-3.931,6.227-.936,8.355a5.173,5.173,0,0,0,7.141-1.511C361.881,900.041,357.4,895.9,353.165,897.435Z" transform="translate(-101.89 -485.271)" fill="#00b894"/>
        <path id="Trazado_902" data-name="Trazado 902" d="M272.825,908.059c-3.5,1.274-3.931,6.223-.936,8.35a5.173,5.173,0,0,0,7.141-1.511C281.541,910.666,277.064,906.508,272.825,908.059Z" transform="translate(-57.519 -491.144)" fill="#00b894"/>
        <path id="Trazado_903" data-name="Trazado 903" d="M352.759,1182.4a16.1,16.1,0,0,1,1.4-6.375c4.817-10.617,17.707-12.07,25.577-4.108a16.591,16.591,0,0,1,4.419,7.738,11.159,11.159,0,0,1-1.294,8.748,5.2,5.2,0,0,1-6.944,1.744,9.651,9.651,0,0,1-2.61-2.427,5.143,5.143,0,0,0-2.686-2.347,3.773,3.773,0,0,0-1.643-.036,4.511,4.511,0,0,0-3.6,2.973c-.479,1.341-.972,2.852-2.265,3.63a4.59,4.59,0,0,1-2.928.519C354.912,1191.83,352.705,1187.231,352.759,1182.4Z" transform="translate(-103.284 -634.432)" fill="#00b894"/>
        <path id="Trazado_904" data-name="Trazado 904" d="M357.469,1142.831c-4.1,2.168-4.164,8.587.68,9.835a5.241,5.241,0,0,0,5.646-8.047A5.193,5.193,0,0,0,357.469,1142.831Z" transform="translate(-104.22 -620.891)" fill="#00b894"/>
        <path id="Trazado_905" data-name="Trazado 905" d="M388.077,1138.781c-4.1,2.168-4.164,8.592.681,9.834a5.236,5.236,0,0,0,5.641-8.046A5.191,5.191,0,0,0,388.077,1138.781Z" transform="translate(-121.124 -618.652)" fill="#00b894"/>
        <path id="Trazado_906" data-name="Trazado 906" d="M416.165,1155.435c-3.5,1.274-3.931,6.227-.936,8.355a5.173,5.173,0,0,0,7.141-1.511C424.881,1158.041,420.4,1153.9,416.165,1155.435Z" transform="translate(-136.685 -627.938)" fill="#00b894"/>
        <path id="Trazado_907" data-name="Trazado 907" d="M335.825,1166.059c-3.5,1.274-3.931,6.223-.936,8.351a5.173,5.173,0,0,0,7.141-1.511C344.541,1168.666,340.064,1164.508,335.825,1166.059Z" transform="translate(-92.313 -633.811)" fill="#00b894"/>
        <path id="Trazado_908" data-name="Trazado 908" d="M-180.3,887.608a16.07,16.07,0,0,1,.2-6.522c2.794-11.314,15.222-15.1,24.4-8.7a16.613,16.613,0,0,1,5.766,6.8,11.163,11.163,0,0,1,.327,8.838,5.179,5.179,0,0,1-6.51,2.977,9.619,9.619,0,0,1-3.009-1.909,5.276,5.276,0,0,0-3.058-1.819,3.73,3.73,0,0,0-1.621.264,4.5,4.5,0,0,0-3,3.576c-.228,1.408-.448,2.982-1.562,3.983a4.592,4.592,0,0,1-2.789,1.042C-176.479,896.486-179.488,892.369-180.3,887.608Z" transform="translate(191.253 -469.884)" fill="#00b894"/>
        <path id="Trazado_909" data-name="Trazado 909" d="M-185.045,850.387c-3.631,2.874-2.521,9.2,2.471,9.553a5.373,5.373,0,0,0,5.14-3.049,5.358,5.358,0,0,0-1.061-5.874A5.17,5.17,0,0,0-185.045,850.387Z" transform="translate(194.921 -458.939)" fill="#00b894"/>
        <path id="Trazado_910" data-name="Trazado 910" d="M-155.64,840.817c-3.635,2.874-2.525,9.2,2.467,9.553a5.374,5.374,0,0,0,5.14-3.049,5.358,5.358,0,0,0-1.057-5.874C-150.755,839.8-153.777,839.32-155.64,840.817Z" transform="translate(178.683 -453.647)" fill="#00b894"/>
        <path id="Trazado_911" data-name="Trazado 911" d="M-125.2,852.078c-3.21,1.886-2.727,6.835.609,8.382a5.165,5.165,0,0,0,6.742-2.789C-116.16,853.057-121.317,849.8-125.2,852.078Z" transform="translate(161.888 -459.959)" fill="#00b894"/>
        <path id="Trazado_912" data-name="Trazado 912" d="M-202.246,877.208c-3.21,1.891-2.731,6.84.6,8.382a5.163,5.163,0,0,0,6.742-2.785C-193.2,878.183-198.364,874.911-202.246,877.208Z" transform="translate(204.439 -473.851)" fill="#00b894"/>
        <path id="Trazado_913" data-name="Trazado 913" d="M33.047,1144.117a16.141,16.141,0,0,1,4.343-4.877c9.4-6.9,21.365-1.873,24.315,8.94a16.516,16.516,0,0,1,.058,8.909c-.864,2.991-2.861,5.811-5.417,6.991a5.219,5.219,0,0,1-6.908-1.877,9.611,9.611,0,0,1-1.088-3.389,5.159,5.159,0,0,0-1.177-3.353,3.745,3.745,0,0,0-1.415-.836,4.482,4.482,0,0,0-4.6.831c-1.079.934-2.239,2.012-3.756,2.057a4.594,4.594,0,0,1-2.812-.984C30.3,1153.393,30.633,1148.3,33.047,1144.117Z" transform="translate(74.264 -617.416)" fill="#00b894"/>
        <path id="Trazado_914" data-name="Trazado 914" d="M63.94,1107.418c-4.634-.116-7.844,5.454-4.235,8.914a5.247,5.247,0,0,0,8.86-4.238A5.143,5.143,0,0,0,63.94,1107.418Z" transform="translate(59.424 -601.566)" fill="#00b894"/>
        <path id="Trazado_915" data-name="Trazado 915" d="M92.61,1118.878c-4.634-.116-7.844,5.454-4.235,8.914a5.247,5.247,0,0,0,8.86-4.242A5.159,5.159,0,0,0,92.61,1118.878Z" transform="translate(43.59 -607.903)" fill="#00b894"/>
        <path id="Trazado_916" data-name="Trazado 916" d="M109.463,1146.926c-3.676-.6-6.483,3.5-4.925,6.826a5.163,5.163,0,0,0,6.962,2.168C115.784,1153.435,113.9,1147.633,109.463,1146.926Z" transform="translate(34.049 -623.382)" fill="#00b894"/>
        <path id="Trazado_917" data-name="Trazado 917" d="M34.213,1116.807c-3.676-.6-6.483,3.5-4.925,6.822a5.171,5.171,0,0,0,6.966,2.172C40.53,1123.337,38.663,1117.535,34.213,1116.807Z" transform="translate(75.609 -606.726)" fill="#00b894"/>
        <path id="Trazado_918" data-name="Trazado 918" d="M1369.753,1044.078a16.1,16.1,0,0,1-.116-6.522c2.239-11.439,14.434-15.838,23.934-9.9a16.62,16.62,0,0,1,6.093,6.509,11.177,11.177,0,0,1,.766,8.811,5.193,5.193,0,0,1-6.353,3.295,9.65,9.65,0,0,1-3.1-1.757,5.173,5.173,0,0,0-3.134-1.667,3.85,3.85,0,0,0-1.607.344,4.494,4.494,0,0,0-2.816,3.724c-.161,1.417-.286,3-1.343,4.054a4.593,4.593,0,0,1-2.731,1.18C1374.034,1052.755,1370.823,1048.79,1369.753,1044.078Z" transform="translate(-664.746 -556.001)" fill="#00b894"/>
        <path id="Trazado_919" data-name="Trazado 919" d="M1362.629,1007.783c-3.488,3.053-2.064,9.316,2.937,9.419a5.238,5.238,0,0,0,3.635-9.115C1367.478,1006.527,1364.42,1006.2,1362.629,1007.783Z" transform="translate(-659.968 -545.897)" fill="#00b894"/>
        <path id="Trazado_920" data-name="Trazado 920" d="M1391.459,996.771c-3.488,3.049-2.064,9.316,2.941,9.419a5.238,5.238,0,0,0,3.631-9.115A5.168,5.168,0,0,0,1391.459,996.771Z" transform="translate(-675.891 -539.807)" fill="#00b894"/>
        <path id="Trazado_921" data-name="Trazado 921" d="M1422.429,1006.52c-3.112,2.047-2.391,6.965,1.021,8.346a5.166,5.166,0,0,0,6.595-3.129C1431.508,1007.048,1426.194,1004.044,1422.429,1006.52Z" transform="translate(-692.964 -545.282)" fill="#00b894"/>
        <path id="Trazado_922" data-name="Trazado 922" d="M1346.709,1035.432c-3.134,2.043-2.386,6.964,1.021,8.341a5.166,5.166,0,0,0,6.595-3.129C1355.788,1035.955,1350.474,1032.96,1346.709,1035.432Z" transform="translate(-651.14 -561.27)" fill="#00b894"/>
        <path id="Trazado_923" data-name="Trazado 923" d="M1033.753,936.078a16.1,16.1,0,0,1-.116-6.522c2.238-11.439,14.434-15.838,23.934-9.9a16.621,16.621,0,0,1,6.093,6.509,11.176,11.176,0,0,1,.766,8.811,5.193,5.193,0,0,1-6.353,3.295,9.646,9.646,0,0,1-3.1-1.757,5.173,5.173,0,0,0-3.134-1.667,3.849,3.849,0,0,0-1.607.344,4.494,4.494,0,0,0-2.816,3.724c-.161,1.417-.286,3-1.343,4.055a4.592,4.592,0,0,1-2.731,1.18C1038.034,944.755,1034.823,940.79,1033.753,936.078Z" transform="translate(-479.176 -496.28)" fill="#00b894"/>
        <path id="Trazado_924" data-name="Trazado 924" d="M1026.629,899.783c-3.488,3.053-2.064,9.316,2.937,9.419a5.238,5.238,0,0,0,3.635-9.115C1031.478,898.527,1028.42,898.2,1026.629,899.783Z" transform="translate(-474.397 -486.176)" fill="#00b894"/>
        <path id="Trazado_925" data-name="Trazado 925" d="M1055.459,888.771c-3.488,3.049-2.064,9.316,2.941,9.419a5.238,5.238,0,0,0,3.631-9.115A5.168,5.168,0,0,0,1055.459,888.771Z" transform="translate(-490.32 -480.086)" fill="#00b894"/>
        <path id="Trazado_926" data-name="Trazado 926" d="M1086.429,898.52c-3.111,2.047-2.391,6.965,1.021,8.346a5.166,5.166,0,0,0,6.595-3.129C1095.508,899.048,1090.194,896.044,1086.429,898.52Z" transform="translate(-507.393 -485.561)" fill="#00b894"/>
        <path id="Trazado_927" data-name="Trazado 927" d="M1010.72,927.432c-3.112,2.043-2.386,6.965,1.021,8.341a5.166,5.166,0,0,0,6.595-3.129C1019.8,927.955,1014.486,924.959,1010.72,927.432Z" transform="translate(-465.58 -501.549)" fill="#00b894"/>
        <path id="Trazado_928" data-name="Trazado 928" d="M1097.854,1153.062a16.147,16.147,0,0,1,5.328-3.782c10.718-4.613,21.239,2.964,21.691,14.148a16.55,16.55,0,0,1-1.943,8.695,11.19,11.19,0,0,1-6.85,5.6,5.2,5.2,0,0,1-6.313-3.375,9.617,9.617,0,0,1-.3-3.549,5.136,5.136,0,0,0-.394-3.532,3.738,3.738,0,0,0-1.191-1.131,4.483,4.483,0,0,0-4.67-.219c-1.258.666-2.641,1.457-4.119,1.162a4.625,4.625,0,0,1-2.52-1.587C1093.094,1161.484,1094.563,1156.6,1097.854,1153.062Z" transform="translate(-512.984 -623.956)" fill="#00b894"/>
        <path id="Trazado_929" data-name="Trazado 929" d="M1138.7,1121.784c-4.477-1.149-8.869,3.576-6.129,7.738a5.249,5.249,0,0,0,9.585-2.146A5.18,5.18,0,0,0,1138.7,1121.784Z" transform="translate(-533.503 -609.414)" fill="#00b894"/>
        <path id="Trazado_930" data-name="Trazado 930" d="M1164.073,1139.412c-4.477-1.153-8.869,3.576-6.129,7.738a5.249,5.249,0,0,0,9.585-2.146A5.171,5.171,0,0,0,1164.073,1139.412Z" transform="translate(-547.515 -619.162)" fill="#00b894"/>
        <path id="Trazado_931" data-name="Trazado 931" d="M1174.37,1170.243c-3.447-1.413-7.105,1.963-6.322,5.552a5.156,5.156,0,0,0,6.3,3.674C1179.062,1178.026,1178.542,1171.95,1174.37,1170.243Z" transform="translate(-553.504 -636.126)" fill="#00b894"/>
        <path id="Trazado_932" data-name="Trazado 932" d="M1107.779,1124.055c-3.447-1.408-7.105,1.962-6.322,5.552a5.159,5.159,0,0,0,6.3,3.675C1112.472,1131.838,1111.939,1125.763,1107.779,1124.055Z" transform="translate(-516.727 -610.586)" fill="#00b894"/>
        <path id="Trazado_933" data-name="Trazado 933" d="M648.959,879.664a16.178,16.178,0,0,1,3.438-5.548c8.059-8.413,20.724-5.512,25.492,4.618a16.589,16.589,0,0,1,1.594,8.766,11.183,11.183,0,0,1-4.137,7.823,5.193,5.193,0,0,1-7.136-.666,9.613,9.613,0,0,1-1.657-3.156,5.159,5.159,0,0,0-1.737-3.1,3.8,3.8,0,0,0-1.536-.581,4.481,4.481,0,0,0-4.387,1.609c-.9,1.1-1.871,2.369-3.349,2.682a4.6,4.6,0,0,1-2.937-.483C647.857,889.27,647.307,884.2,648.959,879.664Z" transform="translate(-266.408 -469.834)" fill="#00b894"/>
        <path id="Trazado_934" data-name="Trazado 934" d="M671.355,840.458c-4.584.684-6.787,6.705-2.637,9.508a5.245,5.245,0,0,0,8-5.713A5.153,5.153,0,0,0,671.355,840.458Z" transform="translate(-276.572 -453.922)" fill="#00b894"/>
        <path id="Trazado_935" data-name="Trazado 935" d="M701.568,846.818c-4.585.68-6.783,6.705-2.633,9.508a5.241,5.241,0,0,0,8-5.7A5.171,5.171,0,0,0,701.568,846.818Z" transform="translate(-293.261 -457.439)" fill="#00b894"/>
        <path id="Trazado_936" data-name="Trazado 936" d="M722.876,871.72c-3.725.036-5.784,4.564-3.667,7.564a5.184,5.184,0,0,0,7.235.948C730.228,877.071,727.385,871.675,722.876,871.72Z" transform="translate(-305.203 -471.232)" fill="#00b894"/>
        <path id="Trazado_937" data-name="Trazado 937" d="M643.576,855c-3.725.04-5.784,4.569-3.667,7.568a5.179,5.179,0,0,0,7.235.943C650.928,860.364,648.085,854.964,643.576,855Z" transform="translate(-261.406 -461.987)" fill="#00b894"/>
        <path id="Trazado_938" data-name="Trazado 938" d="M815.095,1156.645a16.082,16.082,0,0,1-2.892-5.852c-2.87-11.3,6.268-20.469,17.42-19.142a16.6,16.6,0,0,1,8.292,3.29,11.287,11.287,0,0,1,4.477,7.644,5.172,5.172,0,0,1-4.338,5.686A9.714,9.714,0,0,1,834.5,1148a5.159,5.159,0,0,0-3.555-.17,3.793,3.793,0,0,0-1.307.992,4.492,4.492,0,0,0-.958,4.569c.448,1.341,1.025,2.839.5,4.251a4.566,4.566,0,0,1-1.965,2.235C822.67,1162.671,818.086,1160.453,815.095,1156.645Z" transform="translate(-356.738 -614.897)" fill="#00b894"/>
        <path id="Trazado_939" data-name="Trazado 939" d="M789.007,1133.608c-1.849,4.247,2.113,9.307,6.68,7.269a5.232,5.232,0,0,0-.6-9.79A5.114,5.114,0,0,0,789.007,1133.608Z" transform="translate(-343.965 -614.534)" fill="#00b894"/>
        <path id="Trazado_940" data-name="Trazado 940" d="M810.427,1111.32c-1.849,4.247,2.113,9.307,6.684,7.269a5.236,5.236,0,0,0-.609-9.79C814.268,1108.119,811.376,1109.112,810.427,1111.32Z" transform="translate(-355.795 -602.214)" fill="#00b894"/>
        <path id="Trazado_941" data-name="Trazado 941" d="M842.332,1106.942c-1.939,3.174.815,7.313,4.477,7.108a5.163,5.163,0,0,0,4.634-5.628C850.784,1103.549,844.682,1103.1,842.332,1106.942Z" transform="translate(-373.32 -599.883)" fill="#00b894"/>
        <path id="Trazado_942" data-name="Trazado 942" d="M786.212,1165.391c-1.939,3.174.815,7.313,4.477,7.108a5.156,5.156,0,0,0,4.629-5.628C794.637,1162.016,788.549,1161.569,786.212,1165.391Z" transform="translate(-342.325 -632.213)" fill="#00b894"/>
      </g>
      <g id="huesos" transform="translate(67.429 46.951)">
        <path id="Trazado_945" data-name="Trazado 945" d="M999.117,173l-1.978,1.1-2.578.412-2.68-.412-1.915-1.495-1.351-1.808-.564-1.973.139-2.3.989-2.318,2.291-2.1,3.191-1.638,2.51-1.66,1.8-1.929,1.741-2.591,1.472-2.94,8.162-19.444,1.293-3.772.609-3.817-.286-3.983-.747-3.831-.331-2.761.331-3.249,1.875-3.052,2.188-1.915,3.414-.609,3.141,1.732,2.242,2.032,1.123,2.09.385,1.526,1.906-1.347,2.242-.6,2.511.331,2.837,1.575,1.893,3.012-.327,4.345-3.137,2.953-3.374,1.826-3.016,2.179-2.143,2.689-1.835,4.26-9.214,21.65-1.544,4.381.054,3.9.931,4.394.805,3.889-.237,3.271-2.22,2.806-2.7,1.186-3.088.3-2.5-.524-2.367-1.866-1.437-2.372Z" transform="translate(-613.337 -104.92)" fill="#2bc1d3"/>
        <path id="Trazado_948" data-name="Trazado 948" d="M494.158,423.1l2.2.546,2.166,1.459,1.678,2.13.38,2.4-.246,2.246-.931,1.826-1.669,1.584-2.3,1.025-3.115-.031-3.446-.976-2.971-.5-2.636.179-3.038.712-3.083,1.146-19.229,8.646-3.522,1.879-3.047,2.376-2.506,3.106-2.067,3.316-1.642,2.242-2.457,2.148-3.455.953-2.9-.089-2.913-1.884-1.114-3.41-.255-3.016.6-2.3.756-1.374-2.309-.318-2.049-1.092-1.606-1.956-1-3.088.667-3.49,3.2-2.958,4.309-.018,3.714.962,3.692.465,3.4-.506,4.242-1.862,21.511-9.55,4.117-2.148L477.905,421l2.318-3.848,2.058-3.392,2.408-2.228,3.54-.542,2.783.976,2.461,1.888,1.477,2.09.452,2.98-.564,2.716Z" transform="translate(-303.038 -274.026)" fill="#2bc1d3"/>
        <path id="Trazado_951" data-name="Trazado 951" d="M494.158,140.1l2.2.546,2.166,1.459,1.678,2.13.38,2.4-.246,2.246-.931,1.826-1.669,1.584-2.3,1.025-3.115-.027-3.446-.98-2.971-.5-2.636.179-3.038.712-3.083,1.146-19.229,8.646-3.522,1.879-3.047,2.376-2.506,3.106-2.067,3.316-1.642,2.242-2.457,2.148-3.455.953-2.9-.09-2.913-1.884-1.114-3.41-.255-3.016.6-2.3.756-1.374-2.309-.318-2.049-1.092-1.606-1.956-1-3.088.667-3.49,3.2-2.958,4.309-.018,3.714.967,3.692.461,3.4-.506,4.242-1.862,21.511-9.55,4.117-2.148L477.905,138l2.318-3.848,2.058-3.392,2.408-2.229,3.54-.541,2.783.976,2.461,1.888,1.477,2.09.452,2.98-.564,2.712Z" transform="translate(-303.038 -117.666)" fill="#2bc1d3"/>
        <path id="Trazado_954" data-name="Trazado 954" d="M217.132,180.628l.318,2.246-.546,2.551-1.351,2.354-2.081,1.244-2.175.613-2.045-.183-2.09-.958-1.808-1.754-1.137-2.9-.38-3.562-.644-2.94-1.146-2.381-1.794-2.551-2.211-2.434-15.2-14.615-3.056-2.564-3.343-1.942-3.817-1.163L168.78,149l-2.694-.685-2.913-1.481L161,143.992l-1-2.73.662-3.405,2.748-2.309,2.7-1.36,2.354-.3,1.562.192-.573-2.264.251-2.309,1.213-2.22,2.493-2.076,3.49-.685,3.933,1.871,1.629,3.987.492,3.808.944,3.6,1.741,2.967,3.311,3.24,16.884,16.392,3.531,3.021,3.656,1.351,4.43.716,3.92.644,2.967,1.4,1.821,3.083.134,2.945-.832,2.989-1.387,2.148-2.6,1.535-2.725.488Z" transform="translate(-155.834 -115.755)" fill="#2bc1d3"/>
        <path id="Trazado_957" data-name="Trazado 957" d="M213.132,597.628l.318,2.246-.546,2.551-1.351,2.354-2.081,1.244-2.175.613-2.045-.183-2.09-.958-1.808-1.754-1.137-2.9-.38-3.567-.644-2.94-1.146-2.381-1.794-2.551-2.211-2.434-15.2-14.615-3.056-2.564-3.343-1.942-3.817-1.163L164.78,566l-2.694-.685-2.913-1.481L157,560.992l-1-2.73.662-3.4,2.748-2.314,2.7-1.36,2.354-.3,1.562.192-.573-2.264.251-2.309,1.213-2.22,2.493-2.081,3.49-.68,3.933,1.871,1.629,3.987.492,3.808.944,3.6,1.741,2.967,3.311,3.24,16.884,16.392,3.531,3.021,3.656,1.351,4.43.716,3.92.644,2.967,1.4,1.821,3.083.134,2.945-.832,2.989-1.387,2.148-2.6,1.535-2.725.488Z" transform="translate(-153.624 -346.15)" fill="#2bc1d3"/>
        <path id="Trazado_960" data-name="Trazado 960" d="M436.586,787.627l-2.166-.671-2.081-1.575-1.557-2.22-.242-2.417.371-2.229,1.034-1.772,1.75-1.49,2.358-.89,3.106.2,3.388,1.168,2.936.667,2.64-.027,3.074-.541,3.141-.971,19.69-7.554,3.616-1.678,3.182-2.206,2.672-2.958,2.251-3.191,1.763-2.148,2.578-2.009,3.5-.756,2.9.251,2.8,2.045.926,3.468.085,3.025-.734,2.255-.832,1.334,2.291.443L503,766.389l1.495,2.041.823,3.137-.864,3.45-3.361,2.77-4.3-.219-3.652-1.172-3.66-.671-3.428.318-4.341,1.62L459.7,785.989,455.47,787.9l-2.775,2.734-2.533,3.71-2.246,3.276-2.524,2.09-3.567.34-2.725-1.128-2.354-2.023-1.351-2.17-.286-3,.716-2.676Z" transform="translate(-305.309 -462.635)" fill="#2bc1d3"/>
        <path id="Trazado_963" data-name="Trazado 963" d="M211.679,1007.421l.555,2.2-.273,2.6-1.092,2.484-1.942,1.463-2.094.832-2.05.036-2.184-.725-1.982-1.557-1.436-2.757-.756-3.5-.953-2.859-1.4-2.242-2.05-2.349-2.461-2.184L174.9,985.932l-3.311-2.224-3.531-1.575-3.92-.756-3.9-.269-2.748-.394-3.052-1.163-2.461-2.6-1.289-2.6.3-3.455,2.488-2.591,2.542-1.638,2.309-.546,1.571.022-.805-2.184,0-2.322.967-2.336,2.26-2.336,3.4-1.047,4.112,1.441,2.041,3.795.895,3.732,1.32,3.477,2.045,2.766,3.638,2.873L198.3,988.5l3.831,2.627,3.777.953,4.484.242,3.965.228,3.1,1.074L219.6,996.5l.447,2.918-.51,3.061-1.155,2.282-2.417,1.8-2.663.774Z" transform="translate(-150.69 -575.097)" fill="#2bc1d3"/>
        <path id="Trazado_966" data-name="Trazado 966" d="M735.782,701.657l-.792,2.126-1.7,1.978-2.309,1.423-2.425.1-2.2-.5-1.709-1.137-1.378-1.839-.752-2.4.385-3.088L724.268,695l.841-2.891.125-2.636-.354-3.1-.783-3.2-6.372-20.1-1.459-3.71-2.009-3.307-2.8-2.846-3.056-2.434-2.036-1.888-1.853-2.689-.546-3.54.425-2.877,2.206-2.672,3.517-.72,3.025.1,2.206.864,1.28.913.582-2.26,1.32-1.906,2.126-1.374,3.186-.635,3.392,1.065,2.564,3.522-.474,4.282-1.387,3.58-.886,3.611.107,3.437,1.36,4.435,7.008,22.464,1.656,4.341,2.569,2.931,3.553,2.748,3.132,2.439,1.938,2.645.125,3.575-1.289,2.654-2.157,2.229-2.246,1.226-3.016.107-2.627-.877Z" transform="translate(-456.381 -396.185)" fill="#2bc1d3"/>
        <path id="Trazado_969" data-name="Trazado 969" d="M714.782,1058.657l-.792,2.126-1.7,1.978-2.309,1.423-2.425.1-2.2-.5-1.709-1.137-1.378-1.839-.752-2.4.385-3.088,1.369-3.316.841-2.891.125-2.636-.354-3.1-.783-3.2-6.372-20.1-1.459-3.71-2.009-3.307-2.8-2.842-3.056-2.439-2.036-1.888-1.853-2.689-.546-3.54.425-2.877,2.206-2.672,3.517-.72,3.025.1,2.206.864,1.28.913.582-2.26,1.32-1.906,2.126-1.374,3.186-.635,3.392,1.065,2.564,3.522-.474,4.282-1.387,3.58-.886,3.611.107,3.437,1.36,4.435,7.008,22.464,1.656,4.336,2.569,2.936,3.553,2.748,3.132,2.439,1.938,2.645.125,3.575-1.289,2.654-2.157,2.229-2.246,1.226-3.016.107-2.627-.877Z" transform="translate(-444.778 -593.43)" fill="#2bc1d3"/>
        <path id="Trazado_972" data-name="Trazado 972" d="M1052.6,1002.438l.524,2.206-.3,2.591-1.123,2.47-1.96,1.437-2.1.81-2.054.009-2.17-.756-1.964-1.58-1.4-2.779-.716-3.513-.913-2.868-1.365-2.26-2.023-2.376-2.43-2.215-16.5-13.13-3.28-2.264L1009.3,976.6l-3.907-.8-3.893-.322-2.743-.43-3.038-1.2-2.43-2.636-1.253-2.622.345-3.45,2.519-2.555,2.564-1.607,2.313-.519,1.571.045-.779-2.2.036-2.323,1-2.323,2.287-2.3,3.41-1,4.095,1.49,1.991,3.822.846,3.741,1.28,3.495,2.009,2.792,3.6,2.918,18.343,14.74,3.795,2.676,3.763,1,4.484.3,3.96.278,3.083,1.114,2.1,2.9.412,2.922-.551,3.052-1.181,2.269-2.439,1.768-2.672.743Z" transform="translate(-615.541 -572.026)" fill="#2bc1d3"/>
        <path id="Trazado_975" data-name="Trazado 975" d="M1429.982,1016.269l-.984,2.045-1.87,1.821-2.425,1.208-2.426-.121-2.148-.7-1.6-1.284-1.208-1.96-.532-2.461.662-3.043,1.66-3.173,1.1-2.806.363-2.613-.072-3.119-.492-3.253-4.533-20.594-1.119-3.831-1.7-3.473-2.528-3.083-2.819-2.7-1.862-2.063-1.6-2.846-.224-3.576.68-2.828,2.439-2.461,3.567-.4,3.007.367,2.121,1.061,1.19,1.025.779-2.2,1.49-1.777,2.242-1.177,3.226-.345,3.285,1.369,2.237,3.737-.864,4.22-1.7,3.441-1.208,3.517-.2,3.437.958,4.533,4.949,23.006,1.257,4.471,2.291,3.155,3.294,3.052,2.9,2.712,1.692,2.81-.2,3.575-1.521,2.528-2.354,2.023-2.345,1.016-3.011-.166-2.542-1.11Z" transform="translate(-842.942 -569.572)" fill="#2bc1d3"/>
        <path id="Trazado_978" data-name="Trazado 978" d="M1577.732,699.254l-.64,2.175-1.553,2.1-2.2,1.584-2.412.273-2.233-.345-1.785-1.011-1.508-1.736-.917-2.345.161-3.106,1.128-3.405.631-2.945-.063-2.636-.573-3.07-1.011-3.128-7.8-19.6-1.718-3.6-2.242-3.15-2.994-2.64-3.218-2.211-2.166-1.736-2.041-2.551-.8-3.495.219-2.9,2.009-2.824,3.455-.967,3.025-.121,2.264.7,1.342.819.416-2.3,1.186-2,2.018-1.517,3.128-.864,3.464.819,2.81,3.329-.17,4.3-1.128,3.669-.626,3.669.358,3.419,1.674,4.323,8.592,21.909,1.965,4.206,2.77,2.743,3.741,2.484,3.3,2.211,2.121,2.5.38,3.558L1589,696.6l-2,2.376-2.152,1.383-3,.322-2.689-.685Z" transform="translate(-919.276 -395.428)" fill="#2bc1d3"/>
        <path id="Trazado_981" data-name="Trazado 981" d="M1056.823,586.4l.6,2.184-.215,2.6-1.034,2.51-1.906,1.5-2.076.882-2.05.085-2.2-.68-2.023-1.508-1.495-2.73-.837-3.481-1.016-2.837-1.445-2.211-2.108-2.3-2.506-2.13-16.955-12.539-3.361-2.148-3.567-1.495-3.933-.667-3.9-.179-2.757-.336-3.079-1.092-2.519-2.546-1.347-2.578.219-3.459,2.43-2.645,2.506-1.7,2.3-.6,1.571-.013-.859-2.17-.045-2.318.913-2.358,2.206-2.385,3.374-1.123,4.144,1.342,2.126,3.75.975,3.71,1.405,3.446,2.1,2.721,3.705,2.788,18.849,14.083,3.893,2.542,3.795.868,4.488.139,3.969.139,3.123,1.007,2.2,2.819.515,2.9-.443,3.074-1.1,2.3-2.376,1.857-2.645.837Z" transform="translate(-617.232 -343.067)" fill="#2bc1d3"/>
        <path id="Trazado_984" data-name="Trazado 984" d="M1273.493,372.659l-2.22-.461-2.215-1.374-1.763-2.067-.465-2.381.157-2.251.864-1.862,1.6-1.647,2.264-1.11,3.11-.094,3.486.846,2.985.389,2.627-.277,3.007-.828,3.039-1.262,18.888-9.375,3.446-2.009,2.958-2.493,2.381-3.2,1.942-3.388,1.553-2.3,2.376-2.242,3.414-1.083,2.909-.018,2.98,1.768,1.244,3.37.371,3-.519,2.314-.7,1.405,2.323.228,2.085,1.016,1.678,1.888,1.119,3.047-.537,3.517-3.088,3.074-4.3.183-3.75-.823-3.71-.322-3.379.635-4.171,2.023-21.126,10.359-4.036,2.3-2.506,2.985-2.17,3.929-1.928,3.473-2.318,2.318-3.517.676-2.819-.868-2.533-1.794-1.553-2.032-.568-2.962.465-2.734Z" transform="translate(-767.364 -230.477)" fill="#2bc1d3"/>
        <path id="Trazado_987" data-name="Trazado 987" d="M999.151,174.005l-1.978,1.1-2.578.412-2.68-.407-1.915-1.5-1.351-1.8-.568-1.973.139-2.3.984-2.318,2.3-2.1,3.186-1.642,2.51-1.66,1.8-1.929,1.736-2.591,1.472-2.945,8.153-19.444,1.289-3.777.609-3.817-.291-3.978-.747-3.835-.336-2.761.331-3.249,1.875-3.052,2.184-1.915,3.414-.613,3.146,1.732,2.242,2.032,1.123,2.085.385,1.526,1.906-1.347,2.242-.6,2.51.331,2.837,1.575,1.893,3.007-.322,4.35-3.137,2.953-3.37,1.83-3.016,2.179-2.143,2.694-1.83,4.256-9.2,21.659-1.544,4.381.058,3.9.931,4.394.81,3.884-.237,3.271-2.219,2.81-2.7,1.19-3.088.3-2.5-.524-2.367-1.866-1.441-2.372Z" transform="translate(-613.353 -105.467)" fill="#2bc1d3"/>
        <path id="Trazado_988" data-name="Trazado 988" d="M732.044,287.319l-.792,2.121-1.7,1.987-2.3,1.428-2.425.1-2.2-.5-1.709-1.137-1.387-1.835-.752-2.4.38-3.092,1.36-3.311.837-2.9.121-2.636-.363-3.1-.788-3.191-6.408-20.092-1.468-3.71-2.018-3.3-2.8-2.842-3.056-2.43-2.041-1.884-1.857-2.689-.555-3.54.421-2.877,2.2-2.676,3.517-.725,3.025.094,2.211.859,1.28.908.573-2.26,1.32-1.911,2.126-1.374,3.182-.644,3.392,1.061,2.573,3.517-.47,4.283-1.378,3.58-.882,3.616.116,3.437,1.369,4.43,7.048,22.451,1.665,4.336,2.573,2.931,3.558,2.739,3.137,2.434,1.942,2.64.134,3.58-1.28,2.654-2.157,2.233-2.247,1.226-3.011.112-2.631-.868Z" transform="translate(-454.254 -167.27)" fill="#2bc1d3"/>
        <path id="Trazado_991" data-name="Trazado 991" d="M732.7,288.07l-.788,2.126-1.7,1.987-2.3,1.428-2.43.107-2.2-.5-1.714-1.132-1.383-1.839-.756-2.4.376-3.088,1.36-3.316.832-2.9.121-2.636-.362-3.1-.788-3.191-6.422-20.088-1.468-3.705-2.018-3.3-2.806-2.837-3.056-2.43-2.045-1.884-1.857-2.685-.555-3.54.416-2.877,2.2-2.676,3.517-.725,3.021.085,2.211.859,1.284.908.573-2.26,1.32-1.911,2.121-1.374,3.182-.649,3.392,1.061,2.578,3.517-.465,4.283-1.378,3.58-.877,3.616.116,3.441,1.374,4.426,7.057,22.446,1.669,4.336,2.573,2.927,3.558,2.739,3.141,2.43,1.942,2.64.139,3.58-1.284,2.658-2.152,2.233-2.242,1.226-3.016.116-2.631-.868Z" transform="translate(-454.596 -167.69)" fill="#2bc1d3"/>
        <path id="Trazado_992" data-name="Trazado 992" d="M1469.339,192.986l1.414,1.777.823,2.475.031,2.712-1.168,2.13-1.562,1.629-1.853.882-2.287.237-2.452-.6-2.448-1.924-2.135-2.877-2.045-2.211-2.2-1.463-2.837-1.293-3.141-.976-20.513-4.887-3.938-.658-3.866.022-3.88.931-3.661,1.365-2.667.774-3.258.2-3.32-1.351-2.246-1.848-1.155-3.267,1.195-3.388,1.642-2.542,1.875-1.45,1.441-.626-1.638-1.66-.953-2.117-.08-2.528,1.092-3.056,2.663-2.354,4.341-.389,3.423,2.613,2.354,3.03,2.64,2.622,3.007,1.674,4.5,1.114,22.867,5.562,4.573.814,3.835-.689,4.184-1.633,3.7-1.432,3.267-.3,3.132,1.732,1.611,2.47.8,3-.112,2.555-1.454,2.64-2.108,1.8Z" transform="translate(-840.378 -137.927)" fill="#2bc1d3"/>
        <path id="Trazado_993" data-name="Trazado 993" d="M1322.158,746.108l2.2.542,2.166,1.459,1.678,2.13.38,2.4-.246,2.246-.931,1.826-1.669,1.584-2.3,1.025-3.115-.031-3.45-.976-2.967-.5-2.636.179-3.038.712-3.083,1.146-19.229,8.646-3.522,1.88-3.047,2.376-2.506,3.106-2.067,3.316-1.642,2.242-2.457,2.148-3.455.953-2.9-.09-2.913-1.884-1.114-3.41-.255-3.016.6-2.3.756-1.374-2.309-.318-2.05-1.092-1.606-1.956-1-3.088.667-3.49,3.2-2.958,4.309-.018,3.714.967,3.692.461,3.4-.506,4.242-1.862,21.511-9.55,4.117-2.148,2.618-2.886,2.318-3.848,2.058-3.392,2.407-2.229,3.54-.542,2.783.976,2.461,1.888,1.477,2.09.452,2.98-.564,2.712Z" transform="translate(-760.513 -452.485)" fill="#2bc1d3"/>
      </g>
      <g id="circulos" transform="translate(-0.007 5.353)">
        <path id="Trazado_996" data-name="Trazado 996" d="M436.9,1075.565c-4.318,1.6-5.222,7.934-.613,9.8a5.213,5.213,0,0,0,6.614-7.187A5.14,5.14,0,0,0,436.9,1075.565Z" transform="translate(-140.739 -588.658)" fill="#ccc"/>
        <path id="Trazado_997" data-name="Trazado 997" d="M-141.323,710.872c-7.24,2.685-8.753,13.3-1.029,16.427a8.949,8.949,0,0,0,9.715-2.179,8.95,8.95,0,0,0,1.342-9.845C-133.027,711.8-137.556,709.476-141.323,710.872Z" transform="translate(180.107 -387.072)" fill="#ccc"/>
        <path id="Trazado_998" data-name="Trazado 998" d="M85.677,453.872c-7.24,2.685-8.753,13.3-1.029,16.427a8.735,8.735,0,0,0,11.075-12.042C93.973,454.8,89.444,452.475,85.677,453.872Z" transform="translate(54.688 -245.077)" fill="#ccc"/>
        <path id="Trazado_999" data-name="Trazado 999" d="M288.677,628.872c-7.24,2.685-8.753,13.3-1.029,16.427a8.735,8.735,0,0,0,11.075-12.042C296.973,629.8,292.444,627.475,288.677,628.872Z" transform="translate(-57.471 -341.766)" fill="#ccc"/>
        <path id="Trazado_1000" data-name="Trazado 1000" d="M76.9,532.565c-4.318,1.6-5.222,7.934-.613,9.8a5.213,5.213,0,0,0,6.614-7.187A5.14,5.14,0,0,0,76.9,532.565Z" transform="translate(58.163 -288.647)" fill="#ccc"/>
        <path id="Trazado_1001" data-name="Trazado 1001" d="M221.9,674.565c-4.318,1.6-5.222,7.934-.613,9.8a5.213,5.213,0,0,0,6.614-7.187A5.14,5.14,0,0,0,221.9,674.565Z" transform="translate(-21.951 -367.103)" fill="#ccc"/>
        <path id="Trazado_1002" data-name="Trazado 1002" d="M466.9,722.565c-4.318,1.6-5.222,7.934-.613,9.8a5.213,5.213,0,0,0,6.614-7.187A5.14,5.14,0,0,0,466.9,722.565Z" transform="translate(-157.315 -393.623)" fill="#ccc"/>
        <path id="Trazado_1003" data-name="Trazado 1003" d="M190.208,586.966c-3.034,1.123-3.665,5.567-.447,6.878A3.66,3.66,0,0,0,194.4,588.8,3.581,3.581,0,0,0,190.208,586.966Z" transform="translate(-5.045 -318.745)" fill="#ccc"/>
        <path id="Trazado_1004" data-name="Trazado 1004" d="M533.677,431.872c-7.24,2.685-8.753,13.3-1.029,16.427a8.735,8.735,0,0,0,11.075-12.042C541.973,432.8,537.444,430.475,533.677,431.872Z" transform="translate(-192.835 -232.922)" fill="#ccc"/>
        <path id="Trazado_1005" data-name="Trazado 1005" d="M497.9,484.565c-4.318,1.6-5.222,7.934-.613,9.8a5.213,5.213,0,0,0,6.614-7.187A5.14,5.14,0,0,0,497.9,484.565Z" transform="translate(-174.442 -262.126)" fill="#ccc"/>
        <path id="Trazado_1006" data-name="Trazado 1006" d="M448.208,446.966c-3.034,1.123-3.665,5.567-.448,6.878A3.661,3.661,0,0,0,452.4,448.8,3.581,3.581,0,0,0,448.208,446.966Z" transform="translate(-147.592 -241.394)" fill="#ccc"/>
        <path id="Trazado_1007" data-name="Trazado 1007" d="M571.208,652.966c-3.034,1.123-3.665,5.567-.447,6.878A3.661,3.661,0,0,0,575.4,654.8,3.582,3.582,0,0,0,571.208,652.966Z" transform="translate(-215.55 -355.21)" fill="#ccc"/>
        <path id="Trazado_1008" data-name="Trazado 1008" d="M-147.1,576.565c-4.318,1.6-5.222,7.934-.613,9.8a5.37,5.37,0,0,0,5.817-1.3,5.37,5.37,0,0,0,.814-5.885A5.172,5.172,0,0,0-147.1,576.565Z" transform="translate(181.924 -312.957)" fill="#ccc"/>
        <path id="Trazado_1009" data-name="Trazado 1009" d="M-217.792,559.967c-3.034,1.123-3.665,5.567-.447,6.878a3.754,3.754,0,0,0,4.068-.9,3.755,3.755,0,0,0,.573-4.13A3.571,3.571,0,0,0-217.792,559.967Z" transform="translate(220.378 -303.827)" fill="#ccc"/>
        <path id="Trazado_1010" data-name="Trazado 1010" d="M-75.792,765.967c-3.034,1.123-3.665,5.567-.448,6.878a3.754,3.754,0,0,0,4.068-.895,3.755,3.755,0,0,0,.573-4.13A3.571,3.571,0,0,0-75.792,765.967Z" transform="translate(141.922 -417.644)" fill="#ccc"/>
        <path id="Trazado_1011" data-name="Trazado 1011" d="M697.677,710.872c-7.24,2.685-8.753,13.3-1.029,16.427a8.735,8.735,0,0,0,11.076-12.042C705.973,711.8,701.444,709.476,697.677,710.872Z" transform="translate(-283.446 -387.071)" fill="#ccc"/>
        <path id="Trazado_1012" data-name="Trazado 1012" d="M924.677,453.872c-7.24,2.685-8.753,13.3-1.029,16.427a8.735,8.735,0,0,0,11.075-12.042C932.973,454.8,928.445,452.475,924.677,453.872Z" transform="translate(-408.865 -245.077)" fill="#ccc"/>
        <path id="Trazado_1013" data-name="Trazado 1013" d="M1194.677,593.872c-7.24,2.685-8.753,13.3-1.029,16.427a8.735,8.735,0,0,0,11.075-12.042C1202.973,594.8,1198.444,592.476,1194.677,593.872Z" transform="translate(-558.042 -322.428)" fill="#ccc"/>
        <path id="Trazado_1014" data-name="Trazado 1014" d="M915.9,532.565c-4.318,1.6-5.222,7.934-.613,9.8a5.213,5.213,0,0,0,6.614-7.187A5.14,5.14,0,0,0,915.9,532.565Z" transform="translate(-405.39 -288.647)" fill="#ccc"/>
        <path id="Trazado_1015" data-name="Trazado 1015" d="M1127.9,639.565c-4.318,1.6-5.222,7.934-.613,9.8a5.213,5.213,0,0,0,6.614-7.187A5.14,5.14,0,0,0,1127.9,639.565Z" transform="translate(-522.521 -347.765)" fill="#ccc"/>
        <path id="Trazado_1016" data-name="Trazado 1016" d="M1305.9,722.565c-4.318,1.6-5.222,7.934-.613,9.8a5.213,5.213,0,0,0,6.614-7.187A5.14,5.14,0,0,0,1305.9,722.565Z" transform="translate(-620.867 -393.623)" fill="#ccc"/>
        <path id="Trazado_1017" data-name="Trazado 1017" d="M1057.208,622.966c-3.034,1.123-3.665,5.567-.448,6.878a3.66,3.66,0,0,0,4.641-5.043A3.582,3.582,0,0,0,1057.208,622.966Z" transform="translate(-484.068 -338.635)" fill="#ccc"/>
        <path id="Trazado_1018" data-name="Trazado 1018" d="M1372.677,431.872c-7.24,2.685-8.753,13.3-1.029,16.427a8.735,8.735,0,0,0,11.076-12.042C1380.973,432.8,1376.444,430.475,1372.677,431.872Z" transform="translate(-656.388 -232.922)" fill="#ccc"/>
        <path id="Trazado_1019" data-name="Trazado 1019" d="M1336.9,484.565c-4.318,1.6-5.222,7.934-.613,9.8a5.213,5.213,0,0,0,6.614-7.187A5.14,5.14,0,0,0,1336.9,484.565Z" transform="translate(-637.995 -262.126)" fill="#ccc"/>
        <path id="Trazado_1020" data-name="Trazado 1020" d="M1287.208,446.966c-3.034,1.123-3.665,5.567-.448,6.878a3.661,3.661,0,0,0,4.641-5.043A3.582,3.582,0,0,0,1287.208,446.966Z" transform="translate(-611.145 -241.394)" fill="#ccc"/>
        <path id="Trazado_1021" data-name="Trazado 1021" d="M1410.208,652.966c-3.034,1.123-3.665,5.567-.448,6.878a3.661,3.661,0,0,0,4.641-5.043A3.581,3.581,0,0,0,1410.208,652.966Z" transform="translate(-679.103 -355.21)" fill="#ccc"/>
        <path id="Trazado_1022" data-name="Trazado 1022" d="M691.9,576.565c-4.318,1.6-5.222,7.934-.613,9.8a5.213,5.213,0,0,0,6.614-7.187A5.14,5.14,0,0,0,691.9,576.565Z" transform="translate(-281.629 -312.957)" fill="#ccc"/>
        <path id="Trazado_1023" data-name="Trazado 1023" d="M621.208,559.966c-3.034,1.123-3.665,5.567-.447,6.878A3.661,3.661,0,0,0,625.4,561.8,3.581,3.581,0,0,0,621.208,559.966Z" transform="translate(-243.175 -303.827)" fill="#ccc"/>
        <path id="Trazado_1024" data-name="Trazado 1024" d="M763.208,765.966c-3.034,1.123-3.665,5.567-.447,6.878A3.661,3.661,0,0,0,767.4,767.8,3.581,3.581,0,0,0,763.208,765.966Z" transform="translate(-321.631 -417.643)" fill="#ccc"/>
        <path id="Trazado_1025" data-name="Trazado 1025" d="M-141.323,295.872c-7.24,2.685-8.753,13.3-1.029,16.427a8.95,8.95,0,0,0,9.715-2.179,8.95,8.95,0,0,0,1.342-9.845C-133.027,296.8-137.556,294.476-141.323,295.872Z" transform="translate(180.107 -157.781)" fill="#ccc"/>
        <path id="Trazado_1026" data-name="Trazado 1026" d="M85.677,38.872c-7.24,2.685-8.753,13.3-1.029,16.427A8.735,8.735,0,0,0,95.723,43.257C93.973,39.8,89.444,37.475,85.677,38.872Z" transform="translate(54.688 -15.787)" fill="#ccc"/>
        <path id="Trazado_1027" data-name="Trazado 1027" d="M265.677,298.872c-7.24,2.685-8.753,13.3-1.029,16.427a8.735,8.735,0,0,0,11.075-12.042C273.973,299.8,269.444,297.475,265.677,298.872Z" transform="translate(-44.764 -159.439)" fill="#ccc"/>
        <path id="Trazado_1028" data-name="Trazado 1028" d="M76.9,117.565c-4.318,1.6-5.222,7.934-.613,9.8a5.213,5.213,0,0,0,6.614-7.187A5.14,5.14,0,0,0,76.9,117.565Z" transform="translate(58.163 -59.356)" fill="#ccc"/>
        <path id="Trazado_1029" data-name="Trazado 1029" d="M198.9,344.565c-4.318,1.6-5.222,7.934-.613,9.8a5.213,5.213,0,0,0,6.614-7.187A5.14,5.14,0,0,0,198.9,344.565Z" transform="translate(-9.243 -184.775)" fill="#ccc"/>
        <path id="Trazado_1030" data-name="Trazado 1030" d="M466.9,307.565c-4.318,1.6-5.222,7.934-.613,9.8a5.213,5.213,0,0,0,6.614-7.187A5.14,5.14,0,0,0,466.9,307.565Z" transform="translate(-157.315 -164.333)" fill="#ccc"/>
        <path id="Trazado_1031" data-name="Trazado 1031" d="M151.208,242.966c-3.034,1.123-3.665,5.567-.448,6.878A3.661,3.661,0,0,0,155.4,244.8,3.581,3.581,0,0,0,151.208,242.966Z" transform="translate(16.503 -128.682)" fill="#ccc"/>
        <path id="Trazado_1032" data-name="Trazado 1032" d="M367.208-12.034c-3.034,1.123-3.665,5.567-.448,6.878a3.755,3.755,0,0,0,4.068-.895,3.754,3.754,0,0,0,.573-4.13A3.571,3.571,0,0,0,367.208-12.034Z" transform="translate(-102.839 12.206)" fill="#ccc"/>
        <path id="Trazado_1033" data-name="Trazado 1033" d="M533.677,16.872c-7.24,2.685-8.753,13.3-1.029,16.427A8.715,8.715,0,0,0,543.7,21.275C541.973,17.8,537.444,15.476,533.677,16.872Z" transform="translate(-192.835 -3.632)" fill="#ccc"/>
        <path id="Trazado_1034" data-name="Trazado 1034" d="M497.9,69.565c-4.318,1.6-5.222,7.934-.613,9.8a5.213,5.213,0,0,0,6.614-7.187A5.14,5.14,0,0,0,497.9,69.565Z" transform="translate(-174.442 -32.836)" fill="#ccc"/>
        <path id="Trazado_1035" data-name="Trazado 1035" d="M448.208,31.966c-3.034,1.123-3.665,5.567-.448,6.878a3.66,3.66,0,0,0,4.654-5.043A3.605,3.605,0,0,0,448.208,31.966Z" transform="translate(-147.592 -12.104)" fill="#ccc"/>
        <path id="Trazado_1036" data-name="Trazado 1036" d="M571.208,237.966c-3.034,1.123-3.665,5.567-.447,6.878A3.66,3.66,0,0,0,575.4,239.8,3.582,3.582,0,0,0,571.208,237.966Z" transform="translate(-215.55 -125.92)" fill="#ccc"/>
        <path id="Trazado_1037" data-name="Trazado 1037" d="M-147.1,161.565c-4.318,1.6-5.222,7.934-.613,9.8a5.37,5.37,0,0,0,5.817-1.3,5.37,5.37,0,0,0,.814-5.885A5.172,5.172,0,0,0-147.1,161.565Z" transform="translate(181.924 -83.667)" fill="#ccc"/>
        <path id="Trazado_1038" data-name="Trazado 1038" d="M-217.792,144.967c-3.034,1.123-3.665,5.567-.447,6.878a3.754,3.754,0,0,0,4.068-.895,3.754,3.754,0,0,0,.573-4.13A3.571,3.571,0,0,0-217.792,144.967Z" transform="translate(220.378 -74.537)" fill="#ccc"/>
        <path id="Trazado_1039" data-name="Trazado 1039" d="M-75.792,350.966c-3.034,1.123-3.665,5.567-.448,6.878a3.755,3.755,0,0,0,4.068-.895,3.755,3.755,0,0,0,.573-4.13A3.571,3.571,0,0,0-75.792,350.966Z" transform="translate(141.922 -188.353)" fill="#ccc"/>
        <path id="Trazado_1040" data-name="Trazado 1040" d="M697.677,295.872c-7.24,2.685-8.753,13.3-1.029,16.427a8.735,8.735,0,0,0,11.076-12.042C705.973,296.8,701.444,294.475,697.677,295.872Z" transform="translate(-283.446 -157.781)" fill="#ccc"/>
        <path id="Trazado_1041" data-name="Trazado 1041" d="M924.677,38.872c-7.24,2.685-8.753,13.3-1.029,16.427a8.735,8.735,0,0,0,11.075-12.042C932.973,39.8,928.445,37.475,924.677,38.872Z" transform="translate(-408.865 -15.787)" fill="#ccc"/>
        <path id="Trazado_1042" data-name="Trazado 1042" d="M1127.677,213.872c-7.241,2.685-8.753,13.3-1.029,16.427a8.735,8.735,0,0,0,11.075-12.042C1135.973,214.8,1131.445,212.475,1127.677,213.872Z" transform="translate(-521.024 -112.476)" fill="#ccc"/>
        <path id="Trazado_1043" data-name="Trazado 1043" d="M988.9,154.565c-4.318,1.6-5.222,7.934-.613,9.8a5.213,5.213,0,0,0,6.614-7.187A5.14,5.14,0,0,0,988.9,154.565Z" transform="translate(-445.723 -79.799)" fill="#ccc"/>
        <path id="Trazado_1044" data-name="Trazado 1044" d="M1060.9,259.565c-4.318,1.6-5.222,7.934-.613,9.8a5.213,5.213,0,0,0,6.614-7.187A5.14,5.14,0,0,0,1060.9,259.565Z" transform="translate(-485.503 -137.812)" fill="#ccc"/>
        <path id="Trazado_1045" data-name="Trazado 1045" d="M1305.9,307.565c-4.318,1.6-5.222,7.934-.613,9.8a5.213,5.213,0,0,0,6.614-7.187A5.14,5.14,0,0,0,1305.9,307.565Z" transform="translate(-620.867 -164.333)" fill="#ccc"/>
        <path id="Trazado_1046" data-name="Trazado 1046" d="M990.208,242.966c-3.034,1.123-3.665,5.567-.447,6.878a3.66,3.66,0,0,0,4.64-5.043A3.581,3.581,0,0,0,990.208,242.966Z" transform="translate(-447.05 -128.682)" fill="#ccc"/>
        <path id="Trazado_1047" data-name="Trazado 1047" d="M1372.677,16.872c-7.24,2.685-8.753,13.3-1.029,16.427A8.715,8.715,0,0,0,1382.7,21.275C1380.973,17.8,1376.444,15.476,1372.677,16.872Z" transform="translate(-656.388 -3.632)" fill="#ccc"/>
        <path id="Trazado_1048" data-name="Trazado 1048" d="M1336.9,69.565c-4.318,1.6-5.222,7.934-.613,9.8a5.213,5.213,0,0,0,6.614-7.187A5.14,5.14,0,0,0,1336.9,69.565Z" transform="translate(-637.995 -32.836)" fill="#ccc"/>
        <path id="Trazado_1049" data-name="Trazado 1049" d="M1287.208,31.966c-3.034,1.123-3.665,5.567-.448,6.878A3.661,3.661,0,0,0,1291.4,33.8,3.582,3.582,0,0,0,1287.208,31.966Z" transform="translate(-611.145 -12.104)" fill="#ccc"/>
        <path id="Trazado_1050" data-name="Trazado 1050" d="M1410.208,237.966c-3.034,1.123-3.665,5.567-.448,6.878a3.661,3.661,0,0,0,4.641-5.043A3.582,3.582,0,0,0,1410.208,237.966Z" transform="translate(-679.103 -125.92)" fill="#ccc"/>
        <path id="Trazado_1051" data-name="Trazado 1051" d="M691.9,161.565c-4.318,1.6-5.222,7.934-.613,9.8a5.213,5.213,0,0,0,6.614-7.187A5.14,5.14,0,0,0,691.9,161.565Z" transform="translate(-281.629 -83.667)" fill="#ccc"/>
        <path id="Trazado_1052" data-name="Trazado 1052" d="M621.208,144.966c-3.034,1.123-3.665,5.567-.447,6.878A3.661,3.661,0,0,0,625.4,146.8,3.582,3.582,0,0,0,621.208,144.966Z" transform="translate(-243.175 -74.537)" fill="#ccc"/>
        <path id="Trazado_1053" data-name="Trazado 1053" d="M763.208,350.966c-3.034,1.123-3.665,5.567-.447,6.878A3.661,3.661,0,0,0,767.4,352.8,3.582,3.582,0,0,0,763.208,350.966Z" transform="translate(-321.631 -188.353)" fill="#ccc"/>
        <path id="Trazado_1054" data-name="Trazado 1054" d="M-141.323,1122.872c-7.24,2.685-8.753,13.3-1.029,16.428a8.95,8.95,0,0,0,9.715-2.179,8.95,8.95,0,0,0,1.342-9.845C-133.027,1123.8-137.556,1121.476-141.323,1122.872Z" transform="translate(180.107 -614.704)" fill="#ccc"/>
        <path id="Trazado_1055" data-name="Trazado 1055" d="M85.677,865.872c-7.24,2.685-8.753,13.3-1.029,16.428a8.735,8.735,0,0,0,11.075-12.042C93.973,866.8,89.444,864.475,85.677,865.872Z" transform="translate(54.688 -472.71)" fill="#ccc"/>
        <path id="Trazado_1056" data-name="Trazado 1056" d="M268.677,1064.872c-7.24,2.685-8.753,13.3-1.029,16.428a8.735,8.735,0,0,0,11.075-12.042C276.973,1065.8,272.444,1063.475,268.677,1064.872Z" transform="translate(-46.421 -582.659)" fill="#ccc"/>
        <path id="Trazado_1057" data-name="Trazado 1057" d="M76.9,944.565c-4.318,1.6-5.222,7.934-.613,9.8a5.213,5.213,0,0,0,6.614-7.187A5.14,5.14,0,0,0,76.9,944.565Z" transform="translate(58.163 -516.279)" fill="#ccc"/>
        <path id="Trazado_1058" data-name="Trazado 1058" d="M201.9,1110.565c-4.318,1.6-5.222,7.934-.613,9.8a5.213,5.213,0,0,0,6.614-7.187A5.14,5.14,0,0,0,201.9,1110.565Z" transform="translate(-10.9 -607.995)" fill="#ccc"/>
        <path id="Trazado_1059" data-name="Trazado 1059" d="M190.208,985.966c-3.034,1.123-3.665,5.567-.447,6.878A3.661,3.661,0,0,0,194.4,987.8,3.581,3.581,0,0,0,190.208,985.966Z" transform="translate(-5.045 -539.195)" fill="#ccc"/>
        <path id="Trazado_1060" data-name="Trazado 1060" d="M533.677,843.872c-7.24,2.685-8.753,13.3-1.029,16.427a8.735,8.735,0,0,0,11.075-12.042C541.973,844.8,537.444,842.476,533.677,843.872Z" transform="translate(-192.835 -460.555)" fill="#ccc"/>
        <path id="Trazado_1061" data-name="Trazado 1061" d="M497.9,896.565c-4.318,1.6-5.222,7.934-.613,9.8a5.213,5.213,0,0,0,6.614-7.187A5.14,5.14,0,0,0,497.9,896.565Z" transform="translate(-174.442 -489.759)" fill="#ccc"/>
        <path id="Trazado_1062" data-name="Trazado 1062" d="M448.208,858.966c-3.034,1.123-3.665,5.567-.448,6.878A3.66,3.66,0,0,0,452.4,860.8,3.581,3.581,0,0,0,448.208,858.966Z" transform="translate(-147.592 -469.026)" fill="#ccc"/>
        <path id="Trazado_1063" data-name="Trazado 1063" d="M571.208,1036.966c-3.034,1.123-3.665,5.567-.447,6.878a3.661,3.661,0,0,0,4.641-5.043A3.582,3.582,0,0,0,571.208,1036.966Z" transform="translate(-215.55 -567.372)" fill="#ccc"/>
        <path id="Trazado_1064" data-name="Trazado 1064" d="M-147.1,988.565c-4.318,1.6-5.222,7.934-.613,9.8a5.37,5.37,0,0,0,5.817-1.3,5.37,5.37,0,0,0,.814-5.884A5.172,5.172,0,0,0-147.1,988.565Z" transform="translate(181.924 -540.59)" fill="#ccc"/>
        <path id="Trazado_1065" data-name="Trazado 1065" d="M-217.792,971.966c-3.034,1.123-3.665,5.567-.447,6.878a3.755,3.755,0,0,0,4.068-.9,3.755,3.755,0,0,0,.573-4.13A3.571,3.571,0,0,0-217.792,971.966Z" transform="translate(220.378 -531.46)" fill="#ccc"/>
        <path id="Trazado_1066" data-name="Trazado 1066" d="M-75.792,1177.967c-3.034,1.123-3.665,5.567-.448,6.878a3.754,3.754,0,0,0,4.068-.9,3.754,3.754,0,0,0,.573-4.13A3.571,3.571,0,0,0-75.792,1177.967Z" transform="translate(141.922 -645.276)" fill="#ccc"/>
        <path id="Trazado_1067" data-name="Trazado 1067" d="M683.677,1071.872c-7.24,2.685-8.753,13.3-1.029,16.427a8.735,8.735,0,0,0,11.076-12.042C691.973,1072.8,687.445,1070.475,683.677,1071.872Z" transform="translate(-275.711 -586.526)" fill="#ccc"/>
        <path id="Trazado_1068" data-name="Trazado 1068" d="M924.677,865.872c-7.24,2.685-8.753,13.3-1.029,16.428a8.735,8.735,0,0,0,11.075-12.042C932.973,866.8,928.445,864.475,924.677,865.872Z" transform="translate(-408.865 -472.71)" fill="#ccc"/>
        <path id="Trazado_1069" data-name="Trazado 1069" d="M1082.677,1030.872c-7.24,2.685-8.753,13.3-1.029,16.427a8.735,8.735,0,0,0,11.075-12.042C1090.973,1031.8,1086.445,1029.476,1082.677,1030.872Z" transform="translate(-496.161 -563.873)" fill="#ccc"/>
        <path id="Trazado_1070" data-name="Trazado 1070" d="M915.9,944.565c-4.318,1.6-5.222,7.934-.613,9.8a5.213,5.213,0,0,0,6.614-7.187A5.14,5.14,0,0,0,915.9,944.565Z" transform="translate(-405.39 -516.279)" fill="#ccc"/>
        <path id="Trazado_1071" data-name="Trazado 1071" d="M987.9,1067.565c-4.318,1.6-5.222,7.934-.613,9.8a5.213,5.213,0,0,0,6.614-7.187A5.14,5.14,0,0,0,987.9,1067.565Z" transform="translate(-445.17 -584.237)" fill="#ccc"/>
        <path id="Trazado_1072" data-name="Trazado 1072" d="M1305.9,1134.565c-4.318,1.6-5.222,7.934-.613,9.8a5.213,5.213,0,0,0,6.614-7.187A5.14,5.14,0,0,0,1305.9,1134.565Z" transform="translate(-620.867 -621.256)" fill="#ccc"/>
        <path id="Trazado_1073" data-name="Trazado 1073" d="M958.208,1156.967c-3.034,1.123-3.665,5.567-.447,6.878a3.661,3.661,0,0,0,4.641-5.043A3.581,3.581,0,0,0,958.208,1156.967Z" transform="translate(-429.37 -633.674)" fill="#ccc"/>
        <path id="Trazado_1074" data-name="Trazado 1074" d="M1372.677,843.872c-7.24,2.685-8.753,13.3-1.029,16.427a8.735,8.735,0,0,0,11.076-12.042C1380.973,844.8,1376.444,842.476,1372.677,843.872Z" transform="translate(-656.388 -460.555)" fill="#ccc"/>
        <path id="Trazado_1075" data-name="Trazado 1075" d="M1336.9,896.565c-4.318,1.6-5.222,7.934-.613,9.8a5.213,5.213,0,0,0,6.614-7.187A5.14,5.14,0,0,0,1336.9,896.565Z" transform="translate(-637.995 -489.759)" fill="#ccc"/>
        <path id="Trazado_1076" data-name="Trazado 1076" d="M1287.208,858.966c-3.034,1.123-3.665,5.567-.448,6.878a3.661,3.661,0,0,0,4.641-5.043A3.582,3.582,0,0,0,1287.208,858.966Z" transform="translate(-611.145 -469.026)" fill="#ccc"/>
        <path id="Trazado_1077" data-name="Trazado 1077" d="M1421.208,1166.966c-3.034,1.123-3.665,5.567-.447,6.878a3.661,3.661,0,0,0,4.641-5.043A3.581,3.581,0,0,0,1421.208,1166.966Z" transform="translate(-685.18 -639.198)" fill="#ccc"/>
        <path id="Trazado_1078" data-name="Trazado 1078" d="M691.9,988.565c-4.318,1.6-5.222,7.934-.613,9.8a5.213,5.213,0,0,0,6.614-7.187A5.14,5.14,0,0,0,691.9,988.565Z" transform="translate(-281.629 -540.59)" fill="#ccc"/>
        <path id="Trazado_1079" data-name="Trazado 1079" d="M542.9,1180.565c-4.318,1.6-5.222,7.934-.613,9.8a5.213,5.213,0,0,0,6.614-7.187A5.14,5.14,0,0,0,542.9,1180.565Z" transform="translate(-199.305 -646.671)" fill="#ccc"/>
        <path id="Trazado_1080" data-name="Trazado 1080" d="M621.208,971.966c-3.034,1.123-3.665,5.567-.447,6.878A3.661,3.661,0,0,0,625.4,973.8,3.582,3.582,0,0,0,621.208,971.966Z" transform="translate(-243.175 -531.46)" fill="#ccc"/>
        <path id="Trazado_1081" data-name="Trazado 1081" d="M724.208,1177.966c-3.034,1.123-3.665,5.567-.448,6.878a3.66,3.66,0,0,0,4.641-5.043A3.581,3.581,0,0,0,724.208,1177.966Z" transform="translate(-300.084 -645.276)" fill="#ccc"/>
      </g>
    </g>
  </g>
</svg>
