<svg id="percentage" xmlns="http://www.w3.org/2000/svg" width="24.949" height="25.462" viewBox="0 0 24.949 25.462">
  <g id="Grupo_156" data-name="Grupo 156">
    <circle id="Elipse_62" data-name="Elipse 62" cx="1.064" cy="1.064" r="1.064" transform="translate(8.027 9.504)" fill="#d63031"/>
    <circle id="Elipse_63" data-name="Elipse 63" cx="1.064" cy="1.064" r="1.064" transform="translate(14.788 13.824)" fill="#d63031"/>
    <path id="Trazado_336" data-name="Trazado 336" d="M29.548,14.137l-.386-.527a1.661,1.661,0,0,1-.016-1.936l.376-.532a1.661,1.661,0,0,0-.574-2.421l-.574-.308a1.654,1.654,0,0,1-.85-1.737l.11-.642A1.657,1.657,0,0,0,26.068,4.1l-.652-.026a1.663,1.663,0,0,1-1.523-1.195l-.183-.626A1.654,1.654,0,0,0,21.461,1.2l-.6.256a1.653,1.653,0,0,1-1.889-.417L18.539.551a1.654,1.654,0,0,0-2.483.021l-.428.49a1.659,1.659,0,0,1-1.883.443l-.605-.25a1.661,1.661,0,0,0-2.233,1.1l-.172.631A1.648,1.648,0,0,1,9.231,4.2l-.652.037A1.656,1.656,0,0,0,7.045,6.191l.12.642A1.654,1.654,0,0,1,6.341,8.58L5.772,8.9a1.656,1.656,0,0,0-.532,2.426l.386.527a1.661,1.661,0,0,1,.016,1.936l-.376.532A1.661,1.661,0,0,0,5.84,16.74l.574.308a1.654,1.654,0,0,1,.85,1.737l-.11.642a1.657,1.657,0,0,0,1.565,1.93l.652.026A1.663,1.663,0,0,1,10.9,22.578l.183.626a1.654,1.654,0,0,0,2.249,1.059l.6-.256a1.653,1.653,0,0,1,1.889.417l.433.485a1.654,1.654,0,0,0,2.483-.021l.428-.49a1.659,1.659,0,0,1,1.883-.443l.605.25a1.661,1.661,0,0,0,2.233-1.1l.172-.631a1.648,1.648,0,0,1,1.5-1.216l.652-.037a1.656,1.656,0,0,0,1.534-1.956l-.12-.642a1.654,1.654,0,0,1,.824-1.748l.569-.318A1.654,1.654,0,0,0,29.548,14.137ZM11.438,10.568a2.567,2.567,0,1,1,2.567,2.567A2.565,2.565,0,0,1,11.438,10.568ZM14.5,17.189a.628.628,0,0,1-.882.083h0a.628.628,0,0,1-.083-.882l6.736-8.113a.626.626,0,1,1,.965.8Zm6.271.266a2.567,2.567,0,1,1,2.567-2.567A2.565,2.565,0,0,1,20.772,17.455Z" transform="translate(-4.919 0)" fill="#d63031"/>
  </g>
</svg>
