<svg xmlns="http://www.w3.org/2000/svg" xmlns:xlink="http://www.w3.org/1999/xlink" width="57.672" height="51.462" viewBox="0 0 57.672 51.462">
  <defs>
    <clipPath id="clip-path">
      <rect width="57.672" height="51.462" fill="none"/>
    </clipPath>
  </defs>
  <g id="perro-mediano" clip-path="url(#clip-path)">
    <g id="perro-mediano-2" data-name="perro-mediano">
      <path id="Trazado_480" data-name="Trazado 480" d="M928.933,464.5c-.891,2.441-3.013,2.763-5,3.309-2.157.592-4.3,1.259-6.476,1.759a16.629,16.629,0,0,1-3.21.222c-2.408.069-4.82.052-7.223.186a2.087,2.087,0,0,1-2.1-.869,6.294,6.294,0,0,0-1.435-1.472c-.33-.238-1.107-.413-1.239-.252a1.855,1.855,0,0,0-.31,1.377,4.688,4.688,0,0,0,.752,1.627c.384.58.222.927-.168,1.455-2.336,3.167-4.534,6.28-4.967,10.508a20.1,20.1,0,0,1-3.766,9.247,3.773,3.773,0,0,1-1.48,1.4c-1.249.489-1.326,1.416-1.316,2.492.018,2.064-.06,4.133.055,6.191.031.558.531,1.454.958,1.549a10.93,10.93,0,0,0,2.856-.082,4.164,4.164,0,0,0-.112-1.112,12.4,12.4,0,0,1-1.017-2.353,6.13,6.13,0,0,1,2.019-6.056c2.007-1.694,3.9-3.523,5.786-5.357a20.779,20.779,0,0,0,1.924-2.411c.667-.88,1.306-1.781,2-2.734,1.544,2.848,1.121,5.612-1.09,7.541a1.759,1.759,0,0,0-.633,2.059c.465,1.387.967,2.763,1.4,4.161.834,2.713,4.247,3.219,6.272,2.131a2.792,2.792,0,0,0-2.185-1.68,2.847,2.847,0,0,1-1.6-1.188,3.714,3.714,0,0,1,.56-4.649,13.632,13.632,0,0,0,4.767-10.219c.4.159.716.252,1,.4,2.008,1.054,3.95,2.267,6.037,3.128a13.036,13.036,0,0,0,4.17.714,1.531,1.531,0,0,1,1.641,1.459c.458,3.574,1.384,7.114.847,10.772a7.515,7.515,0,0,0,.064,1.415c.086,1.793.114,3.592.282,5.378.066.7.314,1.862.707,1.967a11.027,11.027,0,0,0,3.107-.006,3.669,3.669,0,0,0-.123-1.128c-.318-.709-1.1-1.39-1.062-2.049.2-3.736.587-7.462.925-11.189A.92.92,0,0,1,931,491.5c-.138,1.969-.378,3.937-.383,5.906a20.583,20.583,0,0,0,.508,4.6c.1.454,1,.948,1.587,1.015a5.624,5.624,0,0,0,2.177-.481,2.931,2.931,0,0,0-.161-.962c-.191-.565-.668-1.128-.63-1.663.337-4.643.643-9.294,1.23-13.908a10.2,10.2,0,0,1,1.862-4.175,8.241,8.241,0,0,0,1.286-6.029c-.2-1.537-.39-3.078-.655-4.605a1.847,1.847,0,0,0-.626-1.123C934.536,468.235,931.841,466.45,928.933,464.5Z" transform="translate(-890.98 -455.177)" fill="#2bc1d3"/>
      <path id="Trazado_486" data-name="Trazado 486" d="M1045.149,435.7l7.955,5.354,1.584-2.093c1.188,1.481,2.38,1.862,3.842,1.12.243-.123.653.091.988.142a2.971,2.971,0,0,0,3.258-3.706c-.07-.2-.19-.456-.12-.61.508-1.114-.375-1.381-1.026-1.848a1.632,1.632,0,0,1-.719-.954c-.187-2.748-1.9-4.283-4.615-4.039-.128.011-.314.079-.377.02-1.361-1.29-2.837-.091-4.252-.184-1.569-.1-1.956.364-2.284,1.925a2.991,2.991,0,0,1-.795,1.257C1047.49,433.283,1046.349,434.445,1045.149,435.7Z" transform="translate(-1005.244 -428.484)" fill="#2bc1d3"/>
    </g>
  </g>
</svg>
