<svg xmlns="http://www.w3.org/2000/svg" width="87.858" height="86.145" viewBox="0 0 87.858 86.145">
  <g id="perro-grande" transform="translate(-925.177 -329.057)">
    <path id="Trazado_490" data-name="Trazado 490" d="M449.578,305.973c-.6,1.126-1.2,2.248-1.788,3.381-.724,1.4-1.423,2.822-2.148,4.227a3.142,3.142,0,0,1-.619.954c-3.614,3.139-5.743,7.365-8.435,11.308l11.722,7.872c.539-1.592.939-3.088,1.545-4.495.9-2.088,2.4-2.627,4.526-1.795,3.195,1.253,5.163.424,6.514-2.746,1.429-3.353,1.426-3.347-1.777-4.934a15,15,0,0,1-2.016-1.151c-.319-.226-.705-.659-.7-.991.036-1.886-1.328-2.6-2.669-3.3-2.33-1.209-2.389-1.31-2.22-3.916a15.1,15.1,0,0,0-.252-3.9l-.789,1.04-.38-1.551Z" transform="translate(551.225 23.084)" fill="#2bc1d3"/>
    <path id="Trazado_491" data-name="Trazado 491" d="M267.5,403.166a1.272,1.272,0,0,1,.544,1.745,27.091,27.091,0,0,0-1.241,7.351c-.332,4.106-1.47,7.948-4.4,11.076a3.558,3.558,0,0,0-.691,1.883c-.61,4.526-1.3,9.047-1.7,13.593-.327,3.771-.343,7.572-.374,11.361a3.759,3.759,0,0,0,2.373,3.8A3.709,3.709,0,0,1,263.6,455.6c.89,1.655.634,2.176-1.212,2.218-2.136.048-4.529.447-5.458-2.423-.1-.313-.7-.6-1.1-.653a26.5,26.5,0,0,0-2.691-.077,2.215,2.215,0,0,1-2.034-1.329c-1.5-2.8-1.714-5.939-1.758-8.923-.077-5.244.471-10.5.746-15.748a9.114,9.114,0,0,0-.078-1.131c-2.2-.25-4.312-.4-6.392-.741q-10.714-1.738-21.409-3.6a1.457,1.457,0,0,0-1.709.737,19.479,19.479,0,0,1-1.838,2.5c-3.087,3.427-6.108,6.923-9.357,10.192-3.068,3.087-3.95,6.79-3.651,10.89a4.517,4.517,0,0,0,1.279,2.786,5.908,5.908,0,0,1,1.789,4.2c-3.448,1.188-5.939-.289-6.36-3.815-.209-1.748-.116-3.529-.226-5.292-.091-1.462-.28-2.917-.447-4.592-.354.325-.489.427-.6.552-.225.261-.451.523-.652.8-1.938,2.7-2.35,5.794-2.209,8.986a3.511,3.511,0,0,0,.918,2.093,4.324,4.324,0,0,1,1.448,3.444,1.467,1.467,0,0,1-.767,1.053c-2.894,1.027-5.1-1-5.185-3.806-.129-4.046.038-8.1.152-12.152a6.161,6.161,0,0,1,.615-2.2c.433-.989,1.459-1.5,1.631-2.847.261-2.043,1.382-3.971,1.689-6.015.678-4.513,1.08-9.068,1.587-13.606.75-6.7,4.676-10.742,10.991-12.286a135.085,135.085,0,0,1,14.122-2.384c6.617-.888,13.268-1.521,19.89-2.376,3.684-.476,7-1.822,9.368-4.9a2.149,2.149,0,0,1,.382-.289C259.257,397.663,263.358,400.445,267.5,403.166Zm-69.1,32.972c4.455-4.424,4.464-9.894,3.654-15.525C200.879,425.819,200.671,431.216,198.4,436.138Zm55.264,11.242c-.068,1.336.239,2.7,1.809,3.233.068.023.157-.016.306-.035,0-.2.087-.489-.013-.588-1.011-.99-.687-2.191-.665-3.391.064-3.443.036-6.887.03-10.33a5.9,5.9,0,0,0-.162-.972l-.449.009C254.228,439.329,253.872,443.351,253.668,447.38Z" transform="translate(730.578 -42.791)" fill="#2bc1d3"/>
  </g>
</svg>
