<svg id="perro-pequeño" xmlns="http://www.w3.org/2000/svg" width="35.838" height="32.946" viewBox="0 0 35.838 32.946">
  <path id="Trazado_483" data-name="Trazado 483" d="M967.128,181.629c-.188-.352-.289-.832-.581-1.034a2.751,2.751,0,0,1-1.034-2.874c.188-1.667.47-3.323.731-4.982a1.161,1.161,0,0,1,.282-.692c2.11-1.658,2.417-4.069,2.748-6.472.123-.891.221-1.785.331-2.68a4.386,4.386,0,0,0-.473-.293c-1.963-.874-3.928-1.742-5.967-2.644-1.517,2.055-3.749,2.412-6.066,2.6-3.513.28-7.02.639-10.537.839a2.579,2.579,0,0,1-1.687-.944,8.643,8.643,0,0,1-1.9-5.379c-.047-.673-.008-1.352-.108-2.026a8.629,8.629,0,0,0,.04,6.593,9.974,9.974,0,0,1,.231,5.962c-.362,1.372-.52,2.809-.994,4.136a20.41,20.41,0,0,1-1.6,2.722,6.984,6.984,0,0,0-.922,2.111,13.143,13.143,0,0,0-.018,2.968c.138,2.021,1.214,2.884,3.185,2.558.265-1.458-2.413-2.2-1.191-3.709a12.442,12.442,0,0,0,1.59,2.454c.357.355,1.225.2,2.166.3a9.717,9.717,0,0,0-.677-1.355,3.223,3.223,0,0,1,.416-4.8c1.733-1.339,3.61-2.494,5.448-3.693a1.31,1.31,0,0,1,.852-.035c2.792.526,5.586,1.043,8.361,1.649a1.391,1.391,0,0,1,.784,1.006c.185,1.7.217,3.412.37,5.115a2.1,2.1,0,0,0,2.317,2.087,7.365,7.365,0,0,1,1.305.383c.8.182,1.606.326,2.41.487Z" transform="translate(-939.527 -149.217)" fill="#2bc1d3"/>
  <path id="Trazado_488" data-name="Trazado 488" d="M1035.852,132.524v.994l-1.556-.294c.288,1.467.574,2.793.794,4.13a2.359,2.359,0,0,1-.125,1.178c-.428,1.109-.922,2.193-1.386,3.274a2.69,2.69,0,0,0,.4.3c1.84.826,3.682,1.645,5.08,2.269,1.553-.663,2.806-1.1,3.955-1.725a5.578,5.578,0,0,0,1.849-1.639c.4-.566.274-1.185-.659-1.415a1.855,1.855,0,0,1-1.033-1.015,3.766,3.766,0,0,0-3.044-2.649,1.708,1.708,0,0,1-1.55-1.239A3.647,3.647,0,0,0,1035.852,132.524Z" transform="translate(-1009.234 -132.524)" fill="#2bc1d3"/>
</svg>
