<svg id="Plant" xmlns="http://www.w3.org/2000/svg" width="185.66" height="323.336" viewBox="0 0 185.66 323.336">
  <g id="Grupo_411" data-name="Grupo 411" transform="translate(0)">
    <g id="Grupo_390" data-name="Grupo 390">
      <g id="Grupo_389" data-name="Grupo 389">
        <g id="Grupo_388" data-name="Grupo 388">
          <path id="Trazado_534" data-name="Trazado 534" d="M583.1,551.511c-35.657-23.343-44.709-68.028-44.315-108.4.066-6.74-.856-13.823,2.244-19.807s10.573-10.2,16.753-7.512c5.123,2.232,7.475,8,10.428,12.741a39.721,39.721,0,0,0,16.371,14.7c4.4,2.124,9.808,3.355,14.038.917,5.808-3.348,6.306-11.387,6.1-18.082q-.578-18.721-1.155-37.44c-.206-6.7-.4-13.535,1.562-19.939s6.472-12.422,12.885-14.36,14.485,1.543,16.008,8.066c.633,2.713.14,5.557.395,8.334s1.646,5.82,4.341,6.529c2.727.721,5.393-1.243,7.375-3.25,6.84-6.931,11.377-15.755,15.608-24.525s8.321-17.737,14.5-25.266,14.823-13.582,24.528-14.355,20.2,4.9,22.89,14.252c2.693,9.381-2.654,19.1-8.54,26.885A150.546,150.546,0,0,1,684.3,381.421c-2.1,1.548-4.38,3.223-5.141,5.724-1.361,4.5,3.034,8.834,7.534,10.193,5.1,1.543,10.575.893,15.882,1.381s11.093,2.654,13.219,7.542c2.945,6.779-2.681,14.092-8.272,18.929a130.033,130.033,0,0,1-37.867,22.794c-4.947,1.923-10.161,3.632-14.1,7.188s-6.222,9.636-3.676,14.291,8.829,6.026,14.033,4.944,9.82-3.993,14.752-5.969c9.241-3.7,21.3-3.35,27.468,4.461,4.052,5.133,4.576,12.407,2.747,18.688s-5.729,11.743-9.884,16.795c-14.519,17.663-33.315,32.05-54.765,39.971s-41.443,10.4-63.133,3.159" transform="translate(-538.702 -309.793)" fill="#00b894"/>
        </g>
      </g>
    </g>
    <g id="Grupo_394" data-name="Grupo 394" transform="translate(44.038 5.37)">
      <g id="Grupo_393" data-name="Grupo 393">
        <g id="Grupo_392" data-name="Grupo 392">
          <g id="Grupo_391" data-name="Grupo 391">
            <path id="Trazado_535" data-name="Trazado 535" d="M687.535,311.984a4.918,4.918,0,0,1-.645.652c-.488.454-1.143,1.055-1.969,1.825-1.741,1.589-4.3,3.941-7.522,7.056a252.37,252.37,0,0,0-25.241,28.226c-4.9,6.328-9.972,13.479-15.279,21.256s-10.9,16.15-16.454,25.151a301.155,301.155,0,0,0-16.04,29.023c-2.492,5.182-4.689,10.6-6.936,16.118s-4.5,11.112-6.794,16.775c-9.092,22.688-17.04,44.6-22.6,65.024a295.683,295.683,0,0,0-9.962,55.224,216.549,216.549,0,0,0,.289,37.84c.466,4.449.9,7.9,1.27,10.227.162,1.118.287,2,.383,2.659a4.749,4.749,0,0,1,.086.91,5.354,5.354,0,0,1-.213-.888c-.123-.657-.289-1.528-.5-2.639-.459-2.315-.969-5.763-1.506-10.217a206.6,206.6,0,0,1-.689-37.958,290.605,290.605,0,0,1,9.734-55.459c5.518-20.5,13.452-42.475,22.551-65.183q3.447-8.505,6.8-16.788c2.244-5.5,4.469-10.963,6.98-16.17a299.917,299.917,0,0,1,16.167-29.1c5.6-9.008,11.243-17.359,16.577-25.129,5.356-7.76,10.48-14.9,15.439-21.212a238.9,238.9,0,0,1,25.6-28.037c3.274-3.066,5.9-5.361,7.689-6.894.866-.728,1.545-1.3,2.055-1.734A5.119,5.119,0,0,1,687.535,311.984Z" transform="translate(-556.658 -311.983)" fill="#263238"/>
          </g>
        </g>
      </g>
    </g>
    <g id="Grupo_398" data-name="Grupo 398" transform="translate(79.281 44.537)">
      <g id="Grupo_397" data-name="Grupo 397">
        <g id="Grupo_396" data-name="Grupo 396">
          <g id="Grupo_395" data-name="Grupo 395">
            <path id="Trazado_536" data-name="Trazado 536" d="M582.763,401.394a13.263,13.263,0,0,1-.736-2.84c-.4-1.842-.89-4.527-1.452-7.848-1.123-6.649-2.357-15.875-3.676-26.056s-2.683-19.372-3.907-25.982c-.6-3.306-1.116-5.977-1.5-7.821a12.945,12.945,0,0,1-.447-2.894,13.206,13.206,0,0,1,.92,2.784c.525,1.815,1.175,4.466,1.888,7.76,1.449,6.592,2.955,15.8,4.277,25.989,1.278,10.05,2.43,19.142,3.313,26.088.422,3.134.772,5.778,1.057,7.9A13.254,13.254,0,0,1,582.763,401.394Z" transform="translate(-571.028 -327.953)" fill="#263238"/>
          </g>
        </g>
      </g>
    </g>
    <g id="Grupo_402" data-name="Grupo 402" transform="translate(91.016 99.743)">
      <g id="Grupo_401" data-name="Grupo 401">
        <g id="Grupo_400" data-name="Grupo 400">
          <g id="Grupo_399" data-name="Grupo 399">
            <path id="Trazado_537" data-name="Trazado 537" d="M662.66,350.523a19.03,19.03,0,0,1-3.468.5c-2.234.25-5.469.593-9.45,1.148-7.968,1.042-18.928,2.862-30.929,5.391-12,2.553-22.76,5.317-30.485,7.539-3.873,1.086-6.98,2.045-9.131,2.7a19.04,19.04,0,0,1-3.384.907,19.072,19.072,0,0,1,3.228-1.369c2.112-.79,5.187-1.881,9.035-3.08,7.681-2.445,18.443-5.354,30.48-7.914a312.194,312.194,0,0,1,31.081-5.047c4.005-.439,7.264-.652,9.516-.753A18.722,18.722,0,0,1,662.66,350.523Z" transform="translate(-575.813 -350.462)" fill="#263238"/>
          </g>
        </g>
      </g>
    </g>
    <g id="Grupo_406" data-name="Grupo 406" transform="translate(8.731 105.647)">
      <g id="Grupo_405" data-name="Grupo 405">
        <g id="Grupo_404" data-name="Grupo 404">
          <g id="Grupo_403" data-name="Grupo 403">
            <path id="Trazado_538" data-name="Trazado 538" d="M588.89,461.792a4.422,4.422,0,0,1-.623-1.037c-.427-.831-.944-1.849-1.572-3.078-1.346-2.683-3.2-6.61-5.422-11.493-4.449-9.763-10.166-23.439-16.27-38.617s-11.689-28.893-15.927-38.735c-2.077-4.785-3.784-8.719-5.055-11.642-.544-1.268-.988-2.318-1.356-3.174a4.551,4.551,0,0,1-.4-1.145,4.275,4.275,0,0,1,.623,1.038c.424.829.944,1.844,1.572,3.075,1.346,2.683,3.2,6.61,5.42,11.493,4.451,9.763,10.168,23.444,16.275,38.625s11.686,28.883,15.924,38.728c2.077,4.782,3.784,8.716,5.055,11.642.542,1.271.988,2.318,1.356,3.174A4.41,4.41,0,0,1,588.89,461.792Z" transform="translate(-542.262 -352.87)" fill="#263238"/>
          </g>
        </g>
      </g>
    </g>
    <g id="Grupo_410" data-name="Grupo 410" transform="translate(55.358 174.911)">
      <g id="Grupo_409" data-name="Grupo 409">
        <g id="Grupo_408" data-name="Grupo 408">
          <g id="Grupo_407" data-name="Grupo 407">
            <path id="Trazado_539" data-name="Trazado 539" d="M676.3,381.122a4.581,4.581,0,0,1-1.14.5l-3.338,1.192c-3.085,1.069-7.25,2.514-12.317,4.265-10.4,3.605-24.707,8.751-40.5,14.455s-30.173,10.72-40.651,14.117c-5.241,1.7-9.491,3.029-12.449,3.892-1.371.388-2.5.709-3.414.966a4.832,4.832,0,0,1-1.214.263,4.358,4.358,0,0,1,1.141-.5c.9-.321,2-.714,3.338-1.194,3.083-1.067,7.247-2.511,12.317-4.265,10.4-3.608,24.707-8.748,40.508-14.458s30.166-10.717,40.646-14.112c5.239-1.7,9.494-3.031,12.452-3.892,1.366-.393,2.492-.709,3.409-.971A4.532,4.532,0,0,1,676.3,381.122Z" transform="translate(-561.274 -381.112)" fill="#263238"/>
          </g>
        </g>
      </g>
    </g>
  </g>
</svg>
