<svg xmlns="http://www.w3.org/2000/svg" width="23.004" height="26.29" viewBox="0 0 23.004 26.29">
  <g id="question" transform="translate(-30.673 -0.904)">
    <path id="Trazado_1234" data-name="Trazado 1234" d="M67.483,27.594a11.536,11.536,0,0,1-11.5,11.5,8.669,8.669,0,0,1-2.547-.329l-5.34,3.615.822-5.669a11.516,11.516,0,1,1,18.567-9.119Z" transform="translate(-13.806 -15.188)" fill="#ffe781"/>
    <path id="Trazado_1238" data-name="Trazado 1238" d="M187.147,130.059a.776.776,0,0,1-.822-.822v-2.711a.776.776,0,0,1,.822-.822,2.054,2.054,0,1,0-2.054-2.054.822.822,0,0,1-1.643,0,3.7,3.7,0,1,1,7.394,0,3.774,3.774,0,0,1-2.876,3.615v1.972A.823.823,0,0,1,187.147,130.059Z" transform="translate(-144.972 -113.217)" fill="#e7b200"/>
    <path id="Trazado_1239" data-name="Trazado 1239" d="M234.9,314.448a.813.813,0,1,1,1.15,0A.735.735,0,0,1,234.9,314.448Z" transform="translate(-193.297 -295.47)" fill="#e7b200"/>
  </g>
</svg>
