<svg id="XMLID_386_" xmlns="http://www.w3.org/2000/svg" width="50.459" height="48.437" viewBox="0 0 50.459 48.437">
  <path id="XMLID_389_" d="M50.362,36.811A19.892,19.892,0,0,0,34.894,19.369v-2.5a3.351,3.351,0,0,0-.809-6.6h-7.1a3.351,3.351,0,0,0-.809,6.6v2.511a19.789,19.789,0,0,0-9.705,5.339,20,20,0,0,0-1.673,1.9c-.025,0-.049,0-.075,0H7.7a.986.986,0,1,0,0,1.971H13.46a19.757,19.757,0,0,0-1.749,3.788H.986a.986.986,0,1,0,0,1.971H11.155a20.038,20.038,0,0,0-.489,3.788H6.307a.986.986,0,1,0,0,1.971H10.7a20.009,20.009,0,0,0,.615,3.788H4.928a.986.986,0,0,0,0,1.971h7.014A19.905,19.905,0,0,0,28.584,58.6q.977.1,1.953.1A19.956,19.956,0,0,0,41.4,55.488a.986.986,0,0,0-1.076-1.652,17.937,17.937,0,1,1,5.283-5.29.986.986,0,1,0,1.653,1.073A19.972,19.972,0,0,0,50.362,36.811Zm-24.753-23.2a1.381,1.381,0,0,1,1.38-1.38h7.1a1.38,1.38,0,0,1,0,2.76h-7.1A1.381,1.381,0,0,1,25.609,13.613Zm2.542,5.424V16.964h4.771v2.069A20.081,20.081,0,0,0,28.151,19.037Z" transform="translate(0 -10.262)" fill="#999"/>
  <path id="XMLID_391_" d="M436.756,425.5a.986.986,0,1,0,.7.289A.991.991,0,0,0,436.756,425.5Z" transform="translate(-392.823 -384.576)"/>
  <path id="XMLID_394_" d="M170.161,144.609A15.289,15.289,0,1,0,185.449,159.9,15.306,15.306,0,0,0,170.161,144.609Zm0,28.606A13.318,13.318,0,1,1,183.478,159.9,13.333,13.333,0,0,1,170.161,173.215Z" transform="translate(-139.609 -131.368)" fill="#2bc1d3"/>
  <path id="XMLID_397_" d="M268.49,219.7l-4.881,4.881a3.055,3.055,0,0,0-2.706,0l-2.185-2.185a.986.986,0,1,0-1.394,1.394l2.185,2.185a3.062,3.062,0,1,0,5.493,0l4.738-4.738h0l.143-.143a.986.986,0,0,0-1.394-1.394Zm-6.234,8.719a1.091,1.091,0,1,1,1.091-1.091A1.093,1.093,0,0,1,262.256,228.419Z" transform="translate(-231.704 -198.799)" fill="#525452"/>
  <path id="XMLID_398_" d="M399.554,289.86h-.913a.986.986,0,0,0,0,1.971h.913a.986.986,0,1,0,0-1.971Z" transform="translate(-358.464 -262.304)"/>
  <path id="XMLID_399_" d="M194.981,289.616h-.913a.986.986,0,1,0,0,1.971h.913a.986.986,0,0,0,0-1.971Z" transform="translate(-174.053 -262.084)"/>
  <path id="XMLID_400_" d="M301.109,185.7a.986.986,0,0,0,.986-.986V183.8a.986.986,0,1,0-1.971,0v.913A.986.986,0,0,0,301.109,185.7Z" transform="translate(-270.544 -165.813)"/>
  <path id="XMLID_424_" d="M300.865,387.393a.986.986,0,0,0-.986.986v.913a.986.986,0,0,0,1.971,0v-.913A.986.986,0,0,0,300.865,387.393Z" transform="translate(-270.325 -350.225)"/>
  <path id="XMLID_425_" d="M.986,351.44a.986.986,0,1,0,.7,1.682.986.986,0,0,0-.7-1.682Z" transform="translate(0 -317.815)"/>
</svg>
