<svg id="whatsapp-logo" xmlns="http://www.w3.org/2000/svg" width="37.714" height="37.714" viewBox="0 0 37.714 37.714">
  <path id="WhatsApp" d="M37.714,18.372A18.545,18.545,0,0,1,10.25,34.457L0,37.714l3.342-9.857A18.178,18.178,0,0,1,.685,18.372a18.515,18.515,0,0,1,37.029,0ZM19.2,2.926A15.523,15.523,0,0,0,3.634,18.372,15.283,15.283,0,0,0,6.6,27.427L4.654,33.163l5.982-1.9a15.581,15.581,0,0,0,24.13-12.89A15.525,15.525,0,0,0,19.2,2.926ZM28.549,22.6c-.114-.187-.417-.3-.87-.525s-2.686-1.315-3.1-1.465-.72-.225-1.022.225S22.385,22.3,22.119,22.6s-.529.339-.984.114a12.422,12.422,0,0,1-3.649-2.235,13.576,13.576,0,0,1-2.525-3.118c-.264-.45-.028-.694.2-.918.2-.2.454-.526.681-.789a3.018,3.018,0,0,0,.453-.751.82.82,0,0,0-.038-.789c-.113-.225-1.022-2.441-1.4-3.343s-.756-.751-1.021-.751-.567-.038-.87-.038a1.675,1.675,0,0,0-1.211.563A5.035,5.035,0,0,0,10.169,14.3a8.713,8.713,0,0,0,1.853,4.657c.227.3,3.139,5,7.752,6.8s4.614,1.2,5.446,1.126a4.59,4.59,0,0,0,3.064-2.14A3.754,3.754,0,0,0,28.549,22.6Z" fill="#fff"/>
</svg>
